G04 EAGLE Gerber RS-274X export*
G75*
%MOMM*%
%FSLAX34Y34*%
%LPD*%
%INTop Copper*%
%IPPOS*%
%AMOC8*
5,1,8,0,0,1.08239X$1,22.5*%
G01*
%ADD10P,1.649562X8X22.500000*%
%ADD11P,1.539592X8X202.500000*%
%ADD12C,1.422400*%
%ADD13C,1.524000*%
%ADD14P,1.539592X8X22.500000*%
%ADD15C,0.152400*%


D10*
X50800Y40640D03*
X50800Y60960D03*
X76200Y40640D03*
X76200Y60960D03*
X101600Y40640D03*
X101600Y60960D03*
X127000Y40640D03*
X127000Y60960D03*
X152400Y40640D03*
X152400Y60960D03*
X177800Y40640D03*
X177800Y60960D03*
X203200Y40640D03*
X203200Y60960D03*
X228600Y40640D03*
X228600Y60960D03*
X254000Y40640D03*
X254000Y60960D03*
X279400Y40640D03*
X279400Y60960D03*
X304800Y40640D03*
X304800Y60960D03*
X330200Y40640D03*
X330200Y60960D03*
X355600Y40640D03*
X355600Y60960D03*
X381000Y40640D03*
X381000Y60960D03*
X406400Y40640D03*
X406400Y60960D03*
X431800Y40640D03*
X431800Y60960D03*
X457200Y40640D03*
X457200Y60960D03*
X482600Y40640D03*
X482600Y60960D03*
X508000Y40640D03*
X508000Y60960D03*
X533400Y40640D03*
X533400Y60960D03*
X558800Y40640D03*
X558800Y60960D03*
X584200Y40640D03*
X584200Y60960D03*
X609600Y40640D03*
X609600Y60960D03*
D11*
X194310Y344170D03*
X118110Y344170D03*
D12*
X406400Y466090D03*
X431800Y466090D03*
X457200Y466090D03*
X482600Y466090D03*
X508000Y466090D03*
X533400Y466090D03*
X558800Y466090D03*
X584200Y466090D03*
X609600Y466090D03*
D13*
X139700Y233680D02*
X139700Y218440D01*
X114300Y218440D02*
X114300Y233680D01*
D11*
X193040Y430530D03*
X116840Y430530D03*
D12*
X222250Y345440D03*
X219710Y430530D03*
X220980Y388620D03*
D11*
X195580Y388620D03*
X119380Y388620D03*
D13*
X227330Y187960D02*
X227330Y172720D01*
X201930Y172720D02*
X201930Y187960D01*
X176530Y187960D02*
X176530Y172720D01*
X151130Y172720D02*
X151130Y187960D01*
D11*
X133350Y153670D03*
X57150Y153670D03*
D14*
X274320Y194310D03*
X350520Y194310D03*
X276860Y154940D03*
X353060Y154940D03*
D12*
X50800Y118110D03*
X76200Y118110D03*
X101600Y118110D03*
D10*
X50800Y523240D03*
X50800Y543560D03*
X76200Y523240D03*
X76200Y543560D03*
X101600Y523240D03*
X101600Y543560D03*
X127000Y523240D03*
X127000Y543560D03*
X152400Y523240D03*
X152400Y543560D03*
X177800Y523240D03*
X177800Y543560D03*
X203200Y523240D03*
X203200Y543560D03*
X228600Y523240D03*
X228600Y543560D03*
X254000Y523240D03*
X254000Y543560D03*
X279400Y523240D03*
X279400Y543560D03*
X304800Y523240D03*
X304800Y543560D03*
X330200Y523240D03*
X330200Y543560D03*
X355600Y523240D03*
X355600Y543560D03*
X381000Y523240D03*
X381000Y543560D03*
X406400Y523240D03*
X406400Y543560D03*
X431800Y523240D03*
X431800Y543560D03*
X457200Y523240D03*
X457200Y543560D03*
X482600Y523240D03*
X482600Y543560D03*
X508000Y523240D03*
X508000Y543560D03*
X533400Y523240D03*
X533400Y543560D03*
X558800Y523240D03*
X558800Y543560D03*
X584200Y523240D03*
X584200Y543560D03*
X609600Y523240D03*
X609600Y543560D03*
D12*
X127000Y116840D03*
X152400Y118110D03*
X177800Y118110D03*
X203200Y118110D03*
X228600Y118110D03*
X254000Y118110D03*
X279400Y118110D03*
X304800Y118110D03*
X330200Y118110D03*
X355600Y118110D03*
D13*
X464820Y165100D02*
X480060Y165100D01*
X480060Y190500D02*
X464820Y190500D01*
X464820Y215900D02*
X480060Y215900D01*
X480060Y241300D02*
X464820Y241300D01*
D12*
X381000Y118110D03*
X406400Y118110D03*
X431800Y118110D03*
X457200Y118110D03*
X482600Y118110D03*
X508000Y118110D03*
X533400Y118110D03*
X558800Y118110D03*
X584200Y118110D03*
X609600Y118110D03*
D13*
X444500Y166370D02*
X429260Y166370D01*
X429260Y191770D02*
X444500Y191770D01*
X444500Y217170D02*
X429260Y217170D01*
X429260Y242570D02*
X444500Y242570D01*
D12*
X50800Y86360D03*
X76200Y86360D03*
X101600Y86360D03*
X127000Y86360D03*
X152400Y86360D03*
X177800Y86360D03*
X203200Y86360D03*
X228600Y86360D03*
X254000Y86360D03*
X279400Y86360D03*
D13*
X393700Y166370D02*
X408940Y166370D01*
X408940Y191770D02*
X393700Y191770D01*
X393700Y217170D02*
X408940Y217170D01*
X408940Y242570D02*
X393700Y242570D01*
D12*
X304800Y86360D03*
X330200Y86360D03*
X355600Y86360D03*
X381000Y86360D03*
X406400Y86360D03*
X431800Y86360D03*
X457200Y86360D03*
X482600Y87630D03*
X508000Y86360D03*
X533400Y86360D03*
D13*
X548640Y259080D02*
X548640Y274320D01*
X574040Y274320D02*
X574040Y259080D01*
X599440Y259080D02*
X599440Y274320D01*
D12*
X558800Y86360D03*
X584200Y86360D03*
X609600Y86360D03*
X50800Y495300D03*
X76200Y495300D03*
X101600Y495300D03*
X127000Y495300D03*
X152400Y495300D03*
X177800Y495300D03*
X203200Y495300D03*
D13*
X548640Y236220D02*
X548640Y220980D01*
X574040Y220980D02*
X574040Y236220D01*
X599440Y236220D02*
X599440Y220980D01*
D12*
X228600Y495300D03*
X254000Y495300D03*
X279400Y495300D03*
X304800Y495300D03*
X330200Y495300D03*
X355600Y495300D03*
X381000Y495300D03*
X406400Y495300D03*
X431800Y495300D03*
X457200Y495300D03*
D13*
X548640Y203200D02*
X548640Y187960D01*
X574040Y187960D02*
X574040Y203200D01*
X599440Y203200D02*
X599440Y187960D01*
D12*
X482600Y495300D03*
X508000Y495300D03*
X533400Y495300D03*
X558800Y495300D03*
X584200Y495300D03*
X609600Y495300D03*
X50800Y466090D03*
X76200Y466090D03*
X101600Y466090D03*
X127000Y466090D03*
D13*
X548640Y165100D02*
X548640Y149860D01*
X574040Y149860D02*
X574040Y165100D01*
X599440Y165100D02*
X599440Y149860D01*
D12*
X152400Y466090D03*
X177800Y466090D03*
X203200Y466090D03*
X228600Y466090D03*
X254000Y466090D03*
X279400Y466090D03*
X304800Y466090D03*
X330200Y466090D03*
X355600Y466090D03*
X381000Y466090D03*
D15*
X102108Y85344D02*
X102108Y60960D01*
X102108Y85344D02*
X101600Y86360D01*
X102108Y86868D02*
X102108Y117348D01*
X101600Y118110D01*
X102108Y86868D02*
X101600Y86360D01*
X102108Y60960D02*
X102108Y41148D01*
X101600Y40640D01*
X101600Y60960D02*
X102108Y60960D01*
X278892Y74676D02*
X278892Y85344D01*
X278892Y74676D02*
X268224Y64008D01*
X268224Y51816D01*
X279400Y40640D01*
X278892Y85344D02*
X279400Y86360D01*
X353568Y155448D02*
X353568Y169164D01*
X400812Y216408D01*
X353568Y155448D02*
X353060Y154940D01*
X400812Y216408D02*
X401320Y217170D01*
X402336Y217932D02*
X435864Y217932D01*
X436880Y217170D01*
X402336Y217932D02*
X401320Y217170D01*
X437388Y216408D02*
X472440Y216408D01*
X472440Y215900D01*
X437388Y216408D02*
X436880Y217170D01*
X291084Y39624D02*
X280416Y39624D01*
X291084Y39624D02*
X300228Y30480D01*
X309372Y30480D01*
X320040Y41148D01*
X320040Y121920D01*
X353060Y154940D01*
X279400Y40640D02*
X280416Y39624D01*
X280416Y99060D02*
X280416Y117348D01*
X280416Y99060D02*
X289560Y89916D01*
X289560Y70104D01*
X280416Y60960D01*
X280416Y117348D02*
X279400Y118110D01*
X279400Y60960D02*
X280416Y60960D01*
X350520Y195072D02*
X353568Y195072D01*
X400812Y242316D01*
X350520Y195072D02*
X350520Y194310D01*
X400812Y242316D02*
X401320Y242570D01*
X402336Y242316D02*
X435864Y242316D01*
X436880Y242570D01*
X402336Y242316D02*
X401320Y242570D01*
X437388Y242316D02*
X472440Y242316D01*
X472440Y241300D01*
X437388Y242316D02*
X436880Y242570D01*
X280416Y123444D02*
X280416Y118872D01*
X280416Y123444D02*
X350520Y193548D01*
X280416Y118872D02*
X279400Y118110D01*
X350520Y193548D02*
X350520Y194310D01*
X431292Y117348D02*
X431292Y100584D01*
X422148Y91440D01*
X422148Y70104D01*
X431292Y60960D01*
X431292Y117348D02*
X431800Y118110D01*
X431800Y60960D02*
X431292Y60960D01*
X548640Y195580D02*
X548640Y228600D01*
X457200Y118110D02*
X457200Y100584D01*
X446532Y89916D01*
X446532Y71628D01*
X457200Y60960D01*
X574548Y196596D02*
X574548Y228600D01*
X574548Y196596D02*
X574040Y195580D01*
X574548Y228600D02*
X574548Y246888D01*
X574548Y266700D01*
X574040Y266700D01*
X574040Y228600D02*
X574548Y228600D01*
X457200Y128016D02*
X457200Y118110D01*
X457200Y128016D02*
X537972Y208788D01*
X537972Y240792D01*
X544068Y246888D01*
X574548Y246888D01*
X533400Y86360D02*
X533400Y76200D01*
X522732Y65532D01*
X522732Y51816D01*
X533400Y41148D01*
X533400Y40640D01*
X600456Y249936D02*
X600456Y266700D01*
X600456Y249936D02*
X612648Y237744D01*
X612648Y143256D01*
X597408Y128016D01*
X580644Y128016D01*
X573024Y120396D01*
X573024Y39624D01*
X563880Y30480D01*
X542544Y30480D01*
X533400Y39624D01*
X599440Y266700D02*
X600456Y266700D01*
X533400Y40640D02*
X533400Y39624D01*
X533400Y100584D02*
X533400Y118110D01*
X533400Y100584D02*
X544068Y89916D01*
X544068Y71628D01*
X533400Y60960D01*
X600456Y216408D02*
X600456Y228600D01*
X600456Y216408D02*
X609600Y207264D01*
X609600Y144780D01*
X595884Y131064D01*
X545592Y131064D01*
X533400Y118872D01*
X599440Y228600D02*
X600456Y228600D01*
X533400Y118872D02*
X533400Y118110D01*
X507492Y85344D02*
X507492Y74676D01*
X496824Y64008D01*
X496824Y51816D01*
X508000Y40640D01*
X507492Y85344D02*
X508000Y86360D01*
X595884Y195072D02*
X598932Y195072D01*
X595884Y195072D02*
X576072Y175260D01*
X544068Y175260D01*
X498348Y129540D01*
X498348Y96012D01*
X508000Y86360D01*
X598932Y195072D02*
X599440Y195580D01*
X509016Y117348D02*
X509016Y99060D01*
X518160Y89916D01*
X518160Y70104D01*
X509016Y60960D01*
X509016Y117348D02*
X508000Y118110D01*
X508000Y60960D02*
X509016Y60960D01*
X595884Y156972D02*
X598932Y156972D01*
X595884Y156972D02*
X577596Y138684D01*
X528828Y138684D01*
X509016Y118872D01*
X598932Y156972D02*
X599440Y157480D01*
X509016Y118872D02*
X508000Y118110D01*
X435864Y192024D02*
X402336Y192024D01*
X401320Y191770D01*
X435864Y192024D02*
X436880Y191770D01*
X437388Y190500D02*
X472440Y190500D01*
X437388Y190500D02*
X436880Y191770D01*
X609600Y60960D02*
X609600Y41148D01*
X609600Y118872D02*
X585216Y118872D01*
X584200Y118110D01*
X609600Y118110D02*
X609600Y118872D01*
X609600Y86868D02*
X585216Y86868D01*
X584200Y86360D01*
X609600Y86360D02*
X609600Y86868D01*
X585216Y60960D02*
X585216Y41148D01*
X585216Y60960D02*
X584200Y60960D01*
X583692Y60960D02*
X583692Y85344D01*
X584200Y86360D01*
X584200Y60960D02*
X583692Y60960D01*
X583692Y86868D02*
X583692Y117348D01*
X584200Y118110D01*
X583692Y86868D02*
X584200Y86360D01*
X585216Y41148D02*
X609600Y41148D01*
X609600Y40640D01*
X585216Y41148D02*
X584200Y40640D01*
X400812Y190500D02*
X382524Y172212D01*
X382524Y163068D01*
X417576Y128016D01*
X435864Y128016D01*
X443484Y120396D01*
X443484Y68580D01*
X446532Y65532D01*
X446532Y36576D01*
X455676Y27432D01*
X571500Y27432D01*
X583692Y39624D01*
X400812Y190500D02*
X401320Y191770D01*
X584200Y40640D02*
X583692Y39624D01*
X51816Y524256D02*
X51816Y542544D01*
X51816Y524256D02*
X50800Y523240D01*
X51816Y542544D02*
X50800Y543560D01*
X50292Y495300D02*
X50292Y466344D01*
X50800Y466090D01*
X50800Y495300D02*
X50292Y495300D01*
X51816Y495300D02*
X51816Y522732D01*
X50800Y523240D01*
X50800Y495300D02*
X51816Y495300D01*
X118872Y388620D02*
X118872Y344424D01*
X118110Y344170D01*
X117348Y390144D02*
X117348Y429768D01*
X117348Y390144D02*
X118872Y388620D01*
X117348Y429768D02*
X116840Y430530D01*
X118872Y388620D02*
X119380Y388620D01*
X64008Y464820D02*
X51816Y464820D01*
X64008Y464820D02*
X97536Y431292D01*
X115824Y431292D01*
X51816Y464820D02*
X50800Y466090D01*
X115824Y431292D02*
X116840Y430530D01*
X140208Y225552D02*
X140208Y192024D01*
X150876Y181356D01*
X140208Y225552D02*
X139700Y226060D01*
X150876Y181356D02*
X151130Y180340D01*
X50292Y85344D02*
X50292Y60960D01*
X50292Y85344D02*
X50800Y86360D01*
X50800Y60960D02*
X50292Y60960D01*
X50292Y86868D02*
X50292Y117348D01*
X50800Y118110D01*
X50292Y86868D02*
X50800Y86360D01*
X51816Y60960D02*
X51816Y41148D01*
X50800Y40640D01*
X50800Y60960D02*
X51816Y60960D01*
X124968Y192024D02*
X140208Y192024D01*
X124968Y192024D02*
X51816Y118872D01*
X50800Y118110D01*
X118872Y246888D02*
X118872Y342900D01*
X118872Y246888D02*
X139700Y226060D01*
X118872Y342900D02*
X118110Y344170D01*
X441960Y36576D02*
X446532Y36576D01*
X441960Y36576D02*
X432816Y27432D01*
X64008Y27432D01*
X50800Y40640D01*
X202692Y74676D02*
X202692Y85344D01*
X202692Y74676D02*
X192024Y64008D01*
X192024Y51816D01*
X203200Y40640D01*
X202692Y85344D02*
X203200Y86360D01*
X201168Y129540D02*
X201168Y179832D01*
X201168Y129540D02*
X193548Y121920D01*
X193548Y96012D01*
X203200Y86360D01*
X201168Y179832D02*
X201930Y180340D01*
X178308Y85344D02*
X178308Y74676D01*
X188976Y64008D01*
X188976Y51816D01*
X177800Y40640D01*
X178308Y85344D02*
X177800Y86360D01*
X176784Y132588D02*
X176784Y179832D01*
X176784Y132588D02*
X187452Y121920D01*
X187452Y96012D01*
X177800Y86360D01*
X176784Y179832D02*
X176530Y180340D01*
X481584Y86868D02*
X481584Y74676D01*
X472440Y65532D01*
X472440Y50292D01*
X481584Y41148D01*
X481584Y86868D02*
X482600Y87630D01*
X481584Y41148D02*
X482600Y40640D01*
X457200Y76200D02*
X457200Y86360D01*
X457200Y76200D02*
X467868Y65532D01*
X467868Y51816D01*
X457200Y41148D01*
X457200Y40640D01*
X432816Y74676D02*
X432816Y85344D01*
X432816Y74676D02*
X441960Y65532D01*
X441960Y50292D01*
X432816Y41148D01*
X432816Y85344D02*
X431800Y86360D01*
X432816Y41148D02*
X431800Y40640D01*
X406908Y74676D02*
X406908Y85344D01*
X406908Y74676D02*
X417576Y64008D01*
X417576Y51816D01*
X406400Y40640D01*
X406908Y85344D02*
X406400Y86360D01*
X381000Y86360D02*
X381000Y76200D01*
X391668Y65532D01*
X391668Y51816D01*
X381000Y41148D01*
X381000Y40640D01*
X356616Y74676D02*
X356616Y85344D01*
X356616Y74676D02*
X365760Y65532D01*
X365760Y50292D01*
X356616Y41148D01*
X356616Y85344D02*
X355600Y86360D01*
X356616Y41148D02*
X355600Y40640D01*
X304800Y76200D02*
X304800Y86360D01*
X304800Y76200D02*
X315468Y65532D01*
X315468Y51816D01*
X304800Y41148D01*
X304800Y40640D01*
X252984Y74676D02*
X252984Y85344D01*
X252984Y74676D02*
X243840Y65532D01*
X243840Y50292D01*
X252984Y41148D01*
X252984Y85344D02*
X254000Y86360D01*
X252984Y41148D02*
X254000Y40640D01*
X152400Y76200D02*
X152400Y86360D01*
X152400Y76200D02*
X163068Y65532D01*
X163068Y51816D01*
X152400Y41148D01*
X152400Y40640D01*
X128016Y74676D02*
X128016Y85344D01*
X128016Y74676D02*
X137160Y65532D01*
X137160Y50292D01*
X128016Y41148D01*
X128016Y85344D02*
X127000Y86360D01*
X128016Y41148D02*
X127000Y40640D01*
X557784Y99060D02*
X557784Y117348D01*
X557784Y99060D02*
X548640Y89916D01*
X548640Y70104D01*
X557784Y60960D01*
X557784Y117348D02*
X558800Y118110D01*
X558800Y60960D02*
X557784Y60960D01*
X483108Y100584D02*
X483108Y117348D01*
X483108Y100584D02*
X492252Y91440D01*
X492252Y70104D01*
X483108Y60960D01*
X483108Y117348D02*
X482600Y118110D01*
X482600Y60960D02*
X483108Y60960D01*
X405384Y99060D02*
X405384Y117348D01*
X405384Y99060D02*
X396240Y89916D01*
X396240Y70104D01*
X405384Y60960D01*
X405384Y117348D02*
X406400Y118110D01*
X406400Y60960D02*
X405384Y60960D01*
X381000Y100584D02*
X381000Y118110D01*
X381000Y100584D02*
X370332Y89916D01*
X370332Y71628D01*
X381000Y60960D01*
X126492Y100584D02*
X126492Y115824D01*
X126492Y100584D02*
X117348Y91440D01*
X117348Y70104D01*
X126492Y60960D01*
X126492Y115824D02*
X127000Y116840D01*
X127000Y60960D02*
X126492Y60960D01*
X152400Y100584D02*
X152400Y118110D01*
X152400Y100584D02*
X141732Y89916D01*
X141732Y71628D01*
X152400Y60960D01*
X176784Y99060D02*
X176784Y117348D01*
X176784Y99060D02*
X167640Y89916D01*
X167640Y70104D01*
X176784Y60960D01*
X176784Y117348D02*
X177800Y118110D01*
X177800Y60960D02*
X176784Y60960D01*
X204216Y99060D02*
X204216Y117348D01*
X204216Y99060D02*
X213360Y89916D01*
X213360Y70104D01*
X204216Y60960D01*
X204216Y117348D02*
X203200Y118110D01*
X203200Y60960D02*
X204216Y60960D01*
X228600Y100584D02*
X228600Y118110D01*
X228600Y100584D02*
X217932Y89916D01*
X217932Y71628D01*
X228600Y60960D01*
X254508Y100584D02*
X254508Y117348D01*
X254508Y100584D02*
X263652Y91440D01*
X263652Y70104D01*
X254508Y60960D01*
X254508Y117348D02*
X254000Y118110D01*
X254000Y60960D02*
X254508Y60960D01*
X304800Y100584D02*
X304800Y118110D01*
X304800Y100584D02*
X294132Y89916D01*
X294132Y71628D01*
X304800Y60960D01*
X330708Y100584D02*
X330708Y117348D01*
X330708Y100584D02*
X339852Y91440D01*
X339852Y70104D01*
X330708Y60960D01*
X330708Y117348D02*
X330200Y118110D01*
X330200Y60960D02*
X330708Y60960D01*
X355092Y100584D02*
X355092Y117348D01*
X355092Y100584D02*
X345948Y91440D01*
X345948Y70104D01*
X355092Y60960D01*
X355092Y117348D02*
X355600Y118110D01*
X355600Y60960D02*
X355092Y60960D01*
X76200Y466090D02*
X76200Y481584D01*
X65532Y492252D01*
X65532Y512064D01*
X76200Y522732D01*
X76200Y523240D01*
X100584Y481584D02*
X100584Y466344D01*
X100584Y481584D02*
X91440Y490728D01*
X91440Y513588D01*
X100584Y522732D01*
X100584Y466344D02*
X101600Y466090D01*
X100584Y522732D02*
X101600Y523240D01*
X126492Y481584D02*
X126492Y466344D01*
X126492Y481584D02*
X117348Y490728D01*
X117348Y513588D01*
X127000Y523240D01*
X126492Y466344D02*
X127000Y466090D01*
X152400Y466090D02*
X152400Y481584D01*
X141732Y492252D01*
X141732Y512064D01*
X152400Y522732D01*
X152400Y523240D01*
X176784Y481584D02*
X176784Y466344D01*
X176784Y481584D02*
X167640Y490728D01*
X167640Y513588D01*
X176784Y522732D01*
X176784Y466344D02*
X177800Y466090D01*
X176784Y522732D02*
X177800Y523240D01*
X202692Y481584D02*
X202692Y466344D01*
X202692Y481584D02*
X193548Y490728D01*
X193548Y513588D01*
X203200Y523240D01*
X202692Y466344D02*
X203200Y466090D01*
X228600Y466090D02*
X228600Y481584D01*
X217932Y492252D01*
X217932Y512064D01*
X228600Y522732D01*
X228600Y523240D01*
X252984Y481584D02*
X252984Y466344D01*
X252984Y481584D02*
X243840Y490728D01*
X243840Y513588D01*
X252984Y522732D01*
X252984Y466344D02*
X254000Y466090D01*
X252984Y522732D02*
X254000Y523240D01*
X278892Y481584D02*
X278892Y466344D01*
X278892Y481584D02*
X269748Y490728D01*
X269748Y513588D01*
X279400Y523240D01*
X278892Y466344D02*
X279400Y466090D01*
X304800Y466090D02*
X304800Y481584D01*
X294132Y492252D01*
X294132Y512064D01*
X304800Y522732D01*
X304800Y523240D01*
X329184Y481584D02*
X329184Y466344D01*
X329184Y481584D02*
X320040Y490728D01*
X320040Y513588D01*
X329184Y522732D01*
X329184Y466344D02*
X330200Y466090D01*
X329184Y522732D02*
X330200Y523240D01*
X355092Y481584D02*
X355092Y466344D01*
X355092Y481584D02*
X345948Y490728D01*
X345948Y513588D01*
X355600Y523240D01*
X355092Y466344D02*
X355600Y466090D01*
X381000Y466090D02*
X381000Y481584D01*
X370332Y492252D01*
X370332Y512064D01*
X381000Y522732D01*
X381000Y523240D01*
X381000Y509016D02*
X381000Y495300D01*
X381000Y509016D02*
X391668Y519684D01*
X391668Y531876D01*
X381000Y542544D01*
X381000Y543560D01*
X356616Y509016D02*
X356616Y495300D01*
X356616Y509016D02*
X365760Y518160D01*
X365760Y533400D01*
X355600Y543560D01*
X355600Y495300D02*
X356616Y495300D01*
X330708Y495300D02*
X330708Y509016D01*
X341376Y519684D01*
X341376Y531876D01*
X330708Y542544D01*
X330708Y495300D02*
X330200Y495300D01*
X330708Y542544D02*
X330200Y543560D01*
X304800Y509016D02*
X304800Y495300D01*
X304800Y509016D02*
X315468Y519684D01*
X315468Y531876D01*
X304800Y542544D01*
X304800Y543560D01*
X280416Y509016D02*
X280416Y495300D01*
X280416Y509016D02*
X289560Y518160D01*
X289560Y533400D01*
X279400Y543560D01*
X279400Y495300D02*
X280416Y495300D01*
X254508Y495300D02*
X254508Y509016D01*
X265176Y519684D01*
X265176Y531876D01*
X254508Y542544D01*
X254508Y495300D02*
X254000Y495300D01*
X254508Y542544D02*
X254000Y543560D01*
X228600Y509016D02*
X228600Y495300D01*
X228600Y509016D02*
X239268Y519684D01*
X239268Y531876D01*
X228600Y542544D01*
X228600Y543560D01*
X76200Y509016D02*
X76200Y495300D01*
X76200Y509016D02*
X86868Y519684D01*
X86868Y531876D01*
X76200Y542544D01*
X76200Y543560D01*
X102108Y509016D02*
X102108Y495300D01*
X102108Y509016D02*
X112776Y519684D01*
X112776Y531876D01*
X102108Y542544D01*
X102108Y495300D02*
X101600Y495300D01*
X102108Y542544D02*
X101600Y543560D01*
X128016Y509016D02*
X128016Y495300D01*
X128016Y509016D02*
X137160Y518160D01*
X137160Y533400D01*
X127000Y543560D01*
X127000Y495300D02*
X128016Y495300D01*
X152400Y495300D02*
X152400Y509016D01*
X163068Y519684D01*
X163068Y531876D01*
X152400Y542544D01*
X152400Y543560D01*
X178308Y509016D02*
X178308Y495300D01*
X178308Y509016D02*
X188976Y519684D01*
X188976Y531876D01*
X178308Y542544D01*
X178308Y495300D02*
X177800Y495300D01*
X178308Y542544D02*
X177800Y543560D01*
X204216Y509016D02*
X204216Y495300D01*
X204216Y509016D02*
X213360Y518160D01*
X213360Y533400D01*
X203200Y543560D01*
X203200Y495300D02*
X204216Y495300D01*
X405384Y481584D02*
X405384Y466344D01*
X405384Y481584D02*
X396240Y490728D01*
X396240Y513588D01*
X405384Y522732D01*
X405384Y466344D02*
X406400Y466090D01*
X405384Y522732D02*
X406400Y523240D01*
X406908Y509016D02*
X406908Y495300D01*
X406908Y509016D02*
X417576Y519684D01*
X417576Y531876D01*
X406908Y542544D01*
X406908Y495300D02*
X406400Y495300D01*
X406908Y542544D02*
X406400Y543560D01*
X432816Y509016D02*
X432816Y495300D01*
X432816Y509016D02*
X441960Y518160D01*
X441960Y533400D01*
X431800Y543560D01*
X431800Y495300D02*
X432816Y495300D01*
X431292Y481584D02*
X431292Y466344D01*
X431292Y481584D02*
X422148Y490728D01*
X422148Y513588D01*
X431800Y523240D01*
X431292Y466344D02*
X431800Y466090D01*
X457200Y466090D02*
X457200Y481584D01*
X446532Y492252D01*
X446532Y512064D01*
X457200Y522732D01*
X457200Y523240D01*
X457200Y509016D02*
X457200Y495300D01*
X457200Y509016D02*
X467868Y519684D01*
X467868Y531876D01*
X457200Y542544D01*
X457200Y543560D01*
X483108Y509016D02*
X483108Y495300D01*
X483108Y509016D02*
X493776Y519684D01*
X493776Y531876D01*
X483108Y542544D01*
X483108Y495300D02*
X482600Y495300D01*
X483108Y542544D02*
X482600Y543560D01*
X481584Y481584D02*
X481584Y466344D01*
X481584Y481584D02*
X472440Y490728D01*
X472440Y513588D01*
X481584Y522732D01*
X481584Y466344D02*
X482600Y466090D01*
X481584Y522732D02*
X482600Y523240D01*
X507492Y481584D02*
X507492Y466344D01*
X507492Y481584D02*
X498348Y490728D01*
X498348Y513588D01*
X508000Y523240D01*
X507492Y466344D02*
X508000Y466090D01*
X533400Y466090D02*
X533400Y481584D01*
X522732Y492252D01*
X522732Y512064D01*
X533400Y522732D01*
X533400Y523240D01*
X557784Y481584D02*
X557784Y466344D01*
X557784Y481584D02*
X548640Y490728D01*
X548640Y513588D01*
X557784Y522732D01*
X557784Y466344D02*
X558800Y466090D01*
X557784Y522732D02*
X558800Y523240D01*
X583692Y481584D02*
X583692Y466344D01*
X583692Y481584D02*
X574548Y490728D01*
X574548Y513588D01*
X584200Y523240D01*
X583692Y466344D02*
X584200Y466090D01*
X609600Y466090D02*
X609600Y481584D01*
X620268Y492252D01*
X620268Y512064D01*
X609600Y522732D01*
X609600Y523240D01*
X609600Y509016D02*
X609600Y495300D01*
X609600Y509016D02*
X598932Y519684D01*
X598932Y531876D01*
X609600Y542544D01*
X609600Y543560D01*
X585216Y509016D02*
X585216Y495300D01*
X585216Y509016D02*
X594360Y518160D01*
X594360Y533400D01*
X584200Y543560D01*
X584200Y495300D02*
X585216Y495300D01*
X559308Y495300D02*
X559308Y509016D01*
X569976Y519684D01*
X569976Y531876D01*
X559308Y542544D01*
X559308Y495300D02*
X558800Y495300D01*
X559308Y542544D02*
X558800Y543560D01*
X533400Y509016D02*
X533400Y495300D01*
X533400Y509016D02*
X544068Y519684D01*
X544068Y531876D01*
X533400Y542544D01*
X533400Y543560D01*
X509016Y509016D02*
X509016Y495300D01*
X509016Y509016D02*
X518160Y518160D01*
X518160Y533400D01*
X508000Y543560D01*
X508000Y495300D02*
X509016Y495300D01*
X559308Y85344D02*
X559308Y74676D01*
X569976Y64008D01*
X569976Y51816D01*
X558800Y40640D01*
X559308Y85344D02*
X558800Y86360D01*
X228600Y86360D02*
X228600Y76200D01*
X239268Y65532D01*
X239268Y51816D01*
X228600Y41148D01*
X228600Y40640D01*
X76200Y60960D02*
X76200Y86360D01*
X76200Y118110D01*
X109728Y152400D02*
X132588Y152400D01*
X109728Y152400D02*
X76200Y118872D01*
X132588Y152400D02*
X133350Y153670D01*
X76200Y118872D02*
X76200Y118110D01*
X76200Y60960D02*
X76200Y40640D01*
X402336Y166116D02*
X435864Y166116D01*
X402336Y166116D02*
X401320Y166370D01*
X435864Y166116D02*
X436880Y166370D01*
X437388Y166116D02*
X472440Y166116D01*
X472440Y165100D01*
X437388Y166116D02*
X436880Y166370D01*
X275844Y179832D02*
X275844Y192024D01*
X275844Y179832D02*
X275844Y155448D01*
X275844Y192024D02*
X274320Y193548D01*
X275844Y155448D02*
X276860Y154940D01*
X274320Y193548D02*
X274320Y194310D01*
X275844Y179832D02*
X228600Y179832D01*
X227330Y180340D01*
X147828Y153924D02*
X134112Y153924D01*
X147828Y153924D02*
X166116Y172212D01*
X166116Y192024D01*
X172212Y198120D01*
X210312Y198120D01*
X227076Y181356D01*
X134112Y153924D02*
X133350Y153670D01*
X227330Y180340D02*
X227076Y181356D01*
X57912Y169164D02*
X57912Y153924D01*
X57912Y169164D02*
X114300Y225552D01*
X57912Y153924D02*
X57150Y153670D01*
X114300Y225552D02*
X114300Y226060D01*
X195072Y344424D02*
X220980Y344424D01*
X195072Y344424D02*
X194310Y344170D01*
X220980Y344424D02*
X222250Y345440D01*
X219456Y431292D02*
X193548Y431292D01*
X193040Y430530D01*
X219456Y431292D02*
X219710Y430530D01*
X220980Y388620D02*
X195580Y388620D01*
M02*
