G04 EAGLE Gerber RS-274X export*
G75*
%MOMM*%
%FSLAX34Y34*%
%LPD*%
%INBottom Copper*%
%IPPOS*%
%AMOC8*
5,1,8,0,0,1.08239X$1,22.5*%
G01*
%ADD10P,1.649562X8X22.500000*%
%ADD11P,1.539592X8X202.500000*%
%ADD12C,1.422400*%
%ADD13C,1.524000*%
%ADD14P,1.539592X8X22.500000*%
%ADD15C,0.152400*%

G36*
X706648Y10164D02*
X706648Y10164D01*
X706667Y10162D01*
X706769Y10184D01*
X706871Y10200D01*
X706888Y10210D01*
X706908Y10214D01*
X706997Y10267D01*
X707088Y10316D01*
X707102Y10330D01*
X707119Y10340D01*
X707186Y10419D01*
X707258Y10494D01*
X707266Y10512D01*
X707279Y10527D01*
X707318Y10623D01*
X707361Y10717D01*
X707363Y10737D01*
X707371Y10755D01*
X707389Y10922D01*
X707389Y573278D01*
X707386Y573298D01*
X707388Y573317D01*
X707366Y573419D01*
X707350Y573521D01*
X707340Y573538D01*
X707336Y573558D01*
X707283Y573647D01*
X707234Y573738D01*
X707220Y573752D01*
X707210Y573769D01*
X707131Y573836D01*
X707056Y573908D01*
X707038Y573916D01*
X707023Y573929D01*
X706927Y573968D01*
X706833Y574011D01*
X706813Y574013D01*
X706795Y574021D01*
X706628Y574039D01*
X10922Y574039D01*
X10902Y574036D01*
X10883Y574038D01*
X10781Y574016D01*
X10679Y574000D01*
X10662Y573990D01*
X10642Y573986D01*
X10553Y573933D01*
X10462Y573884D01*
X10448Y573870D01*
X10431Y573860D01*
X10364Y573781D01*
X10292Y573706D01*
X10284Y573688D01*
X10271Y573673D01*
X10232Y573577D01*
X10189Y573483D01*
X10187Y573463D01*
X10179Y573445D01*
X10161Y573278D01*
X10161Y10922D01*
X10164Y10902D01*
X10162Y10883D01*
X10184Y10781D01*
X10200Y10679D01*
X10210Y10662D01*
X10214Y10642D01*
X10267Y10553D01*
X10316Y10462D01*
X10330Y10448D01*
X10340Y10431D01*
X10419Y10364D01*
X10494Y10292D01*
X10512Y10284D01*
X10527Y10271D01*
X10623Y10232D01*
X10717Y10189D01*
X10737Y10187D01*
X10755Y10179D01*
X10922Y10161D01*
X706628Y10161D01*
X706648Y10164D01*
G37*
%LPC*%
G36*
X429431Y106199D02*
X429431Y106199D01*
X425053Y108013D01*
X421703Y111363D01*
X419889Y115741D01*
X419889Y120479D01*
X421703Y124857D01*
X425053Y128207D01*
X429431Y130021D01*
X434169Y130021D01*
X438547Y128207D01*
X438956Y127798D01*
X438972Y127787D01*
X438985Y127771D01*
X439072Y127715D01*
X439156Y127655D01*
X439175Y127649D01*
X439191Y127638D01*
X439292Y127613D01*
X439391Y127582D01*
X439411Y127583D01*
X439430Y127578D01*
X439533Y127586D01*
X439637Y127589D01*
X439655Y127596D01*
X439675Y127597D01*
X439770Y127638D01*
X439868Y127673D01*
X439883Y127686D01*
X439902Y127694D01*
X440032Y127798D01*
X463834Y151600D01*
X465397Y153163D01*
X538734Y153163D01*
X538754Y153166D01*
X538773Y153164D01*
X538875Y153186D01*
X538977Y153202D01*
X538994Y153212D01*
X539014Y153216D01*
X539103Y153269D01*
X539194Y153318D01*
X539208Y153332D01*
X539225Y153342D01*
X539292Y153421D01*
X539364Y153496D01*
X539372Y153514D01*
X539385Y153529D01*
X539424Y153625D01*
X539467Y153719D01*
X539469Y153739D01*
X539477Y153757D01*
X539495Y153924D01*
X539495Y166919D01*
X540887Y170280D01*
X541288Y170681D01*
X541300Y170697D01*
X541316Y170710D01*
X541372Y170797D01*
X541432Y170881D01*
X541438Y170900D01*
X541449Y170917D01*
X541474Y171017D01*
X541504Y171116D01*
X541504Y171136D01*
X541509Y171155D01*
X541501Y171258D01*
X541498Y171362D01*
X541491Y171381D01*
X541490Y171400D01*
X541449Y171495D01*
X541414Y171593D01*
X541401Y171608D01*
X541393Y171627D01*
X541288Y171758D01*
X540257Y172789D01*
X540257Y179255D01*
X541796Y180794D01*
X541808Y180811D01*
X541824Y180823D01*
X541880Y180910D01*
X541940Y180994D01*
X541946Y181013D01*
X541957Y181030D01*
X541982Y181130D01*
X542012Y181229D01*
X542012Y181249D01*
X542017Y181268D01*
X542009Y181371D01*
X542006Y181475D01*
X541999Y181494D01*
X541998Y181514D01*
X541957Y181608D01*
X541922Y181706D01*
X541909Y181722D01*
X541901Y181740D01*
X541796Y181871D01*
X540887Y182780D01*
X539495Y186141D01*
X539495Y205019D01*
X540887Y208380D01*
X543460Y210953D01*
X544508Y211387D01*
X544569Y211424D01*
X544635Y211454D01*
X544673Y211489D01*
X544717Y211516D01*
X544763Y211572D01*
X544816Y211620D01*
X544841Y211666D01*
X544874Y211706D01*
X544900Y211773D01*
X544934Y211836D01*
X544944Y211887D01*
X544962Y211935D01*
X544965Y212007D01*
X544978Y212078D01*
X544970Y212129D01*
X544973Y212181D01*
X544953Y212250D01*
X544942Y212321D01*
X544919Y212367D01*
X544904Y212417D01*
X544863Y212476D01*
X544831Y212540D01*
X544793Y212577D01*
X544764Y212619D01*
X544706Y212662D01*
X544655Y212712D01*
X544592Y212747D01*
X544566Y212766D01*
X544544Y212773D01*
X544508Y212793D01*
X543460Y213227D01*
X540887Y215800D01*
X539495Y219161D01*
X539495Y238039D01*
X540887Y241400D01*
X541542Y242055D01*
X541554Y242071D01*
X541570Y242084D01*
X541626Y242171D01*
X541686Y242255D01*
X541692Y242274D01*
X541703Y242291D01*
X541728Y242391D01*
X541758Y242490D01*
X541758Y242510D01*
X541763Y242529D01*
X541755Y242632D01*
X541752Y242736D01*
X541745Y242755D01*
X541744Y242774D01*
X541703Y242869D01*
X541668Y242967D01*
X541655Y242982D01*
X541647Y243001D01*
X541542Y243132D01*
X540257Y244417D01*
X540257Y250883D01*
X541542Y252168D01*
X541554Y252185D01*
X541570Y252197D01*
X541626Y252284D01*
X541686Y252368D01*
X541692Y252387D01*
X541703Y252404D01*
X541728Y252504D01*
X541758Y252603D01*
X541758Y252623D01*
X541763Y252642D01*
X541755Y252745D01*
X541752Y252849D01*
X541745Y252868D01*
X541744Y252888D01*
X541703Y252982D01*
X541668Y253080D01*
X541655Y253096D01*
X541647Y253114D01*
X541542Y253245D01*
X540887Y253900D01*
X539495Y257261D01*
X539495Y276139D01*
X540887Y279500D01*
X543460Y282073D01*
X546821Y283465D01*
X550459Y283465D01*
X553820Y282073D01*
X556393Y279500D01*
X557785Y276139D01*
X557785Y257261D01*
X556393Y253900D01*
X553820Y251327D01*
X550459Y249935D01*
X546821Y249935D01*
X546553Y250046D01*
X546439Y250073D01*
X546326Y250102D01*
X546319Y250101D01*
X546313Y250103D01*
X546197Y250092D01*
X546081Y250082D01*
X546075Y250080D01*
X546068Y250079D01*
X545961Y250032D01*
X545854Y249986D01*
X545848Y249981D01*
X545844Y249979D01*
X545830Y249967D01*
X545723Y249881D01*
X545054Y249212D01*
X545000Y249138D01*
X544941Y249068D01*
X544929Y249038D01*
X544910Y249012D01*
X544883Y248925D01*
X544849Y248840D01*
X544845Y248799D01*
X544838Y248777D01*
X544839Y248745D01*
X544831Y248673D01*
X544831Y246627D01*
X544845Y246537D01*
X544853Y246446D01*
X544865Y246416D01*
X544870Y246384D01*
X544913Y246303D01*
X544949Y246219D01*
X544975Y246187D01*
X544986Y246166D01*
X545009Y246144D01*
X545054Y246088D01*
X545723Y245419D01*
X545819Y245350D01*
X545912Y245281D01*
X545918Y245279D01*
X545923Y245275D01*
X546035Y245241D01*
X546146Y245205D01*
X546152Y245205D01*
X546158Y245203D01*
X546275Y245206D01*
X546392Y245207D01*
X546399Y245209D01*
X546404Y245209D01*
X546421Y245216D01*
X546553Y245254D01*
X546821Y245365D01*
X550459Y245365D01*
X553820Y243973D01*
X556393Y241400D01*
X557785Y238039D01*
X557785Y219161D01*
X556393Y215800D01*
X553820Y213227D01*
X552772Y212793D01*
X552711Y212756D01*
X552645Y212726D01*
X552607Y212691D01*
X552563Y212664D01*
X552517Y212609D01*
X552464Y212560D01*
X552439Y212514D01*
X552406Y212474D01*
X552380Y212407D01*
X552346Y212344D01*
X552336Y212293D01*
X552318Y212245D01*
X552315Y212173D01*
X552302Y212102D01*
X552310Y212051D01*
X552307Y211999D01*
X552327Y211930D01*
X552338Y211859D01*
X552361Y211813D01*
X552376Y211763D01*
X552417Y211704D01*
X552449Y211640D01*
X552487Y211603D01*
X552516Y211561D01*
X552574Y211518D01*
X552625Y211468D01*
X552688Y211433D01*
X552714Y211414D01*
X552736Y211407D01*
X552772Y211387D01*
X553820Y210953D01*
X556393Y208380D01*
X557785Y205019D01*
X557785Y186141D01*
X556393Y182780D01*
X553820Y180207D01*
X550459Y178815D01*
X546755Y178815D01*
X546685Y178833D01*
X546679Y178832D01*
X546673Y178834D01*
X546556Y178823D01*
X546440Y178814D01*
X546434Y178811D01*
X546428Y178811D01*
X546320Y178763D01*
X546213Y178717D01*
X546208Y178713D01*
X546203Y178711D01*
X546189Y178698D01*
X546082Y178613D01*
X545054Y177584D01*
X545001Y177510D01*
X544941Y177440D01*
X544929Y177410D01*
X544910Y177384D01*
X544883Y177297D01*
X544849Y177212D01*
X544845Y177171D01*
X544838Y177149D01*
X544839Y177117D01*
X544831Y177045D01*
X544831Y174999D01*
X544845Y174908D01*
X544853Y174818D01*
X544865Y174788D01*
X544870Y174756D01*
X544913Y174675D01*
X544949Y174591D01*
X544975Y174559D01*
X544986Y174538D01*
X545009Y174516D01*
X545054Y174460D01*
X545364Y174150D01*
X545458Y174082D01*
X545553Y174012D01*
X545559Y174010D01*
X545564Y174006D01*
X545675Y173972D01*
X545787Y173936D01*
X545793Y173936D01*
X545799Y173934D01*
X545916Y173937D01*
X546033Y173938D01*
X546040Y173940D01*
X546045Y173940D01*
X546062Y173947D01*
X546194Y173985D01*
X546821Y174245D01*
X550459Y174245D01*
X553820Y172853D01*
X556393Y170280D01*
X557785Y166919D01*
X557785Y148041D01*
X556393Y144680D01*
X553820Y142107D01*
X550459Y140715D01*
X546821Y140715D01*
X543460Y142107D01*
X540887Y144680D01*
X539463Y148119D01*
X539401Y148219D01*
X539341Y148319D01*
X539337Y148323D01*
X539333Y148328D01*
X539244Y148403D01*
X539154Y148479D01*
X539149Y148481D01*
X539144Y148485D01*
X539036Y148527D01*
X538926Y148571D01*
X538919Y148572D01*
X538914Y148573D01*
X538896Y148574D01*
X538760Y148589D01*
X467607Y148589D01*
X467516Y148575D01*
X467426Y148567D01*
X467396Y148555D01*
X467364Y148550D01*
X467283Y148507D01*
X467199Y148471D01*
X467167Y148445D01*
X467146Y148434D01*
X467124Y148411D01*
X467068Y148366D01*
X442744Y124042D01*
X442676Y123948D01*
X442606Y123853D01*
X442604Y123847D01*
X442600Y123842D01*
X442566Y123731D01*
X442530Y123619D01*
X442530Y123613D01*
X442528Y123607D01*
X442531Y123490D01*
X442532Y123373D01*
X442534Y123366D01*
X442534Y123361D01*
X442541Y123344D01*
X442579Y123212D01*
X443711Y120479D01*
X443711Y115741D01*
X441897Y111363D01*
X438547Y108013D01*
X434169Y106199D01*
X429431Y106199D01*
G37*
%LPD*%
%LPC*%
G36*
X391881Y157225D02*
X391881Y157225D01*
X388520Y158617D01*
X385947Y161190D01*
X384555Y164551D01*
X384555Y164592D01*
X384552Y164612D01*
X384554Y164631D01*
X384532Y164733D01*
X384516Y164835D01*
X384506Y164852D01*
X384502Y164872D01*
X384449Y164961D01*
X384400Y165052D01*
X384386Y165066D01*
X384376Y165083D01*
X384297Y165150D01*
X384222Y165222D01*
X384204Y165230D01*
X384189Y165243D01*
X384093Y165282D01*
X383999Y165325D01*
X383979Y165327D01*
X383961Y165335D01*
X383794Y165353D01*
X383101Y165353D01*
X380276Y168178D01*
X380202Y168231D01*
X380132Y168291D01*
X380102Y168303D01*
X380076Y168322D01*
X379989Y168349D01*
X379904Y168383D01*
X379863Y168387D01*
X379841Y168394D01*
X379809Y168393D01*
X379737Y168401D01*
X305885Y168401D01*
X304322Y169964D01*
X255218Y219068D01*
X255202Y219079D01*
X255190Y219095D01*
X255102Y219151D01*
X255019Y219211D01*
X255000Y219217D01*
X254983Y219228D01*
X254882Y219253D01*
X254784Y219284D01*
X254764Y219283D01*
X254744Y219288D01*
X254641Y219280D01*
X254538Y219277D01*
X254519Y219270D01*
X254499Y219269D01*
X254404Y219228D01*
X254307Y219193D01*
X254291Y219180D01*
X254273Y219172D01*
X254142Y219068D01*
X253767Y218693D01*
X246613Y218693D01*
X241553Y223753D01*
X241553Y230907D01*
X246613Y235967D01*
X253767Y235967D01*
X258827Y230907D01*
X258827Y223753D01*
X258452Y223378D01*
X258441Y223362D01*
X258425Y223350D01*
X258369Y223262D01*
X258309Y223178D01*
X258303Y223159D01*
X258292Y223143D01*
X258267Y223042D01*
X258236Y222943D01*
X258237Y222923D01*
X258232Y222904D01*
X258240Y222801D01*
X258243Y222697D01*
X258250Y222679D01*
X258251Y222659D01*
X258292Y222564D01*
X258327Y222466D01*
X258340Y222451D01*
X258348Y222433D01*
X258452Y222302D01*
X307556Y173198D01*
X307630Y173145D01*
X307700Y173085D01*
X307730Y173073D01*
X307756Y173054D01*
X307843Y173027D01*
X307928Y172993D01*
X307969Y172989D01*
X307991Y172982D01*
X308023Y172983D01*
X308094Y172975D01*
X381947Y172975D01*
X383510Y171412D01*
X384387Y170534D01*
X384425Y170508D01*
X384456Y170474D01*
X384524Y170436D01*
X384587Y170391D01*
X384631Y170377D01*
X384671Y170355D01*
X384748Y170341D01*
X384822Y170319D01*
X384868Y170320D01*
X384913Y170312D01*
X384990Y170323D01*
X385068Y170325D01*
X385111Y170341D01*
X385157Y170347D01*
X385226Y170383D01*
X385299Y170409D01*
X385335Y170438D01*
X385376Y170459D01*
X385430Y170514D01*
X385491Y170563D01*
X385516Y170602D01*
X385548Y170634D01*
X385614Y170754D01*
X385624Y170770D01*
X385625Y170775D01*
X385629Y170781D01*
X385947Y171550D01*
X388520Y174123D01*
X391881Y175515D01*
X410759Y175515D01*
X414120Y174123D01*
X416693Y171550D01*
X417127Y170502D01*
X417164Y170441D01*
X417194Y170375D01*
X417229Y170337D01*
X417256Y170293D01*
X417312Y170247D01*
X417360Y170194D01*
X417406Y170169D01*
X417446Y170136D01*
X417513Y170110D01*
X417576Y170076D01*
X417627Y170066D01*
X417675Y170048D01*
X417747Y170045D01*
X417818Y170032D01*
X417869Y170040D01*
X417921Y170037D01*
X417990Y170057D01*
X418061Y170068D01*
X418107Y170091D01*
X418157Y170106D01*
X418216Y170147D01*
X418280Y170179D01*
X418317Y170217D01*
X418359Y170246D01*
X418402Y170304D01*
X418452Y170355D01*
X418487Y170418D01*
X418506Y170444D01*
X418513Y170466D01*
X418533Y170502D01*
X418967Y171550D01*
X421540Y174123D01*
X424901Y175515D01*
X443779Y175515D01*
X447140Y174123D01*
X449713Y171550D01*
X450147Y170502D01*
X450184Y170441D01*
X450214Y170375D01*
X450249Y170337D01*
X450276Y170293D01*
X450331Y170247D01*
X450380Y170194D01*
X450426Y170169D01*
X450466Y170136D01*
X450533Y170110D01*
X450596Y170076D01*
X450647Y170066D01*
X450695Y170048D01*
X450767Y170045D01*
X450838Y170032D01*
X450889Y170040D01*
X450941Y170037D01*
X451010Y170057D01*
X451081Y170068D01*
X451127Y170091D01*
X451177Y170106D01*
X451236Y170147D01*
X451300Y170179D01*
X451337Y170217D01*
X451379Y170246D01*
X451422Y170304D01*
X451472Y170355D01*
X451507Y170418D01*
X451526Y170444D01*
X451533Y170466D01*
X451553Y170502D01*
X451987Y171550D01*
X454560Y174123D01*
X457921Y175515D01*
X476799Y175515D01*
X480160Y174123D01*
X482733Y171550D01*
X484125Y168189D01*
X484125Y164551D01*
X482733Y161190D01*
X480160Y158617D01*
X476799Y157225D01*
X457921Y157225D01*
X454560Y158617D01*
X451987Y161190D01*
X451553Y162238D01*
X451516Y162299D01*
X451486Y162365D01*
X451451Y162403D01*
X451424Y162447D01*
X451368Y162493D01*
X451320Y162546D01*
X451274Y162571D01*
X451234Y162604D01*
X451167Y162630D01*
X451104Y162664D01*
X451053Y162674D01*
X451005Y162692D01*
X450933Y162695D01*
X450862Y162708D01*
X450811Y162700D01*
X450759Y162703D01*
X450690Y162683D01*
X450619Y162672D01*
X450573Y162649D01*
X450523Y162634D01*
X450464Y162593D01*
X450400Y162561D01*
X450363Y162523D01*
X450321Y162494D01*
X450278Y162436D01*
X450228Y162385D01*
X450193Y162322D01*
X450174Y162296D01*
X450167Y162274D01*
X450147Y162238D01*
X449713Y161190D01*
X447140Y158617D01*
X443779Y157225D01*
X424901Y157225D01*
X421540Y158617D01*
X418967Y161190D01*
X418533Y162238D01*
X418496Y162299D01*
X418466Y162365D01*
X418431Y162403D01*
X418404Y162447D01*
X418349Y162493D01*
X418300Y162546D01*
X418254Y162571D01*
X418214Y162604D01*
X418147Y162630D01*
X418084Y162664D01*
X418033Y162674D01*
X417985Y162692D01*
X417913Y162695D01*
X417842Y162708D01*
X417791Y162700D01*
X417739Y162703D01*
X417670Y162683D01*
X417599Y162672D01*
X417553Y162649D01*
X417503Y162634D01*
X417444Y162593D01*
X417380Y162561D01*
X417343Y162523D01*
X417301Y162494D01*
X417258Y162436D01*
X417208Y162385D01*
X417173Y162322D01*
X417154Y162296D01*
X417147Y162274D01*
X417127Y162238D01*
X416693Y161190D01*
X414120Y158617D01*
X410759Y157225D01*
X391881Y157225D01*
G37*
%LPD*%
%LPC*%
G36*
X572221Y140715D02*
X572221Y140715D01*
X568860Y142107D01*
X566287Y144680D01*
X564895Y148041D01*
X564895Y166919D01*
X565453Y168265D01*
X565479Y168378D01*
X565508Y168492D01*
X565507Y168498D01*
X565509Y168504D01*
X565498Y168621D01*
X565489Y168737D01*
X565486Y168743D01*
X565486Y168749D01*
X565438Y168856D01*
X565393Y168963D01*
X565388Y168969D01*
X565386Y168974D01*
X565373Y168987D01*
X565288Y169094D01*
X563156Y171226D01*
X561593Y172789D01*
X561593Y176207D01*
X566688Y181302D01*
X566700Y181319D01*
X566716Y181331D01*
X566772Y181418D01*
X566832Y181502D01*
X566838Y181521D01*
X566849Y181538D01*
X566874Y181638D01*
X566904Y181737D01*
X566904Y181757D01*
X566909Y181776D01*
X566901Y181879D01*
X566898Y181983D01*
X566891Y182002D01*
X566890Y182022D01*
X566849Y182116D01*
X566814Y182214D01*
X566801Y182230D01*
X566793Y182248D01*
X566688Y182379D01*
X566287Y182780D01*
X564895Y186141D01*
X564895Y205019D01*
X566287Y208380D01*
X568860Y210953D01*
X569908Y211387D01*
X569969Y211424D01*
X570035Y211454D01*
X570073Y211489D01*
X570117Y211516D01*
X570163Y211572D01*
X570216Y211620D01*
X570241Y211666D01*
X570274Y211706D01*
X570300Y211773D01*
X570334Y211836D01*
X570344Y211887D01*
X570362Y211935D01*
X570365Y212007D01*
X570378Y212078D01*
X570370Y212129D01*
X570373Y212181D01*
X570353Y212250D01*
X570342Y212321D01*
X570319Y212367D01*
X570304Y212417D01*
X570263Y212476D01*
X570231Y212540D01*
X570193Y212577D01*
X570164Y212619D01*
X570106Y212662D01*
X570055Y212712D01*
X569992Y212747D01*
X569966Y212766D01*
X569944Y212773D01*
X569908Y212793D01*
X568860Y213227D01*
X566287Y215800D01*
X564895Y219161D01*
X564895Y238039D01*
X566287Y241400D01*
X568860Y243973D01*
X572221Y245365D01*
X575859Y245365D01*
X579220Y243973D01*
X581793Y241400D01*
X583185Y238039D01*
X583185Y219161D01*
X581793Y215800D01*
X579220Y213227D01*
X578172Y212793D01*
X578111Y212756D01*
X578045Y212726D01*
X578007Y212691D01*
X577963Y212664D01*
X577917Y212609D01*
X577864Y212560D01*
X577839Y212514D01*
X577806Y212474D01*
X577780Y212407D01*
X577746Y212344D01*
X577736Y212293D01*
X577718Y212245D01*
X577715Y212173D01*
X577702Y212102D01*
X577710Y212051D01*
X577707Y211999D01*
X577727Y211930D01*
X577738Y211859D01*
X577761Y211813D01*
X577776Y211763D01*
X577817Y211704D01*
X577849Y211640D01*
X577887Y211603D01*
X577916Y211561D01*
X577974Y211518D01*
X578025Y211468D01*
X578088Y211433D01*
X578114Y211414D01*
X578136Y211407D01*
X578172Y211387D01*
X579220Y210953D01*
X581793Y208380D01*
X583185Y205019D01*
X583185Y186141D01*
X581793Y182780D01*
X579220Y180207D01*
X575859Y178815D01*
X572221Y178815D01*
X571594Y179075D01*
X571480Y179102D01*
X571367Y179130D01*
X571360Y179130D01*
X571354Y179131D01*
X571238Y179120D01*
X571121Y179111D01*
X571116Y179109D01*
X571109Y179108D01*
X571002Y179060D01*
X570895Y179015D01*
X570889Y179010D01*
X570885Y179008D01*
X570871Y178996D01*
X570764Y178910D01*
X566890Y175036D01*
X566879Y175020D01*
X566863Y175008D01*
X566807Y174920D01*
X566747Y174837D01*
X566741Y174818D01*
X566730Y174801D01*
X566705Y174700D01*
X566674Y174601D01*
X566675Y174582D01*
X566670Y174562D01*
X566678Y174459D01*
X566681Y174356D01*
X566688Y174337D01*
X566689Y174317D01*
X566729Y174222D01*
X566765Y174125D01*
X566778Y174109D01*
X566785Y174091D01*
X566890Y173960D01*
X567890Y172960D01*
X567906Y172949D01*
X567917Y172934D01*
X568001Y172880D01*
X568079Y172822D01*
X568085Y172820D01*
X568090Y172816D01*
X568108Y172810D01*
X568124Y172800D01*
X568220Y172776D01*
X568313Y172745D01*
X568319Y172746D01*
X568325Y172744D01*
X568344Y172744D01*
X568362Y172739D01*
X568461Y172747D01*
X568559Y172748D01*
X568566Y172750D01*
X568571Y172750D01*
X568589Y172757D01*
X568608Y172758D01*
X568638Y172771D01*
X568720Y172795D01*
X572221Y174245D01*
X575859Y174245D01*
X579220Y172853D01*
X581793Y170280D01*
X583185Y166919D01*
X583185Y148041D01*
X581793Y144680D01*
X579220Y142107D01*
X575859Y140715D01*
X572221Y140715D01*
G37*
%LPD*%
%LPC*%
G36*
X391881Y182625D02*
X391881Y182625D01*
X388520Y184017D01*
X385947Y186590D01*
X384555Y189951D01*
X384555Y193589D01*
X385947Y196950D01*
X388520Y199523D01*
X391881Y200915D01*
X410759Y200915D01*
X414120Y199523D01*
X416693Y196950D01*
X417127Y195902D01*
X417164Y195841D01*
X417194Y195775D01*
X417229Y195737D01*
X417256Y195693D01*
X417312Y195647D01*
X417360Y195594D01*
X417406Y195569D01*
X417446Y195536D01*
X417513Y195510D01*
X417576Y195476D01*
X417627Y195466D01*
X417675Y195448D01*
X417747Y195445D01*
X417818Y195432D01*
X417869Y195440D01*
X417921Y195437D01*
X417990Y195457D01*
X418061Y195468D01*
X418107Y195491D01*
X418157Y195506D01*
X418216Y195547D01*
X418280Y195579D01*
X418317Y195617D01*
X418359Y195646D01*
X418402Y195704D01*
X418452Y195755D01*
X418487Y195818D01*
X418506Y195844D01*
X418513Y195866D01*
X418533Y195902D01*
X418967Y196950D01*
X421540Y199523D01*
X424901Y200915D01*
X443779Y200915D01*
X447140Y199523D01*
X449713Y196950D01*
X450147Y195902D01*
X450184Y195841D01*
X450214Y195775D01*
X450249Y195737D01*
X450276Y195693D01*
X450331Y195647D01*
X450380Y195594D01*
X450426Y195569D01*
X450466Y195536D01*
X450533Y195510D01*
X450596Y195476D01*
X450647Y195466D01*
X450695Y195448D01*
X450767Y195445D01*
X450838Y195432D01*
X450889Y195440D01*
X450941Y195437D01*
X451010Y195457D01*
X451081Y195468D01*
X451127Y195491D01*
X451177Y195506D01*
X451236Y195547D01*
X451300Y195579D01*
X451337Y195617D01*
X451379Y195646D01*
X451422Y195704D01*
X451472Y195755D01*
X451507Y195818D01*
X451526Y195844D01*
X451533Y195866D01*
X451553Y195902D01*
X451987Y196950D01*
X454560Y199523D01*
X457921Y200915D01*
X476799Y200915D01*
X480160Y199523D01*
X482733Y196950D01*
X484125Y193589D01*
X484125Y189951D01*
X482733Y186590D01*
X480160Y184017D01*
X476799Y182625D01*
X457921Y182625D01*
X454560Y184017D01*
X451987Y186590D01*
X451553Y187638D01*
X451516Y187699D01*
X451486Y187765D01*
X451451Y187803D01*
X451424Y187847D01*
X451368Y187893D01*
X451320Y187946D01*
X451274Y187971D01*
X451234Y188004D01*
X451167Y188030D01*
X451104Y188064D01*
X451053Y188074D01*
X451005Y188092D01*
X450933Y188095D01*
X450862Y188108D01*
X450811Y188100D01*
X450759Y188103D01*
X450690Y188083D01*
X450619Y188072D01*
X450573Y188049D01*
X450523Y188034D01*
X450464Y187993D01*
X450400Y187961D01*
X450363Y187923D01*
X450321Y187894D01*
X450278Y187836D01*
X450228Y187785D01*
X450193Y187722D01*
X450174Y187696D01*
X450167Y187674D01*
X450147Y187638D01*
X449713Y186590D01*
X447140Y184017D01*
X443779Y182625D01*
X424901Y182625D01*
X421540Y184017D01*
X418967Y186590D01*
X418533Y187638D01*
X418496Y187699D01*
X418466Y187765D01*
X418431Y187803D01*
X418404Y187847D01*
X418349Y187893D01*
X418300Y187946D01*
X418254Y187971D01*
X418214Y188004D01*
X418147Y188030D01*
X418084Y188064D01*
X418033Y188074D01*
X417985Y188092D01*
X417913Y188095D01*
X417842Y188108D01*
X417791Y188100D01*
X417739Y188103D01*
X417670Y188083D01*
X417599Y188072D01*
X417553Y188049D01*
X417503Y188034D01*
X417444Y187993D01*
X417380Y187961D01*
X417343Y187923D01*
X417301Y187894D01*
X417258Y187836D01*
X417208Y187785D01*
X417173Y187722D01*
X417154Y187696D01*
X417147Y187674D01*
X417127Y187638D01*
X416693Y186590D01*
X414120Y184017D01*
X410759Y182625D01*
X391881Y182625D01*
G37*
%LPD*%
%LPC*%
G36*
X391881Y208025D02*
X391881Y208025D01*
X388520Y209417D01*
X385947Y211990D01*
X384555Y215351D01*
X384555Y218989D01*
X385947Y222350D01*
X388520Y224923D01*
X391881Y226315D01*
X410759Y226315D01*
X414120Y224923D01*
X416693Y222350D01*
X417127Y221302D01*
X417164Y221241D01*
X417194Y221175D01*
X417229Y221137D01*
X417256Y221093D01*
X417312Y221047D01*
X417360Y220994D01*
X417406Y220969D01*
X417446Y220936D01*
X417513Y220910D01*
X417576Y220876D01*
X417627Y220866D01*
X417675Y220848D01*
X417747Y220845D01*
X417818Y220832D01*
X417869Y220840D01*
X417921Y220837D01*
X417990Y220857D01*
X418061Y220868D01*
X418107Y220891D01*
X418157Y220906D01*
X418216Y220947D01*
X418280Y220979D01*
X418317Y221017D01*
X418359Y221046D01*
X418402Y221104D01*
X418452Y221155D01*
X418487Y221218D01*
X418506Y221244D01*
X418513Y221266D01*
X418533Y221302D01*
X418967Y222350D01*
X421540Y224923D01*
X424901Y226315D01*
X443779Y226315D01*
X447140Y224923D01*
X449713Y222350D01*
X450147Y221302D01*
X450184Y221241D01*
X450214Y221175D01*
X450249Y221137D01*
X450276Y221093D01*
X450331Y221047D01*
X450380Y220994D01*
X450426Y220969D01*
X450466Y220936D01*
X450533Y220910D01*
X450596Y220876D01*
X450647Y220866D01*
X450695Y220848D01*
X450767Y220845D01*
X450838Y220832D01*
X450889Y220840D01*
X450941Y220837D01*
X451010Y220857D01*
X451081Y220868D01*
X451127Y220891D01*
X451177Y220906D01*
X451236Y220947D01*
X451300Y220979D01*
X451337Y221017D01*
X451379Y221046D01*
X451422Y221104D01*
X451472Y221155D01*
X451507Y221218D01*
X451526Y221244D01*
X451533Y221266D01*
X451553Y221302D01*
X451987Y222350D01*
X454560Y224923D01*
X457921Y226315D01*
X476799Y226315D01*
X480160Y224923D01*
X482733Y222350D01*
X484125Y218989D01*
X484125Y215351D01*
X482733Y211990D01*
X480160Y209417D01*
X476799Y208025D01*
X457921Y208025D01*
X454560Y209417D01*
X451987Y211990D01*
X451553Y213038D01*
X451516Y213099D01*
X451486Y213165D01*
X451451Y213203D01*
X451424Y213247D01*
X451368Y213293D01*
X451320Y213346D01*
X451274Y213371D01*
X451234Y213404D01*
X451167Y213430D01*
X451104Y213464D01*
X451053Y213474D01*
X451005Y213492D01*
X450933Y213495D01*
X450862Y213508D01*
X450811Y213500D01*
X450759Y213503D01*
X450690Y213483D01*
X450619Y213472D01*
X450573Y213449D01*
X450523Y213434D01*
X450464Y213393D01*
X450400Y213361D01*
X450363Y213323D01*
X450321Y213294D01*
X450278Y213236D01*
X450228Y213185D01*
X450193Y213122D01*
X450174Y213096D01*
X450167Y213074D01*
X450147Y213038D01*
X449713Y211990D01*
X447140Y209417D01*
X443779Y208025D01*
X424901Y208025D01*
X421540Y209417D01*
X418967Y211990D01*
X418533Y213038D01*
X418496Y213099D01*
X418466Y213165D01*
X418431Y213203D01*
X418404Y213247D01*
X418349Y213293D01*
X418300Y213346D01*
X418254Y213371D01*
X418214Y213404D01*
X418147Y213430D01*
X418084Y213464D01*
X418033Y213474D01*
X417985Y213492D01*
X417913Y213495D01*
X417842Y213508D01*
X417791Y213500D01*
X417739Y213503D01*
X417670Y213483D01*
X417599Y213472D01*
X417553Y213449D01*
X417503Y213434D01*
X417444Y213393D01*
X417380Y213361D01*
X417343Y213323D01*
X417301Y213294D01*
X417258Y213236D01*
X417208Y213185D01*
X417173Y213122D01*
X417154Y213096D01*
X417147Y213074D01*
X417127Y213038D01*
X416693Y211990D01*
X414120Y209417D01*
X410759Y208025D01*
X391881Y208025D01*
G37*
%LPD*%
%LPC*%
G36*
X391881Y233425D02*
X391881Y233425D01*
X388520Y234817D01*
X385947Y237390D01*
X384555Y240751D01*
X384555Y244389D01*
X385947Y247750D01*
X388520Y250323D01*
X391881Y251715D01*
X410759Y251715D01*
X414120Y250323D01*
X416693Y247750D01*
X417127Y246702D01*
X417164Y246641D01*
X417194Y246575D01*
X417229Y246537D01*
X417256Y246493D01*
X417312Y246447D01*
X417360Y246394D01*
X417406Y246369D01*
X417446Y246336D01*
X417513Y246310D01*
X417576Y246276D01*
X417627Y246266D01*
X417675Y246248D01*
X417747Y246245D01*
X417818Y246232D01*
X417869Y246240D01*
X417921Y246237D01*
X417990Y246257D01*
X418061Y246268D01*
X418107Y246291D01*
X418157Y246306D01*
X418216Y246347D01*
X418280Y246379D01*
X418317Y246417D01*
X418359Y246446D01*
X418402Y246504D01*
X418452Y246555D01*
X418487Y246618D01*
X418506Y246644D01*
X418513Y246666D01*
X418533Y246702D01*
X418967Y247750D01*
X421540Y250323D01*
X424901Y251715D01*
X443779Y251715D01*
X447140Y250323D01*
X449713Y247750D01*
X450147Y246702D01*
X450184Y246641D01*
X450214Y246575D01*
X450249Y246537D01*
X450276Y246493D01*
X450331Y246447D01*
X450380Y246394D01*
X450426Y246369D01*
X450466Y246336D01*
X450533Y246310D01*
X450596Y246276D01*
X450647Y246266D01*
X450695Y246248D01*
X450767Y246245D01*
X450838Y246232D01*
X450889Y246240D01*
X450941Y246237D01*
X451010Y246257D01*
X451081Y246268D01*
X451127Y246291D01*
X451177Y246306D01*
X451236Y246347D01*
X451300Y246379D01*
X451337Y246417D01*
X451379Y246446D01*
X451422Y246504D01*
X451472Y246555D01*
X451507Y246618D01*
X451526Y246644D01*
X451533Y246666D01*
X451553Y246702D01*
X451987Y247750D01*
X454560Y250323D01*
X457921Y251715D01*
X476799Y251715D01*
X480160Y250323D01*
X482733Y247750D01*
X484125Y244389D01*
X484125Y240751D01*
X482733Y237390D01*
X480160Y234817D01*
X476799Y233425D01*
X457921Y233425D01*
X454560Y234817D01*
X451987Y237390D01*
X451553Y238438D01*
X451516Y238499D01*
X451486Y238565D01*
X451451Y238603D01*
X451424Y238647D01*
X451368Y238693D01*
X451320Y238746D01*
X451274Y238771D01*
X451234Y238804D01*
X451167Y238830D01*
X451104Y238864D01*
X451053Y238874D01*
X451005Y238892D01*
X450933Y238895D01*
X450862Y238908D01*
X450811Y238900D01*
X450759Y238903D01*
X450690Y238883D01*
X450619Y238872D01*
X450573Y238849D01*
X450523Y238834D01*
X450464Y238793D01*
X450400Y238761D01*
X450363Y238723D01*
X450321Y238694D01*
X450278Y238636D01*
X450228Y238585D01*
X450193Y238522D01*
X450174Y238496D01*
X450167Y238474D01*
X450147Y238438D01*
X449713Y237390D01*
X447140Y234817D01*
X443779Y233425D01*
X424901Y233425D01*
X421540Y234817D01*
X418967Y237390D01*
X418533Y238438D01*
X418496Y238499D01*
X418466Y238565D01*
X418431Y238603D01*
X418404Y238647D01*
X418349Y238693D01*
X418300Y238746D01*
X418254Y238771D01*
X418214Y238804D01*
X418147Y238830D01*
X418084Y238864D01*
X418033Y238874D01*
X417985Y238892D01*
X417913Y238895D01*
X417842Y238908D01*
X417791Y238900D01*
X417739Y238903D01*
X417670Y238883D01*
X417599Y238872D01*
X417553Y238849D01*
X417503Y238834D01*
X417444Y238793D01*
X417380Y238761D01*
X417343Y238723D01*
X417301Y238694D01*
X417258Y238636D01*
X417208Y238585D01*
X417173Y238522D01*
X417154Y238496D01*
X417147Y238474D01*
X417127Y238438D01*
X416693Y237390D01*
X414120Y234817D01*
X410759Y233425D01*
X391881Y233425D01*
G37*
%LPD*%
%LPC*%
G36*
X326412Y31495D02*
X326412Y31495D01*
X321055Y36852D01*
X321055Y44428D01*
X321324Y44697D01*
X321336Y44713D01*
X321352Y44726D01*
X321408Y44813D01*
X321468Y44897D01*
X321474Y44916D01*
X321485Y44933D01*
X321510Y45033D01*
X321540Y45132D01*
X321540Y45152D01*
X321545Y45171D01*
X321537Y45274D01*
X321534Y45378D01*
X321527Y45397D01*
X321526Y45416D01*
X321485Y45511D01*
X321450Y45609D01*
X321437Y45624D01*
X321429Y45643D01*
X321324Y45774D01*
X316229Y50869D01*
X316229Y77147D01*
X317792Y78710D01*
X319331Y80249D01*
X319399Y80344D01*
X319469Y80437D01*
X319471Y80443D01*
X319474Y80448D01*
X319509Y80560D01*
X319545Y80671D01*
X319545Y80677D01*
X319547Y80683D01*
X319544Y80800D01*
X319542Y80917D01*
X319540Y80924D01*
X319540Y80929D01*
X319534Y80947D01*
X319496Y81078D01*
X318289Y83991D01*
X318289Y88729D01*
X320103Y93107D01*
X323453Y96457D01*
X327831Y98271D01*
X332569Y98271D01*
X336947Y96457D01*
X340297Y93107D01*
X342111Y88729D01*
X342111Y83991D01*
X340297Y79613D01*
X336947Y76263D01*
X332569Y74449D01*
X327831Y74449D01*
X323453Y76263D01*
X323171Y76545D01*
X323155Y76556D01*
X323142Y76572D01*
X323055Y76628D01*
X322971Y76688D01*
X322952Y76694D01*
X322936Y76705D01*
X322835Y76730D01*
X322736Y76761D01*
X322716Y76760D01*
X322697Y76765D01*
X322594Y76757D01*
X322490Y76754D01*
X322472Y76747D01*
X322452Y76746D01*
X322357Y76705D01*
X322259Y76670D01*
X322244Y76657D01*
X322225Y76649D01*
X322095Y76545D01*
X321026Y75476D01*
X320973Y75402D01*
X320913Y75332D01*
X320901Y75302D01*
X320882Y75276D01*
X320855Y75189D01*
X320821Y75104D01*
X320817Y75063D01*
X320810Y75041D01*
X320811Y75009D01*
X320803Y74937D01*
X320803Y66333D01*
X320814Y66262D01*
X320816Y66191D01*
X320834Y66142D01*
X320842Y66090D01*
X320876Y66027D01*
X320901Y65960D01*
X320933Y65919D01*
X320958Y65873D01*
X321010Y65824D01*
X321054Y65768D01*
X321098Y65739D01*
X321136Y65704D01*
X321201Y65673D01*
X321261Y65635D01*
X321312Y65622D01*
X321359Y65600D01*
X321430Y65592D01*
X321500Y65575D01*
X321552Y65579D01*
X321603Y65573D01*
X321674Y65588D01*
X321745Y65594D01*
X321793Y65614D01*
X321844Y65625D01*
X321905Y65662D01*
X321971Y65690D01*
X322027Y65735D01*
X322055Y65751D01*
X322070Y65769D01*
X322102Y65795D01*
X326412Y70105D01*
X333988Y70105D01*
X339345Y64748D01*
X339345Y57172D01*
X333988Y51815D01*
X326412Y51815D01*
X322102Y56125D01*
X322044Y56167D01*
X321992Y56216D01*
X321945Y56238D01*
X321903Y56269D01*
X321834Y56290D01*
X321769Y56320D01*
X321717Y56326D01*
X321667Y56341D01*
X321596Y56339D01*
X321525Y56347D01*
X321474Y56336D01*
X321422Y56335D01*
X321354Y56310D01*
X321284Y56295D01*
X321239Y56268D01*
X321191Y56250D01*
X321135Y56205D01*
X321073Y56169D01*
X321039Y56129D01*
X320999Y56097D01*
X320960Y56036D01*
X320913Y55982D01*
X320894Y55933D01*
X320866Y55890D01*
X320848Y55820D01*
X320821Y55754D01*
X320813Y55682D01*
X320805Y55651D01*
X320807Y55628D01*
X320803Y55587D01*
X320803Y53079D01*
X320817Y52988D01*
X320825Y52898D01*
X320837Y52868D01*
X320842Y52836D01*
X320885Y52755D01*
X320921Y52671D01*
X320947Y52639D01*
X320958Y52618D01*
X320981Y52596D01*
X321026Y52540D01*
X324558Y49008D01*
X324575Y48996D01*
X324587Y48980D01*
X324674Y48924D01*
X324758Y48864D01*
X324777Y48858D01*
X324794Y48847D01*
X324894Y48822D01*
X324993Y48792D01*
X325013Y48792D01*
X325032Y48787D01*
X325135Y48795D01*
X325239Y48798D01*
X325258Y48805D01*
X325278Y48806D01*
X325373Y48847D01*
X325470Y48882D01*
X325486Y48895D01*
X325504Y48903D01*
X325635Y49008D01*
X326412Y49785D01*
X333988Y49785D01*
X339345Y44428D01*
X339345Y36852D01*
X333988Y31495D01*
X326412Y31495D01*
G37*
%LPD*%
%LPC*%
G36*
X597621Y178815D02*
X597621Y178815D01*
X594260Y180207D01*
X591687Y182780D01*
X590295Y186141D01*
X590295Y205019D01*
X591687Y208380D01*
X594260Y210953D01*
X595308Y211387D01*
X595369Y211424D01*
X595435Y211454D01*
X595473Y211489D01*
X595517Y211516D01*
X595563Y211572D01*
X595616Y211620D01*
X595641Y211666D01*
X595674Y211706D01*
X595700Y211773D01*
X595734Y211836D01*
X595744Y211887D01*
X595762Y211935D01*
X595765Y212007D01*
X595778Y212078D01*
X595770Y212129D01*
X595773Y212181D01*
X595753Y212250D01*
X595742Y212321D01*
X595719Y212367D01*
X595704Y212417D01*
X595663Y212476D01*
X595631Y212540D01*
X595593Y212577D01*
X595564Y212619D01*
X595506Y212662D01*
X595455Y212712D01*
X595392Y212747D01*
X595366Y212766D01*
X595344Y212773D01*
X595308Y212793D01*
X594260Y213227D01*
X591687Y215800D01*
X590295Y219161D01*
X590295Y238039D01*
X591687Y241400D01*
X594260Y243973D01*
X597621Y245365D01*
X601259Y245365D01*
X604620Y243973D01*
X607193Y241400D01*
X608585Y238039D01*
X608585Y219161D01*
X607193Y215800D01*
X604620Y213227D01*
X603572Y212793D01*
X603511Y212756D01*
X603445Y212726D01*
X603407Y212691D01*
X603363Y212664D01*
X603317Y212609D01*
X603264Y212560D01*
X603239Y212514D01*
X603206Y212474D01*
X603180Y212407D01*
X603146Y212344D01*
X603136Y212293D01*
X603118Y212245D01*
X603115Y212173D01*
X603102Y212102D01*
X603110Y212051D01*
X603107Y211999D01*
X603127Y211930D01*
X603138Y211859D01*
X603161Y211813D01*
X603176Y211763D01*
X603217Y211704D01*
X603249Y211640D01*
X603287Y211603D01*
X603316Y211561D01*
X603374Y211518D01*
X603425Y211468D01*
X603488Y211433D01*
X603514Y211414D01*
X603536Y211407D01*
X603572Y211387D01*
X604620Y210953D01*
X607193Y208380D01*
X608585Y205019D01*
X608585Y186141D01*
X607193Y182780D01*
X604620Y180207D01*
X601259Y178815D01*
X597621Y178815D01*
G37*
%LPD*%
%LPC*%
G36*
X572221Y249935D02*
X572221Y249935D01*
X568860Y251327D01*
X566287Y253900D01*
X564895Y257261D01*
X564895Y276139D01*
X566287Y279500D01*
X568860Y282073D01*
X572221Y283465D01*
X575859Y283465D01*
X579220Y282073D01*
X581793Y279500D01*
X583185Y276139D01*
X583185Y257261D01*
X581793Y253900D01*
X579220Y251327D01*
X575859Y249935D01*
X572221Y249935D01*
G37*
%LPD*%
%LPC*%
G36*
X112481Y209295D02*
X112481Y209295D01*
X109120Y210687D01*
X106547Y213260D01*
X105155Y216621D01*
X105155Y235499D01*
X106547Y238860D01*
X109120Y241433D01*
X112481Y242825D01*
X116119Y242825D01*
X119480Y241433D01*
X122053Y238860D01*
X123445Y235499D01*
X123445Y216621D01*
X122053Y213260D01*
X119480Y210687D01*
X116119Y209295D01*
X112481Y209295D01*
G37*
%LPD*%
%LPC*%
G36*
X597621Y140715D02*
X597621Y140715D01*
X594260Y142107D01*
X591687Y144680D01*
X590295Y148041D01*
X590295Y166919D01*
X591687Y170280D01*
X594260Y172853D01*
X597621Y174245D01*
X601259Y174245D01*
X604620Y172853D01*
X607193Y170280D01*
X608585Y166919D01*
X608585Y148041D01*
X607193Y144680D01*
X604620Y142107D01*
X601259Y140715D01*
X597621Y140715D01*
G37*
%LPD*%
%LPC*%
G36*
X200111Y163575D02*
X200111Y163575D01*
X196750Y164967D01*
X194177Y167540D01*
X192785Y170901D01*
X192785Y189779D01*
X194177Y193140D01*
X196750Y195713D01*
X200111Y197105D01*
X203749Y197105D01*
X207110Y195713D01*
X209683Y193140D01*
X211075Y189779D01*
X211075Y170901D01*
X209683Y167540D01*
X207110Y164967D01*
X203749Y163575D01*
X200111Y163575D01*
G37*
%LPD*%
%LPC*%
G36*
X225511Y163575D02*
X225511Y163575D01*
X222150Y164967D01*
X219577Y167540D01*
X218185Y170901D01*
X218185Y189779D01*
X219577Y193140D01*
X222150Y195713D01*
X225511Y197105D01*
X229149Y197105D01*
X232510Y195713D01*
X235083Y193140D01*
X236475Y189779D01*
X236475Y170901D01*
X235083Y167540D01*
X232510Y164967D01*
X229149Y163575D01*
X225511Y163575D01*
G37*
%LPD*%
%LPC*%
G36*
X149311Y163575D02*
X149311Y163575D01*
X145950Y164967D01*
X143377Y167540D01*
X141985Y170901D01*
X141985Y189779D01*
X143377Y193140D01*
X145950Y195713D01*
X149311Y197105D01*
X152949Y197105D01*
X156310Y195713D01*
X158883Y193140D01*
X160275Y189779D01*
X160275Y170901D01*
X158883Y167540D01*
X156310Y164967D01*
X152949Y163575D01*
X149311Y163575D01*
G37*
%LPD*%
%LPC*%
G36*
X174711Y163575D02*
X174711Y163575D01*
X171350Y164967D01*
X168777Y167540D01*
X167385Y170901D01*
X167385Y189779D01*
X168777Y193140D01*
X171350Y195713D01*
X174711Y197105D01*
X178349Y197105D01*
X181710Y195713D01*
X184283Y193140D01*
X185675Y189779D01*
X185675Y170901D01*
X184283Y167540D01*
X181710Y164967D01*
X178349Y163575D01*
X174711Y163575D01*
G37*
%LPD*%
%LPC*%
G36*
X137881Y209295D02*
X137881Y209295D01*
X134520Y210687D01*
X131947Y213260D01*
X130555Y216621D01*
X130555Y235499D01*
X131947Y238860D01*
X134520Y241433D01*
X137881Y242825D01*
X141519Y242825D01*
X144880Y241433D01*
X147453Y238860D01*
X148845Y235499D01*
X148845Y216621D01*
X147453Y213260D01*
X144880Y210687D01*
X141519Y209295D01*
X137881Y209295D01*
G37*
%LPD*%
%LPC*%
G36*
X597621Y249935D02*
X597621Y249935D01*
X594260Y251327D01*
X591687Y253900D01*
X590295Y257261D01*
X590295Y276139D01*
X591687Y279500D01*
X594260Y282073D01*
X597621Y283465D01*
X601259Y283465D01*
X604620Y282073D01*
X607193Y279500D01*
X608585Y276139D01*
X608585Y257261D01*
X607193Y253900D01*
X604620Y251327D01*
X601259Y249935D01*
X597621Y249935D01*
G37*
%LPD*%
%LPC*%
G36*
X607231Y106199D02*
X607231Y106199D01*
X602853Y108013D01*
X599503Y111363D01*
X597689Y115741D01*
X597689Y120479D01*
X599503Y124857D01*
X602853Y128207D01*
X607231Y130021D01*
X611969Y130021D01*
X616347Y128207D01*
X619697Y124857D01*
X621511Y120479D01*
X621511Y115741D01*
X619697Y111363D01*
X616347Y108013D01*
X611969Y106199D01*
X607231Y106199D01*
G37*
%LPD*%
%LPC*%
G36*
X581831Y106199D02*
X581831Y106199D01*
X577453Y108013D01*
X574103Y111363D01*
X572289Y115741D01*
X572289Y120479D01*
X574103Y124857D01*
X577453Y128207D01*
X581831Y130021D01*
X586569Y130021D01*
X590947Y128207D01*
X594297Y124857D01*
X596111Y120479D01*
X596111Y115741D01*
X594297Y111363D01*
X590947Y108013D01*
X586569Y106199D01*
X581831Y106199D01*
G37*
%LPD*%
%LPC*%
G36*
X556431Y106199D02*
X556431Y106199D01*
X552053Y108013D01*
X548703Y111363D01*
X546889Y115741D01*
X546889Y120479D01*
X548703Y124857D01*
X552053Y128207D01*
X556431Y130021D01*
X561169Y130021D01*
X565547Y128207D01*
X568897Y124857D01*
X570711Y120479D01*
X570711Y115741D01*
X568897Y111363D01*
X565547Y108013D01*
X561169Y106199D01*
X556431Y106199D01*
G37*
%LPD*%
%LPC*%
G36*
X531031Y106199D02*
X531031Y106199D01*
X526653Y108013D01*
X523303Y111363D01*
X521489Y115741D01*
X521489Y120479D01*
X523303Y124857D01*
X526653Y128207D01*
X531031Y130021D01*
X535769Y130021D01*
X540147Y128207D01*
X543497Y124857D01*
X545311Y120479D01*
X545311Y115741D01*
X543497Y111363D01*
X540147Y108013D01*
X535769Y106199D01*
X531031Y106199D01*
G37*
%LPD*%
%LPC*%
G36*
X505631Y106199D02*
X505631Y106199D01*
X501253Y108013D01*
X497903Y111363D01*
X496089Y115741D01*
X496089Y120479D01*
X497903Y124857D01*
X501253Y128207D01*
X505631Y130021D01*
X510369Y130021D01*
X514747Y128207D01*
X518097Y124857D01*
X519911Y120479D01*
X519911Y115741D01*
X518097Y111363D01*
X514747Y108013D01*
X510369Y106199D01*
X505631Y106199D01*
G37*
%LPD*%
%LPC*%
G36*
X454831Y106199D02*
X454831Y106199D01*
X450453Y108013D01*
X447103Y111363D01*
X445289Y115741D01*
X445289Y120479D01*
X447103Y124857D01*
X450453Y128207D01*
X454831Y130021D01*
X459569Y130021D01*
X463947Y128207D01*
X467297Y124857D01*
X469111Y120479D01*
X469111Y115741D01*
X467297Y111363D01*
X463947Y108013D01*
X459569Y106199D01*
X454831Y106199D01*
G37*
%LPD*%
%LPC*%
G36*
X404031Y106199D02*
X404031Y106199D01*
X399653Y108013D01*
X396303Y111363D01*
X394489Y115741D01*
X394489Y120479D01*
X396303Y124857D01*
X399653Y128207D01*
X404031Y130021D01*
X408769Y130021D01*
X413147Y128207D01*
X416497Y124857D01*
X418311Y120479D01*
X418311Y115741D01*
X416497Y111363D01*
X413147Y108013D01*
X408769Y106199D01*
X404031Y106199D01*
G37*
%LPD*%
%LPC*%
G36*
X378631Y106199D02*
X378631Y106199D01*
X374253Y108013D01*
X370903Y111363D01*
X369089Y115741D01*
X369089Y120479D01*
X370903Y124857D01*
X374253Y128207D01*
X378631Y130021D01*
X383369Y130021D01*
X387747Y128207D01*
X391097Y124857D01*
X392911Y120479D01*
X392911Y115741D01*
X391097Y111363D01*
X387747Y108013D01*
X383369Y106199D01*
X378631Y106199D01*
G37*
%LPD*%
%LPC*%
G36*
X353231Y106199D02*
X353231Y106199D01*
X348853Y108013D01*
X345503Y111363D01*
X343689Y115741D01*
X343689Y120479D01*
X345503Y124857D01*
X348853Y128207D01*
X353231Y130021D01*
X357969Y130021D01*
X362347Y128207D01*
X365697Y124857D01*
X367511Y120479D01*
X367511Y115741D01*
X365697Y111363D01*
X362347Y108013D01*
X357969Y106199D01*
X353231Y106199D01*
G37*
%LPD*%
%LPC*%
G36*
X327831Y106199D02*
X327831Y106199D01*
X323453Y108013D01*
X320103Y111363D01*
X318289Y115741D01*
X318289Y120479D01*
X320103Y124857D01*
X323453Y128207D01*
X327831Y130021D01*
X332569Y130021D01*
X336947Y128207D01*
X340297Y124857D01*
X342111Y120479D01*
X342111Y115741D01*
X340297Y111363D01*
X336947Y108013D01*
X332569Y106199D01*
X327831Y106199D01*
G37*
%LPD*%
%LPC*%
G36*
X302431Y106199D02*
X302431Y106199D01*
X298053Y108013D01*
X294703Y111363D01*
X292889Y115741D01*
X292889Y120479D01*
X294703Y124857D01*
X298053Y128207D01*
X302431Y130021D01*
X307169Y130021D01*
X311547Y128207D01*
X314897Y124857D01*
X316711Y120479D01*
X316711Y115741D01*
X314897Y111363D01*
X311547Y108013D01*
X307169Y106199D01*
X302431Y106199D01*
G37*
%LPD*%
%LPC*%
G36*
X277031Y106199D02*
X277031Y106199D01*
X272653Y108013D01*
X269303Y111363D01*
X267489Y115741D01*
X267489Y120479D01*
X269303Y124857D01*
X272653Y128207D01*
X277031Y130021D01*
X281769Y130021D01*
X286147Y128207D01*
X289497Y124857D01*
X291311Y120479D01*
X291311Y115741D01*
X289497Y111363D01*
X286147Y108013D01*
X281769Y106199D01*
X277031Y106199D01*
G37*
%LPD*%
%LPC*%
G36*
X251631Y106199D02*
X251631Y106199D01*
X247253Y108013D01*
X243903Y111363D01*
X242089Y115741D01*
X242089Y120479D01*
X243903Y124857D01*
X247253Y128207D01*
X251631Y130021D01*
X256369Y130021D01*
X260747Y128207D01*
X264097Y124857D01*
X265911Y120479D01*
X265911Y115741D01*
X264097Y111363D01*
X260747Y108013D01*
X256369Y106199D01*
X251631Y106199D01*
G37*
%LPD*%
%LPC*%
G36*
X226231Y106199D02*
X226231Y106199D01*
X221853Y108013D01*
X218503Y111363D01*
X216689Y115741D01*
X216689Y120479D01*
X218503Y124857D01*
X221853Y128207D01*
X226231Y130021D01*
X230969Y130021D01*
X235347Y128207D01*
X238697Y124857D01*
X240511Y120479D01*
X240511Y115741D01*
X238697Y111363D01*
X235347Y108013D01*
X230969Y106199D01*
X226231Y106199D01*
G37*
%LPD*%
%LPC*%
G36*
X200831Y106199D02*
X200831Y106199D01*
X196453Y108013D01*
X193103Y111363D01*
X191289Y115741D01*
X191289Y120479D01*
X193103Y124857D01*
X196453Y128207D01*
X200831Y130021D01*
X205569Y130021D01*
X209947Y128207D01*
X213297Y124857D01*
X215111Y120479D01*
X215111Y115741D01*
X213297Y111363D01*
X209947Y108013D01*
X205569Y106199D01*
X200831Y106199D01*
G37*
%LPD*%
%LPC*%
G36*
X175431Y106199D02*
X175431Y106199D01*
X171053Y108013D01*
X167703Y111363D01*
X165889Y115741D01*
X165889Y120479D01*
X167703Y124857D01*
X171053Y128207D01*
X175431Y130021D01*
X180169Y130021D01*
X184547Y128207D01*
X187897Y124857D01*
X189711Y120479D01*
X189711Y115741D01*
X187897Y111363D01*
X184547Y108013D01*
X180169Y106199D01*
X175431Y106199D01*
G37*
%LPD*%
%LPC*%
G36*
X124631Y104929D02*
X124631Y104929D01*
X120253Y106743D01*
X116903Y110093D01*
X115089Y114471D01*
X115089Y119209D01*
X116903Y123587D01*
X120253Y126937D01*
X124631Y128751D01*
X129369Y128751D01*
X133747Y126937D01*
X137097Y123587D01*
X138911Y119209D01*
X138911Y114471D01*
X137097Y110093D01*
X133747Y106743D01*
X129369Y104929D01*
X124631Y104929D01*
G37*
%LPD*%
%LPC*%
G36*
X480231Y75719D02*
X480231Y75719D01*
X475853Y77533D01*
X472503Y80883D01*
X470689Y85261D01*
X470689Y89999D01*
X472503Y94377D01*
X475853Y97727D01*
X480231Y99541D01*
X484969Y99541D01*
X489347Y97727D01*
X492697Y94377D01*
X494511Y89999D01*
X494511Y85261D01*
X492697Y80883D01*
X489347Y77533D01*
X484969Y75719D01*
X480231Y75719D01*
G37*
%LPD*%
%LPC*%
G36*
X99231Y74449D02*
X99231Y74449D01*
X94853Y76263D01*
X91503Y79613D01*
X89689Y83991D01*
X89689Y88729D01*
X91503Y93107D01*
X94853Y96457D01*
X99231Y98271D01*
X103969Y98271D01*
X108347Y96457D01*
X111697Y93107D01*
X113511Y88729D01*
X113511Y83991D01*
X111697Y79613D01*
X108347Y76263D01*
X103969Y74449D01*
X99231Y74449D01*
G37*
%LPD*%
%LPC*%
G36*
X200831Y74449D02*
X200831Y74449D01*
X196453Y76263D01*
X193103Y79613D01*
X191289Y83991D01*
X191289Y88729D01*
X193103Y93107D01*
X196453Y96457D01*
X200831Y98271D01*
X205569Y98271D01*
X209947Y96457D01*
X213297Y93107D01*
X215111Y88729D01*
X215111Y83991D01*
X213297Y79613D01*
X209947Y76263D01*
X205569Y74449D01*
X200831Y74449D01*
G37*
%LPD*%
%LPC*%
G36*
X607231Y74449D02*
X607231Y74449D01*
X602853Y76263D01*
X599503Y79613D01*
X597689Y83991D01*
X597689Y88729D01*
X599503Y93107D01*
X602853Y96457D01*
X607231Y98271D01*
X611969Y98271D01*
X616347Y96457D01*
X619697Y93107D01*
X621511Y88729D01*
X621511Y83991D01*
X619697Y79613D01*
X616347Y76263D01*
X611969Y74449D01*
X607231Y74449D01*
G37*
%LPD*%
%LPC*%
G36*
X581831Y74449D02*
X581831Y74449D01*
X577453Y76263D01*
X574103Y79613D01*
X572289Y83991D01*
X572289Y88729D01*
X574103Y93107D01*
X577453Y96457D01*
X581831Y98271D01*
X586569Y98271D01*
X590947Y96457D01*
X594297Y93107D01*
X596111Y88729D01*
X596111Y83991D01*
X594297Y79613D01*
X590947Y76263D01*
X586569Y74449D01*
X581831Y74449D01*
G37*
%LPD*%
%LPC*%
G36*
X556431Y74449D02*
X556431Y74449D01*
X552053Y76263D01*
X548703Y79613D01*
X546889Y83991D01*
X546889Y88729D01*
X548703Y93107D01*
X552053Y96457D01*
X556431Y98271D01*
X561169Y98271D01*
X565547Y96457D01*
X568897Y93107D01*
X570711Y88729D01*
X570711Y83991D01*
X568897Y79613D01*
X565547Y76263D01*
X561169Y74449D01*
X556431Y74449D01*
G37*
%LPD*%
%LPC*%
G36*
X531031Y74449D02*
X531031Y74449D01*
X526653Y76263D01*
X523303Y79613D01*
X521489Y83991D01*
X521489Y88729D01*
X523303Y93107D01*
X526653Y96457D01*
X531031Y98271D01*
X535769Y98271D01*
X540147Y96457D01*
X543497Y93107D01*
X545311Y88729D01*
X545311Y83991D01*
X543497Y79613D01*
X540147Y76263D01*
X535769Y74449D01*
X531031Y74449D01*
G37*
%LPD*%
%LPC*%
G36*
X505631Y74449D02*
X505631Y74449D01*
X501253Y76263D01*
X497903Y79613D01*
X496089Y83991D01*
X496089Y88729D01*
X497903Y93107D01*
X501253Y96457D01*
X505631Y98271D01*
X510369Y98271D01*
X514747Y96457D01*
X518097Y93107D01*
X519911Y88729D01*
X519911Y83991D01*
X518097Y79613D01*
X514747Y76263D01*
X510369Y74449D01*
X505631Y74449D01*
G37*
%LPD*%
%LPC*%
G36*
X531031Y483389D02*
X531031Y483389D01*
X526653Y485203D01*
X523303Y488553D01*
X521489Y492931D01*
X521489Y497669D01*
X523303Y502047D01*
X526653Y505397D01*
X531031Y507211D01*
X535769Y507211D01*
X540147Y505397D01*
X543497Y502047D01*
X545311Y497669D01*
X545311Y492931D01*
X543497Y488553D01*
X540147Y485203D01*
X535769Y483389D01*
X531031Y483389D01*
G37*
%LPD*%
%LPC*%
G36*
X454831Y74449D02*
X454831Y74449D01*
X450453Y76263D01*
X447103Y79613D01*
X445289Y83991D01*
X445289Y88729D01*
X447103Y93107D01*
X450453Y96457D01*
X454831Y98271D01*
X459569Y98271D01*
X463947Y96457D01*
X467297Y93107D01*
X469111Y88729D01*
X469111Y83991D01*
X467297Y79613D01*
X463947Y76263D01*
X459569Y74449D01*
X454831Y74449D01*
G37*
%LPD*%
%LPC*%
G36*
X429431Y74449D02*
X429431Y74449D01*
X425053Y76263D01*
X421703Y79613D01*
X419889Y83991D01*
X419889Y88729D01*
X421703Y93107D01*
X425053Y96457D01*
X429431Y98271D01*
X434169Y98271D01*
X438547Y96457D01*
X441897Y93107D01*
X443711Y88729D01*
X443711Y83991D01*
X441897Y79613D01*
X438547Y76263D01*
X434169Y74449D01*
X429431Y74449D01*
G37*
%LPD*%
%LPC*%
G36*
X404031Y74449D02*
X404031Y74449D01*
X399653Y76263D01*
X396303Y79613D01*
X394489Y83991D01*
X394489Y88729D01*
X396303Y93107D01*
X399653Y96457D01*
X404031Y98271D01*
X408769Y98271D01*
X413147Y96457D01*
X416497Y93107D01*
X418311Y88729D01*
X418311Y83991D01*
X416497Y79613D01*
X413147Y76263D01*
X408769Y74449D01*
X404031Y74449D01*
G37*
%LPD*%
%LPC*%
G36*
X378631Y74449D02*
X378631Y74449D01*
X374253Y76263D01*
X370903Y79613D01*
X369089Y83991D01*
X369089Y88729D01*
X370903Y93107D01*
X374253Y96457D01*
X378631Y98271D01*
X383369Y98271D01*
X387747Y96457D01*
X391097Y93107D01*
X392911Y88729D01*
X392911Y83991D01*
X391097Y79613D01*
X387747Y76263D01*
X383369Y74449D01*
X378631Y74449D01*
G37*
%LPD*%
%LPC*%
G36*
X353231Y74449D02*
X353231Y74449D01*
X348853Y76263D01*
X345503Y79613D01*
X343689Y83991D01*
X343689Y88729D01*
X345503Y93107D01*
X348853Y96457D01*
X353231Y98271D01*
X357969Y98271D01*
X362347Y96457D01*
X365697Y93107D01*
X367511Y88729D01*
X367511Y83991D01*
X365697Y79613D01*
X362347Y76263D01*
X357969Y74449D01*
X353231Y74449D01*
G37*
%LPD*%
%LPC*%
G36*
X73831Y74449D02*
X73831Y74449D01*
X69453Y76263D01*
X66103Y79613D01*
X64289Y83991D01*
X64289Y88729D01*
X66103Y93107D01*
X69453Y96457D01*
X73831Y98271D01*
X78569Y98271D01*
X82947Y96457D01*
X86297Y93107D01*
X88111Y88729D01*
X88111Y83991D01*
X86297Y79613D01*
X82947Y76263D01*
X78569Y74449D01*
X73831Y74449D01*
G37*
%LPD*%
%LPC*%
G36*
X48431Y74449D02*
X48431Y74449D01*
X44053Y76263D01*
X40703Y79613D01*
X38889Y83991D01*
X38889Y88729D01*
X40703Y93107D01*
X44053Y96457D01*
X48431Y98271D01*
X53169Y98271D01*
X57547Y96457D01*
X60897Y93107D01*
X62711Y88729D01*
X62711Y83991D01*
X60897Y79613D01*
X57547Y76263D01*
X53169Y74449D01*
X48431Y74449D01*
G37*
%LPD*%
%LPC*%
G36*
X302431Y74449D02*
X302431Y74449D01*
X298053Y76263D01*
X294703Y79613D01*
X292889Y83991D01*
X292889Y88729D01*
X294703Y93107D01*
X298053Y96457D01*
X302431Y98271D01*
X307169Y98271D01*
X311547Y96457D01*
X314897Y93107D01*
X316711Y88729D01*
X316711Y83991D01*
X314897Y79613D01*
X311547Y76263D01*
X307169Y74449D01*
X302431Y74449D01*
G37*
%LPD*%
%LPC*%
G36*
X277031Y74449D02*
X277031Y74449D01*
X272653Y76263D01*
X269303Y79613D01*
X267489Y83991D01*
X267489Y88729D01*
X269303Y93107D01*
X272653Y96457D01*
X277031Y98271D01*
X281769Y98271D01*
X286147Y96457D01*
X289497Y93107D01*
X291311Y88729D01*
X291311Y83991D01*
X289497Y79613D01*
X286147Y76263D01*
X281769Y74449D01*
X277031Y74449D01*
G37*
%LPD*%
%LPC*%
G36*
X251631Y74449D02*
X251631Y74449D01*
X247253Y76263D01*
X243903Y79613D01*
X242089Y83991D01*
X242089Y88729D01*
X243903Y93107D01*
X247253Y96457D01*
X251631Y98271D01*
X256369Y98271D01*
X260747Y96457D01*
X264097Y93107D01*
X265911Y88729D01*
X265911Y83991D01*
X264097Y79613D01*
X260747Y76263D01*
X256369Y74449D01*
X251631Y74449D01*
G37*
%LPD*%
%LPC*%
G36*
X226231Y74449D02*
X226231Y74449D01*
X221853Y76263D01*
X218503Y79613D01*
X216689Y83991D01*
X216689Y88729D01*
X218503Y93107D01*
X221853Y96457D01*
X226231Y98271D01*
X230969Y98271D01*
X235347Y96457D01*
X238697Y93107D01*
X240511Y88729D01*
X240511Y83991D01*
X238697Y79613D01*
X235347Y76263D01*
X230969Y74449D01*
X226231Y74449D01*
G37*
%LPD*%
%LPC*%
G36*
X175431Y74449D02*
X175431Y74449D01*
X171053Y76263D01*
X167703Y79613D01*
X165889Y83991D01*
X165889Y88729D01*
X167703Y93107D01*
X171053Y96457D01*
X175431Y98271D01*
X180169Y98271D01*
X184547Y96457D01*
X187897Y93107D01*
X189711Y88729D01*
X189711Y83991D01*
X187897Y79613D01*
X184547Y76263D01*
X180169Y74449D01*
X175431Y74449D01*
G37*
%LPD*%
%LPC*%
G36*
X150031Y74449D02*
X150031Y74449D01*
X145653Y76263D01*
X142303Y79613D01*
X140489Y83991D01*
X140489Y88729D01*
X142303Y93107D01*
X145653Y96457D01*
X150031Y98271D01*
X154769Y98271D01*
X159147Y96457D01*
X162497Y93107D01*
X164311Y88729D01*
X164311Y83991D01*
X162497Y79613D01*
X159147Y76263D01*
X154769Y74449D01*
X150031Y74449D01*
G37*
%LPD*%
%LPC*%
G36*
X124631Y74449D02*
X124631Y74449D01*
X120253Y76263D01*
X116903Y79613D01*
X115089Y83991D01*
X115089Y88729D01*
X116903Y93107D01*
X120253Y96457D01*
X124631Y98271D01*
X129369Y98271D01*
X133747Y96457D01*
X137097Y93107D01*
X138911Y88729D01*
X138911Y83991D01*
X137097Y79613D01*
X133747Y76263D01*
X129369Y74449D01*
X124631Y74449D01*
G37*
%LPD*%
%LPC*%
G36*
X150031Y483389D02*
X150031Y483389D01*
X145653Y485203D01*
X142303Y488553D01*
X140489Y492931D01*
X140489Y497669D01*
X142303Y502047D01*
X145653Y505397D01*
X150031Y507211D01*
X154769Y507211D01*
X159147Y505397D01*
X162497Y502047D01*
X164311Y497669D01*
X164311Y492931D01*
X162497Y488553D01*
X159147Y485203D01*
X154769Y483389D01*
X150031Y483389D01*
G37*
%LPD*%
%LPC*%
G36*
X124631Y483389D02*
X124631Y483389D01*
X120253Y485203D01*
X116903Y488553D01*
X115089Y492931D01*
X115089Y497669D01*
X116903Y502047D01*
X120253Y505397D01*
X124631Y507211D01*
X129369Y507211D01*
X133747Y505397D01*
X137097Y502047D01*
X138911Y497669D01*
X138911Y492931D01*
X137097Y488553D01*
X133747Y485203D01*
X129369Y483389D01*
X124631Y483389D01*
G37*
%LPD*%
%LPC*%
G36*
X607231Y483389D02*
X607231Y483389D01*
X602853Y485203D01*
X599503Y488553D01*
X597689Y492931D01*
X597689Y497669D01*
X599503Y502047D01*
X602853Y505397D01*
X607231Y507211D01*
X611969Y507211D01*
X616347Y505397D01*
X619697Y502047D01*
X621511Y497669D01*
X621511Y492931D01*
X619697Y488553D01*
X616347Y485203D01*
X611969Y483389D01*
X607231Y483389D01*
G37*
%LPD*%
%LPC*%
G36*
X581831Y483389D02*
X581831Y483389D01*
X577453Y485203D01*
X574103Y488553D01*
X572289Y492931D01*
X572289Y497669D01*
X574103Y502047D01*
X577453Y505397D01*
X581831Y507211D01*
X586569Y507211D01*
X590947Y505397D01*
X594297Y502047D01*
X596111Y497669D01*
X596111Y492931D01*
X594297Y488553D01*
X590947Y485203D01*
X586569Y483389D01*
X581831Y483389D01*
G37*
%LPD*%
%LPC*%
G36*
X556431Y483389D02*
X556431Y483389D01*
X552053Y485203D01*
X548703Y488553D01*
X546889Y492931D01*
X546889Y497669D01*
X548703Y502047D01*
X552053Y505397D01*
X556431Y507211D01*
X561169Y507211D01*
X565547Y505397D01*
X568897Y502047D01*
X570711Y497669D01*
X570711Y492931D01*
X568897Y488553D01*
X565547Y485203D01*
X561169Y483389D01*
X556431Y483389D01*
G37*
%LPD*%
%LPC*%
G36*
X505631Y483389D02*
X505631Y483389D01*
X501253Y485203D01*
X497903Y488553D01*
X496089Y492931D01*
X496089Y497669D01*
X497903Y502047D01*
X501253Y505397D01*
X505631Y507211D01*
X510369Y507211D01*
X514747Y505397D01*
X518097Y502047D01*
X519911Y497669D01*
X519911Y492931D01*
X518097Y488553D01*
X514747Y485203D01*
X510369Y483389D01*
X505631Y483389D01*
G37*
%LPD*%
%LPC*%
G36*
X480231Y483389D02*
X480231Y483389D01*
X475853Y485203D01*
X472503Y488553D01*
X470689Y492931D01*
X470689Y497669D01*
X472503Y502047D01*
X475853Y505397D01*
X480231Y507211D01*
X484969Y507211D01*
X489347Y505397D01*
X492697Y502047D01*
X494511Y497669D01*
X494511Y492931D01*
X492697Y488553D01*
X489347Y485203D01*
X484969Y483389D01*
X480231Y483389D01*
G37*
%LPD*%
%LPC*%
G36*
X454831Y483389D02*
X454831Y483389D01*
X450453Y485203D01*
X447103Y488553D01*
X445289Y492931D01*
X445289Y497669D01*
X447103Y502047D01*
X450453Y505397D01*
X454831Y507211D01*
X459569Y507211D01*
X463947Y505397D01*
X467297Y502047D01*
X469111Y497669D01*
X469111Y492931D01*
X467297Y488553D01*
X463947Y485203D01*
X459569Y483389D01*
X454831Y483389D01*
G37*
%LPD*%
%LPC*%
G36*
X429431Y483389D02*
X429431Y483389D01*
X425053Y485203D01*
X421703Y488553D01*
X419889Y492931D01*
X419889Y497669D01*
X421703Y502047D01*
X425053Y505397D01*
X429431Y507211D01*
X434169Y507211D01*
X438547Y505397D01*
X441897Y502047D01*
X443711Y497669D01*
X443711Y492931D01*
X441897Y488553D01*
X438547Y485203D01*
X434169Y483389D01*
X429431Y483389D01*
G37*
%LPD*%
%LPC*%
G36*
X404031Y483389D02*
X404031Y483389D01*
X399653Y485203D01*
X396303Y488553D01*
X394489Y492931D01*
X394489Y497669D01*
X396303Y502047D01*
X399653Y505397D01*
X404031Y507211D01*
X408769Y507211D01*
X413147Y505397D01*
X416497Y502047D01*
X418311Y497669D01*
X418311Y492931D01*
X416497Y488553D01*
X413147Y485203D01*
X408769Y483389D01*
X404031Y483389D01*
G37*
%LPD*%
%LPC*%
G36*
X378631Y483389D02*
X378631Y483389D01*
X374253Y485203D01*
X370903Y488553D01*
X369089Y492931D01*
X369089Y497669D01*
X370903Y502047D01*
X374253Y505397D01*
X378631Y507211D01*
X383369Y507211D01*
X387747Y505397D01*
X391097Y502047D01*
X392911Y497669D01*
X392911Y492931D01*
X391097Y488553D01*
X387747Y485203D01*
X383369Y483389D01*
X378631Y483389D01*
G37*
%LPD*%
%LPC*%
G36*
X353231Y483389D02*
X353231Y483389D01*
X348853Y485203D01*
X345503Y488553D01*
X343689Y492931D01*
X343689Y497669D01*
X345503Y502047D01*
X348853Y505397D01*
X353231Y507211D01*
X357969Y507211D01*
X362347Y505397D01*
X365697Y502047D01*
X367511Y497669D01*
X367511Y492931D01*
X365697Y488553D01*
X362347Y485203D01*
X357969Y483389D01*
X353231Y483389D01*
G37*
%LPD*%
%LPC*%
G36*
X327831Y483389D02*
X327831Y483389D01*
X323453Y485203D01*
X320103Y488553D01*
X318289Y492931D01*
X318289Y497669D01*
X320103Y502047D01*
X323453Y505397D01*
X327831Y507211D01*
X332569Y507211D01*
X336947Y505397D01*
X340297Y502047D01*
X342111Y497669D01*
X342111Y492931D01*
X340297Y488553D01*
X336947Y485203D01*
X332569Y483389D01*
X327831Y483389D01*
G37*
%LPD*%
%LPC*%
G36*
X302431Y483389D02*
X302431Y483389D01*
X298053Y485203D01*
X294703Y488553D01*
X292889Y492931D01*
X292889Y497669D01*
X294703Y502047D01*
X298053Y505397D01*
X302431Y507211D01*
X307169Y507211D01*
X311547Y505397D01*
X314897Y502047D01*
X316711Y497669D01*
X316711Y492931D01*
X314897Y488553D01*
X311547Y485203D01*
X307169Y483389D01*
X302431Y483389D01*
G37*
%LPD*%
%LPC*%
G36*
X277031Y483389D02*
X277031Y483389D01*
X272653Y485203D01*
X269303Y488553D01*
X267489Y492931D01*
X267489Y497669D01*
X269303Y502047D01*
X272653Y505397D01*
X277031Y507211D01*
X281769Y507211D01*
X286147Y505397D01*
X289497Y502047D01*
X291311Y497669D01*
X291311Y492931D01*
X289497Y488553D01*
X286147Y485203D01*
X281769Y483389D01*
X277031Y483389D01*
G37*
%LPD*%
%LPC*%
G36*
X251631Y483389D02*
X251631Y483389D01*
X247253Y485203D01*
X243903Y488553D01*
X242089Y492931D01*
X242089Y497669D01*
X243903Y502047D01*
X247253Y505397D01*
X251631Y507211D01*
X256369Y507211D01*
X260747Y505397D01*
X264097Y502047D01*
X265911Y497669D01*
X265911Y492931D01*
X264097Y488553D01*
X260747Y485203D01*
X256369Y483389D01*
X251631Y483389D01*
G37*
%LPD*%
%LPC*%
G36*
X226231Y483389D02*
X226231Y483389D01*
X221853Y485203D01*
X218503Y488553D01*
X216689Y492931D01*
X216689Y497669D01*
X218503Y502047D01*
X221853Y505397D01*
X226231Y507211D01*
X230969Y507211D01*
X235347Y505397D01*
X238697Y502047D01*
X240511Y497669D01*
X240511Y492931D01*
X238697Y488553D01*
X235347Y485203D01*
X230969Y483389D01*
X226231Y483389D01*
G37*
%LPD*%
%LPC*%
G36*
X200831Y483389D02*
X200831Y483389D01*
X196453Y485203D01*
X193103Y488553D01*
X191289Y492931D01*
X191289Y497669D01*
X193103Y502047D01*
X196453Y505397D01*
X200831Y507211D01*
X205569Y507211D01*
X209947Y505397D01*
X213297Y502047D01*
X215111Y497669D01*
X215111Y492931D01*
X213297Y488553D01*
X209947Y485203D01*
X205569Y483389D01*
X200831Y483389D01*
G37*
%LPD*%
%LPC*%
G36*
X175431Y483389D02*
X175431Y483389D01*
X171053Y485203D01*
X167703Y488553D01*
X165889Y492931D01*
X165889Y497669D01*
X167703Y502047D01*
X171053Y505397D01*
X175431Y507211D01*
X180169Y507211D01*
X184547Y505397D01*
X187897Y502047D01*
X189711Y497669D01*
X189711Y492931D01*
X187897Y488553D01*
X184547Y485203D01*
X180169Y483389D01*
X175431Y483389D01*
G37*
%LPD*%
%LPC*%
G36*
X99231Y483389D02*
X99231Y483389D01*
X94853Y485203D01*
X91503Y488553D01*
X89689Y492931D01*
X89689Y497669D01*
X91503Y502047D01*
X94853Y505397D01*
X99231Y507211D01*
X103969Y507211D01*
X108347Y505397D01*
X111697Y502047D01*
X113511Y497669D01*
X113511Y492931D01*
X111697Y488553D01*
X108347Y485203D01*
X103969Y483389D01*
X99231Y483389D01*
G37*
%LPD*%
%LPC*%
G36*
X73831Y483389D02*
X73831Y483389D01*
X69453Y485203D01*
X66103Y488553D01*
X64289Y492931D01*
X64289Y497669D01*
X66103Y502047D01*
X69453Y505397D01*
X73831Y507211D01*
X78569Y507211D01*
X82947Y505397D01*
X86297Y502047D01*
X88111Y497669D01*
X88111Y492931D01*
X86297Y488553D01*
X82947Y485203D01*
X78569Y483389D01*
X73831Y483389D01*
G37*
%LPD*%
%LPC*%
G36*
X48431Y483389D02*
X48431Y483389D01*
X44053Y485203D01*
X40703Y488553D01*
X38889Y492931D01*
X38889Y497669D01*
X40703Y502047D01*
X44053Y505397D01*
X48431Y507211D01*
X53169Y507211D01*
X57547Y505397D01*
X60897Y502047D01*
X62711Y497669D01*
X62711Y492931D01*
X60897Y488553D01*
X57547Y485203D01*
X53169Y483389D01*
X48431Y483389D01*
G37*
%LPD*%
%LPC*%
G36*
X505631Y454179D02*
X505631Y454179D01*
X501253Y455993D01*
X497903Y459343D01*
X496089Y463721D01*
X496089Y468459D01*
X497903Y472837D01*
X501253Y476187D01*
X505631Y478001D01*
X510369Y478001D01*
X514747Y476187D01*
X518097Y472837D01*
X519911Y468459D01*
X519911Y463721D01*
X518097Y459343D01*
X514747Y455993D01*
X510369Y454179D01*
X505631Y454179D01*
G37*
%LPD*%
%LPC*%
G36*
X480231Y454179D02*
X480231Y454179D01*
X475853Y455993D01*
X472503Y459343D01*
X470689Y463721D01*
X470689Y468459D01*
X472503Y472837D01*
X475853Y476187D01*
X480231Y478001D01*
X484969Y478001D01*
X489347Y476187D01*
X492697Y472837D01*
X494511Y468459D01*
X494511Y463721D01*
X492697Y459343D01*
X489347Y455993D01*
X484969Y454179D01*
X480231Y454179D01*
G37*
%LPD*%
%LPC*%
G36*
X607231Y454179D02*
X607231Y454179D01*
X602853Y455993D01*
X599503Y459343D01*
X597689Y463721D01*
X597689Y468459D01*
X599503Y472837D01*
X602853Y476187D01*
X607231Y478001D01*
X611969Y478001D01*
X616347Y476187D01*
X619697Y472837D01*
X621511Y468459D01*
X621511Y463721D01*
X619697Y459343D01*
X616347Y455993D01*
X611969Y454179D01*
X607231Y454179D01*
G37*
%LPD*%
%LPC*%
G36*
X581831Y454179D02*
X581831Y454179D01*
X577453Y455993D01*
X574103Y459343D01*
X572289Y463721D01*
X572289Y468459D01*
X574103Y472837D01*
X577453Y476187D01*
X581831Y478001D01*
X586569Y478001D01*
X590947Y476187D01*
X594297Y472837D01*
X596111Y468459D01*
X596111Y463721D01*
X594297Y459343D01*
X590947Y455993D01*
X586569Y454179D01*
X581831Y454179D01*
G37*
%LPD*%
%LPC*%
G36*
X556431Y454179D02*
X556431Y454179D01*
X552053Y455993D01*
X548703Y459343D01*
X546889Y463721D01*
X546889Y468459D01*
X548703Y472837D01*
X552053Y476187D01*
X556431Y478001D01*
X561169Y478001D01*
X565547Y476187D01*
X568897Y472837D01*
X570711Y468459D01*
X570711Y463721D01*
X568897Y459343D01*
X565547Y455993D01*
X561169Y454179D01*
X556431Y454179D01*
G37*
%LPD*%
%LPC*%
G36*
X531031Y454179D02*
X531031Y454179D01*
X526653Y455993D01*
X523303Y459343D01*
X521489Y463721D01*
X521489Y468459D01*
X523303Y472837D01*
X526653Y476187D01*
X531031Y478001D01*
X535769Y478001D01*
X540147Y476187D01*
X543497Y472837D01*
X545311Y468459D01*
X545311Y463721D01*
X543497Y459343D01*
X540147Y455993D01*
X535769Y454179D01*
X531031Y454179D01*
G37*
%LPD*%
%LPC*%
G36*
X353231Y454179D02*
X353231Y454179D01*
X348853Y455993D01*
X345503Y459343D01*
X343689Y463721D01*
X343689Y468459D01*
X345503Y472837D01*
X348853Y476187D01*
X353231Y478001D01*
X357969Y478001D01*
X362347Y476187D01*
X365697Y472837D01*
X367511Y468459D01*
X367511Y463721D01*
X365697Y459343D01*
X362347Y455993D01*
X357969Y454179D01*
X353231Y454179D01*
G37*
%LPD*%
%LPC*%
G36*
X327831Y454179D02*
X327831Y454179D01*
X323453Y455993D01*
X320103Y459343D01*
X318289Y463721D01*
X318289Y468459D01*
X320103Y472837D01*
X323453Y476187D01*
X327831Y478001D01*
X332569Y478001D01*
X336947Y476187D01*
X340297Y472837D01*
X342111Y468459D01*
X342111Y463721D01*
X340297Y459343D01*
X336947Y455993D01*
X332569Y454179D01*
X327831Y454179D01*
G37*
%LPD*%
%LPC*%
G36*
X454831Y454179D02*
X454831Y454179D01*
X450453Y455993D01*
X447103Y459343D01*
X445289Y463721D01*
X445289Y468459D01*
X447103Y472837D01*
X450453Y476187D01*
X454831Y478001D01*
X459569Y478001D01*
X463947Y476187D01*
X467297Y472837D01*
X469111Y468459D01*
X469111Y463721D01*
X467297Y459343D01*
X463947Y455993D01*
X459569Y454179D01*
X454831Y454179D01*
G37*
%LPD*%
%LPC*%
G36*
X429431Y454179D02*
X429431Y454179D01*
X425053Y455993D01*
X421703Y459343D01*
X419889Y463721D01*
X419889Y468459D01*
X421703Y472837D01*
X425053Y476187D01*
X429431Y478001D01*
X434169Y478001D01*
X438547Y476187D01*
X441897Y472837D01*
X443711Y468459D01*
X443711Y463721D01*
X441897Y459343D01*
X438547Y455993D01*
X434169Y454179D01*
X429431Y454179D01*
G37*
%LPD*%
%LPC*%
G36*
X404031Y454179D02*
X404031Y454179D01*
X399653Y455993D01*
X396303Y459343D01*
X394489Y463721D01*
X394489Y468459D01*
X396303Y472837D01*
X399653Y476187D01*
X404031Y478001D01*
X408769Y478001D01*
X413147Y476187D01*
X416497Y472837D01*
X418311Y468459D01*
X418311Y463721D01*
X416497Y459343D01*
X413147Y455993D01*
X408769Y454179D01*
X404031Y454179D01*
G37*
%LPD*%
%LPC*%
G36*
X378631Y454179D02*
X378631Y454179D01*
X374253Y455993D01*
X370903Y459343D01*
X369089Y463721D01*
X369089Y468459D01*
X370903Y472837D01*
X374253Y476187D01*
X378631Y478001D01*
X383369Y478001D01*
X387747Y476187D01*
X391097Y472837D01*
X392911Y468459D01*
X392911Y463721D01*
X391097Y459343D01*
X387747Y455993D01*
X383369Y454179D01*
X378631Y454179D01*
G37*
%LPD*%
%LPC*%
G36*
X73831Y454179D02*
X73831Y454179D01*
X69453Y455993D01*
X66103Y459343D01*
X64289Y463721D01*
X64289Y468459D01*
X66103Y472837D01*
X69453Y476187D01*
X73831Y478001D01*
X78569Y478001D01*
X82947Y476187D01*
X86297Y472837D01*
X88111Y468459D01*
X88111Y463721D01*
X86297Y459343D01*
X82947Y455993D01*
X78569Y454179D01*
X73831Y454179D01*
G37*
%LPD*%
%LPC*%
G36*
X48431Y454179D02*
X48431Y454179D01*
X44053Y455993D01*
X40703Y459343D01*
X38889Y463721D01*
X38889Y468459D01*
X40703Y472837D01*
X44053Y476187D01*
X48431Y478001D01*
X53169Y478001D01*
X57547Y476187D01*
X60897Y472837D01*
X62711Y468459D01*
X62711Y463721D01*
X60897Y459343D01*
X57547Y455993D01*
X53169Y454179D01*
X48431Y454179D01*
G37*
%LPD*%
%LPC*%
G36*
X302431Y454179D02*
X302431Y454179D01*
X298053Y455993D01*
X294703Y459343D01*
X292889Y463721D01*
X292889Y468459D01*
X294703Y472837D01*
X298053Y476187D01*
X302431Y478001D01*
X307169Y478001D01*
X311547Y476187D01*
X314897Y472837D01*
X316711Y468459D01*
X316711Y463721D01*
X314897Y459343D01*
X311547Y455993D01*
X307169Y454179D01*
X302431Y454179D01*
G37*
%LPD*%
%LPC*%
G36*
X277031Y454179D02*
X277031Y454179D01*
X272653Y455993D01*
X269303Y459343D01*
X267489Y463721D01*
X267489Y468459D01*
X269303Y472837D01*
X272653Y476187D01*
X277031Y478001D01*
X281769Y478001D01*
X286147Y476187D01*
X289497Y472837D01*
X291311Y468459D01*
X291311Y463721D01*
X289497Y459343D01*
X286147Y455993D01*
X281769Y454179D01*
X277031Y454179D01*
G37*
%LPD*%
%LPC*%
G36*
X251631Y454179D02*
X251631Y454179D01*
X247253Y455993D01*
X243903Y459343D01*
X242089Y463721D01*
X242089Y468459D01*
X243903Y472837D01*
X247253Y476187D01*
X251631Y478001D01*
X256369Y478001D01*
X260747Y476187D01*
X264097Y472837D01*
X265911Y468459D01*
X265911Y463721D01*
X264097Y459343D01*
X260747Y455993D01*
X256369Y454179D01*
X251631Y454179D01*
G37*
%LPD*%
%LPC*%
G36*
X226231Y454179D02*
X226231Y454179D01*
X221853Y455993D01*
X218503Y459343D01*
X216689Y463721D01*
X216689Y468459D01*
X218503Y472837D01*
X221853Y476187D01*
X226231Y478001D01*
X230969Y478001D01*
X235347Y476187D01*
X238697Y472837D01*
X240511Y468459D01*
X240511Y463721D01*
X238697Y459343D01*
X235347Y455993D01*
X230969Y454179D01*
X226231Y454179D01*
G37*
%LPD*%
%LPC*%
G36*
X200831Y454179D02*
X200831Y454179D01*
X196453Y455993D01*
X193103Y459343D01*
X191289Y463721D01*
X191289Y468459D01*
X193103Y472837D01*
X196453Y476187D01*
X200831Y478001D01*
X205569Y478001D01*
X209947Y476187D01*
X213297Y472837D01*
X215111Y468459D01*
X215111Y463721D01*
X213297Y459343D01*
X209947Y455993D01*
X205569Y454179D01*
X200831Y454179D01*
G37*
%LPD*%
%LPC*%
G36*
X175431Y454179D02*
X175431Y454179D01*
X171053Y455993D01*
X167703Y459343D01*
X165889Y463721D01*
X165889Y468459D01*
X167703Y472837D01*
X171053Y476187D01*
X175431Y478001D01*
X180169Y478001D01*
X184547Y476187D01*
X187897Y472837D01*
X189711Y468459D01*
X189711Y463721D01*
X187897Y459343D01*
X184547Y455993D01*
X180169Y454179D01*
X175431Y454179D01*
G37*
%LPD*%
%LPC*%
G36*
X150031Y454179D02*
X150031Y454179D01*
X145653Y455993D01*
X142303Y459343D01*
X140489Y463721D01*
X140489Y468459D01*
X142303Y472837D01*
X145653Y476187D01*
X150031Y478001D01*
X154769Y478001D01*
X159147Y476187D01*
X162497Y472837D01*
X164311Y468459D01*
X164311Y463721D01*
X162497Y459343D01*
X159147Y455993D01*
X154769Y454179D01*
X150031Y454179D01*
G37*
%LPD*%
%LPC*%
G36*
X124631Y454179D02*
X124631Y454179D01*
X120253Y455993D01*
X116903Y459343D01*
X115089Y463721D01*
X115089Y468459D01*
X116903Y472837D01*
X120253Y476187D01*
X124631Y478001D01*
X129369Y478001D01*
X133747Y476187D01*
X137097Y472837D01*
X138911Y468459D01*
X138911Y463721D01*
X137097Y459343D01*
X133747Y455993D01*
X129369Y454179D01*
X124631Y454179D01*
G37*
%LPD*%
%LPC*%
G36*
X99231Y454179D02*
X99231Y454179D01*
X94853Y455993D01*
X91503Y459343D01*
X89689Y463721D01*
X89689Y468459D01*
X91503Y472837D01*
X94853Y476187D01*
X99231Y478001D01*
X103969Y478001D01*
X108347Y476187D01*
X111697Y472837D01*
X113511Y468459D01*
X113511Y463721D01*
X111697Y459343D01*
X108347Y455993D01*
X103969Y454179D01*
X99231Y454179D01*
G37*
%LPD*%
%LPC*%
G36*
X217341Y418619D02*
X217341Y418619D01*
X212963Y420433D01*
X209613Y423783D01*
X207799Y428161D01*
X207799Y432899D01*
X209613Y437277D01*
X212963Y440627D01*
X217341Y442441D01*
X222079Y442441D01*
X226457Y440627D01*
X229807Y437277D01*
X231621Y432899D01*
X231621Y428161D01*
X229807Y423783D01*
X226457Y420433D01*
X222079Y418619D01*
X217341Y418619D01*
G37*
%LPD*%
%LPC*%
G36*
X218611Y376709D02*
X218611Y376709D01*
X214233Y378523D01*
X210883Y381873D01*
X209069Y386251D01*
X209069Y390989D01*
X210883Y395367D01*
X214233Y398717D01*
X218611Y400531D01*
X223349Y400531D01*
X227727Y398717D01*
X231077Y395367D01*
X232891Y390989D01*
X232891Y386251D01*
X231077Y381873D01*
X227727Y378523D01*
X223349Y376709D01*
X218611Y376709D01*
G37*
%LPD*%
%LPC*%
G36*
X219881Y333529D02*
X219881Y333529D01*
X215503Y335343D01*
X212153Y338693D01*
X210339Y343071D01*
X210339Y347809D01*
X212153Y352187D01*
X215503Y355537D01*
X219881Y357351D01*
X224619Y357351D01*
X228997Y355537D01*
X232347Y352187D01*
X234161Y347809D01*
X234161Y343071D01*
X232347Y338693D01*
X228997Y335343D01*
X224619Y333529D01*
X219881Y333529D01*
G37*
%LPD*%
%LPC*%
G36*
X480231Y106199D02*
X480231Y106199D01*
X475853Y108013D01*
X472503Y111363D01*
X470689Y115741D01*
X470689Y120479D01*
X472503Y124857D01*
X475853Y128207D01*
X480231Y130021D01*
X484969Y130021D01*
X489347Y128207D01*
X492697Y124857D01*
X494511Y120479D01*
X494511Y115741D01*
X492697Y111363D01*
X489347Y108013D01*
X484969Y106199D01*
X480231Y106199D01*
G37*
%LPD*%
%LPC*%
G36*
X150031Y106199D02*
X150031Y106199D01*
X145653Y108013D01*
X142303Y111363D01*
X140489Y115741D01*
X140489Y120479D01*
X142303Y124857D01*
X145653Y128207D01*
X150031Y130021D01*
X154769Y130021D01*
X159147Y128207D01*
X162497Y124857D01*
X164311Y120479D01*
X164311Y115741D01*
X162497Y111363D01*
X159147Y108013D01*
X154769Y106199D01*
X150031Y106199D01*
G37*
%LPD*%
%LPC*%
G36*
X99231Y106199D02*
X99231Y106199D01*
X94853Y108013D01*
X91503Y111363D01*
X89689Y115741D01*
X89689Y120479D01*
X91503Y124857D01*
X94853Y128207D01*
X99231Y130021D01*
X103969Y130021D01*
X108347Y128207D01*
X111697Y124857D01*
X113511Y120479D01*
X113511Y115741D01*
X111697Y111363D01*
X108347Y108013D01*
X103969Y106199D01*
X99231Y106199D01*
G37*
%LPD*%
%LPC*%
G36*
X73831Y106199D02*
X73831Y106199D01*
X69453Y108013D01*
X66103Y111363D01*
X64289Y115741D01*
X64289Y120479D01*
X66103Y124857D01*
X69453Y128207D01*
X73831Y130021D01*
X78569Y130021D01*
X82947Y128207D01*
X86297Y124857D01*
X88111Y120479D01*
X88111Y115741D01*
X86297Y111363D01*
X82947Y108013D01*
X78569Y106199D01*
X73831Y106199D01*
G37*
%LPD*%
%LPC*%
G36*
X48431Y106199D02*
X48431Y106199D01*
X44053Y108013D01*
X40703Y111363D01*
X38889Y115741D01*
X38889Y120479D01*
X40703Y124857D01*
X44053Y128207D01*
X48431Y130021D01*
X53169Y130021D01*
X57547Y128207D01*
X60897Y124857D01*
X62711Y120479D01*
X62711Y115741D01*
X60897Y111363D01*
X57547Y108013D01*
X53169Y106199D01*
X48431Y106199D01*
G37*
%LPD*%
%LPC*%
G36*
X351812Y534415D02*
X351812Y534415D01*
X346455Y539772D01*
X346455Y547348D01*
X351812Y552705D01*
X359388Y552705D01*
X364745Y547348D01*
X364745Y539772D01*
X359388Y534415D01*
X351812Y534415D01*
G37*
%LPD*%
%LPC*%
G36*
X326412Y534415D02*
X326412Y534415D01*
X321055Y539772D01*
X321055Y547348D01*
X326412Y552705D01*
X333988Y552705D01*
X339345Y547348D01*
X339345Y539772D01*
X333988Y534415D01*
X326412Y534415D01*
G37*
%LPD*%
%LPC*%
G36*
X605812Y534415D02*
X605812Y534415D01*
X600455Y539772D01*
X600455Y547348D01*
X605812Y552705D01*
X613388Y552705D01*
X618745Y547348D01*
X618745Y539772D01*
X613388Y534415D01*
X605812Y534415D01*
G37*
%LPD*%
%LPC*%
G36*
X580412Y534415D02*
X580412Y534415D01*
X575055Y539772D01*
X575055Y547348D01*
X580412Y552705D01*
X587988Y552705D01*
X593345Y547348D01*
X593345Y539772D01*
X587988Y534415D01*
X580412Y534415D01*
G37*
%LPD*%
%LPC*%
G36*
X555012Y534415D02*
X555012Y534415D01*
X549655Y539772D01*
X549655Y547348D01*
X555012Y552705D01*
X562588Y552705D01*
X567945Y547348D01*
X567945Y539772D01*
X562588Y534415D01*
X555012Y534415D01*
G37*
%LPD*%
%LPC*%
G36*
X529612Y534415D02*
X529612Y534415D01*
X524255Y539772D01*
X524255Y547348D01*
X529612Y552705D01*
X537188Y552705D01*
X542545Y547348D01*
X542545Y539772D01*
X537188Y534415D01*
X529612Y534415D01*
G37*
%LPD*%
%LPC*%
G36*
X504212Y534415D02*
X504212Y534415D01*
X498855Y539772D01*
X498855Y547348D01*
X504212Y552705D01*
X511788Y552705D01*
X517145Y547348D01*
X517145Y539772D01*
X511788Y534415D01*
X504212Y534415D01*
G37*
%LPD*%
%LPC*%
G36*
X478812Y534415D02*
X478812Y534415D01*
X473455Y539772D01*
X473455Y547348D01*
X478812Y552705D01*
X486388Y552705D01*
X491745Y547348D01*
X491745Y539772D01*
X486388Y534415D01*
X478812Y534415D01*
G37*
%LPD*%
%LPC*%
G36*
X453412Y534415D02*
X453412Y534415D01*
X448055Y539772D01*
X448055Y547348D01*
X453412Y552705D01*
X460988Y552705D01*
X466345Y547348D01*
X466345Y539772D01*
X460988Y534415D01*
X453412Y534415D01*
G37*
%LPD*%
%LPC*%
G36*
X428012Y534415D02*
X428012Y534415D01*
X422655Y539772D01*
X422655Y547348D01*
X428012Y552705D01*
X435588Y552705D01*
X440945Y547348D01*
X440945Y539772D01*
X435588Y534415D01*
X428012Y534415D01*
G37*
%LPD*%
%LPC*%
G36*
X402612Y534415D02*
X402612Y534415D01*
X397255Y539772D01*
X397255Y547348D01*
X402612Y552705D01*
X410188Y552705D01*
X415545Y547348D01*
X415545Y539772D01*
X410188Y534415D01*
X402612Y534415D01*
G37*
%LPD*%
%LPC*%
G36*
X377212Y534415D02*
X377212Y534415D01*
X371855Y539772D01*
X371855Y547348D01*
X377212Y552705D01*
X384788Y552705D01*
X390145Y547348D01*
X390145Y539772D01*
X384788Y534415D01*
X377212Y534415D01*
G37*
%LPD*%
%LPC*%
G36*
X72412Y534415D02*
X72412Y534415D01*
X67055Y539772D01*
X67055Y547348D01*
X72412Y552705D01*
X79988Y552705D01*
X85345Y547348D01*
X85345Y539772D01*
X79988Y534415D01*
X72412Y534415D01*
G37*
%LPD*%
%LPC*%
G36*
X47012Y534415D02*
X47012Y534415D01*
X41655Y539772D01*
X41655Y547348D01*
X47012Y552705D01*
X54588Y552705D01*
X59945Y547348D01*
X59945Y539772D01*
X54588Y534415D01*
X47012Y534415D01*
G37*
%LPD*%
%LPC*%
G36*
X301012Y534415D02*
X301012Y534415D01*
X295655Y539772D01*
X295655Y547348D01*
X301012Y552705D01*
X308588Y552705D01*
X313945Y547348D01*
X313945Y539772D01*
X308588Y534415D01*
X301012Y534415D01*
G37*
%LPD*%
%LPC*%
G36*
X275612Y534415D02*
X275612Y534415D01*
X270255Y539772D01*
X270255Y547348D01*
X275612Y552705D01*
X283188Y552705D01*
X288545Y547348D01*
X288545Y539772D01*
X283188Y534415D01*
X275612Y534415D01*
G37*
%LPD*%
%LPC*%
G36*
X250212Y534415D02*
X250212Y534415D01*
X244855Y539772D01*
X244855Y547348D01*
X250212Y552705D01*
X257788Y552705D01*
X263145Y547348D01*
X263145Y539772D01*
X257788Y534415D01*
X250212Y534415D01*
G37*
%LPD*%
%LPC*%
G36*
X224812Y534415D02*
X224812Y534415D01*
X219455Y539772D01*
X219455Y547348D01*
X224812Y552705D01*
X232388Y552705D01*
X237745Y547348D01*
X237745Y539772D01*
X232388Y534415D01*
X224812Y534415D01*
G37*
%LPD*%
%LPC*%
G36*
X199412Y534415D02*
X199412Y534415D01*
X194055Y539772D01*
X194055Y547348D01*
X199412Y552705D01*
X206988Y552705D01*
X212345Y547348D01*
X212345Y539772D01*
X206988Y534415D01*
X199412Y534415D01*
G37*
%LPD*%
%LPC*%
G36*
X174012Y534415D02*
X174012Y534415D01*
X168655Y539772D01*
X168655Y547348D01*
X174012Y552705D01*
X181588Y552705D01*
X186945Y547348D01*
X186945Y539772D01*
X181588Y534415D01*
X174012Y534415D01*
G37*
%LPD*%
%LPC*%
G36*
X148612Y534415D02*
X148612Y534415D01*
X143255Y539772D01*
X143255Y547348D01*
X148612Y552705D01*
X156188Y552705D01*
X161545Y547348D01*
X161545Y539772D01*
X156188Y534415D01*
X148612Y534415D01*
G37*
%LPD*%
%LPC*%
G36*
X123212Y534415D02*
X123212Y534415D01*
X117855Y539772D01*
X117855Y547348D01*
X123212Y552705D01*
X130788Y552705D01*
X136145Y547348D01*
X136145Y539772D01*
X130788Y534415D01*
X123212Y534415D01*
G37*
%LPD*%
%LPC*%
G36*
X97812Y534415D02*
X97812Y534415D01*
X92455Y539772D01*
X92455Y547348D01*
X97812Y552705D01*
X105388Y552705D01*
X110745Y547348D01*
X110745Y539772D01*
X105388Y534415D01*
X97812Y534415D01*
G37*
%LPD*%
%LPC*%
G36*
X428012Y514095D02*
X428012Y514095D01*
X422655Y519452D01*
X422655Y527028D01*
X428012Y532385D01*
X435588Y532385D01*
X440945Y527028D01*
X440945Y519452D01*
X435588Y514095D01*
X428012Y514095D01*
G37*
%LPD*%
%LPC*%
G36*
X402612Y514095D02*
X402612Y514095D01*
X397255Y519452D01*
X397255Y527028D01*
X402612Y532385D01*
X410188Y532385D01*
X415545Y527028D01*
X415545Y519452D01*
X410188Y514095D01*
X402612Y514095D01*
G37*
%LPD*%
%LPC*%
G36*
X580412Y514095D02*
X580412Y514095D01*
X575055Y519452D01*
X575055Y527028D01*
X580412Y532385D01*
X587988Y532385D01*
X593345Y527028D01*
X593345Y519452D01*
X587988Y514095D01*
X580412Y514095D01*
G37*
%LPD*%
%LPC*%
G36*
X555012Y514095D02*
X555012Y514095D01*
X549655Y519452D01*
X549655Y527028D01*
X555012Y532385D01*
X562588Y532385D01*
X567945Y527028D01*
X567945Y519452D01*
X562588Y514095D01*
X555012Y514095D01*
G37*
%LPD*%
%LPC*%
G36*
X529612Y514095D02*
X529612Y514095D01*
X524255Y519452D01*
X524255Y527028D01*
X529612Y532385D01*
X537188Y532385D01*
X542545Y527028D01*
X542545Y519452D01*
X537188Y514095D01*
X529612Y514095D01*
G37*
%LPD*%
%LPC*%
G36*
X504212Y514095D02*
X504212Y514095D01*
X498855Y519452D01*
X498855Y527028D01*
X504212Y532385D01*
X511788Y532385D01*
X517145Y527028D01*
X517145Y519452D01*
X511788Y514095D01*
X504212Y514095D01*
G37*
%LPD*%
%LPC*%
G36*
X478812Y514095D02*
X478812Y514095D01*
X473455Y519452D01*
X473455Y527028D01*
X478812Y532385D01*
X486388Y532385D01*
X491745Y527028D01*
X491745Y519452D01*
X486388Y514095D01*
X478812Y514095D01*
G37*
%LPD*%
%LPC*%
G36*
X453412Y514095D02*
X453412Y514095D01*
X448055Y519452D01*
X448055Y527028D01*
X453412Y532385D01*
X460988Y532385D01*
X466345Y527028D01*
X466345Y519452D01*
X460988Y514095D01*
X453412Y514095D01*
G37*
%LPD*%
%LPC*%
G36*
X72412Y514095D02*
X72412Y514095D01*
X67055Y519452D01*
X67055Y527028D01*
X72412Y532385D01*
X79988Y532385D01*
X85345Y527028D01*
X85345Y519452D01*
X79988Y514095D01*
X72412Y514095D01*
G37*
%LPD*%
%LPC*%
G36*
X47012Y514095D02*
X47012Y514095D01*
X41655Y519452D01*
X41655Y527028D01*
X47012Y532385D01*
X54588Y532385D01*
X59945Y527028D01*
X59945Y519452D01*
X54588Y514095D01*
X47012Y514095D01*
G37*
%LPD*%
%LPC*%
G36*
X377212Y514095D02*
X377212Y514095D01*
X371855Y519452D01*
X371855Y527028D01*
X377212Y532385D01*
X384788Y532385D01*
X390145Y527028D01*
X390145Y519452D01*
X384788Y514095D01*
X377212Y514095D01*
G37*
%LPD*%
%LPC*%
G36*
X351812Y514095D02*
X351812Y514095D01*
X346455Y519452D01*
X346455Y527028D01*
X351812Y532385D01*
X359388Y532385D01*
X364745Y527028D01*
X364745Y519452D01*
X359388Y514095D01*
X351812Y514095D01*
G37*
%LPD*%
%LPC*%
G36*
X326412Y514095D02*
X326412Y514095D01*
X321055Y519452D01*
X321055Y527028D01*
X326412Y532385D01*
X333988Y532385D01*
X339345Y527028D01*
X339345Y519452D01*
X333988Y514095D01*
X326412Y514095D01*
G37*
%LPD*%
%LPC*%
G36*
X301012Y514095D02*
X301012Y514095D01*
X295655Y519452D01*
X295655Y527028D01*
X301012Y532385D01*
X308588Y532385D01*
X313945Y527028D01*
X313945Y519452D01*
X308588Y514095D01*
X301012Y514095D01*
G37*
%LPD*%
%LPC*%
G36*
X275612Y514095D02*
X275612Y514095D01*
X270255Y519452D01*
X270255Y527028D01*
X275612Y532385D01*
X283188Y532385D01*
X288545Y527028D01*
X288545Y519452D01*
X283188Y514095D01*
X275612Y514095D01*
G37*
%LPD*%
%LPC*%
G36*
X250212Y514095D02*
X250212Y514095D01*
X244855Y519452D01*
X244855Y527028D01*
X250212Y532385D01*
X257788Y532385D01*
X263145Y527028D01*
X263145Y519452D01*
X257788Y514095D01*
X250212Y514095D01*
G37*
%LPD*%
%LPC*%
G36*
X97812Y514095D02*
X97812Y514095D01*
X92455Y519452D01*
X92455Y527028D01*
X97812Y532385D01*
X105388Y532385D01*
X110745Y527028D01*
X110745Y519452D01*
X105388Y514095D01*
X97812Y514095D01*
G37*
%LPD*%
%LPC*%
G36*
X123212Y514095D02*
X123212Y514095D01*
X117855Y519452D01*
X117855Y527028D01*
X123212Y532385D01*
X130788Y532385D01*
X136145Y527028D01*
X136145Y519452D01*
X130788Y514095D01*
X123212Y514095D01*
G37*
%LPD*%
%LPC*%
G36*
X148612Y514095D02*
X148612Y514095D01*
X143255Y519452D01*
X143255Y527028D01*
X148612Y532385D01*
X156188Y532385D01*
X161545Y527028D01*
X161545Y519452D01*
X156188Y514095D01*
X148612Y514095D01*
G37*
%LPD*%
%LPC*%
G36*
X174012Y514095D02*
X174012Y514095D01*
X168655Y519452D01*
X168655Y527028D01*
X174012Y532385D01*
X181588Y532385D01*
X186945Y527028D01*
X186945Y519452D01*
X181588Y514095D01*
X174012Y514095D01*
G37*
%LPD*%
%LPC*%
G36*
X199412Y514095D02*
X199412Y514095D01*
X194055Y519452D01*
X194055Y527028D01*
X199412Y532385D01*
X206988Y532385D01*
X212345Y527028D01*
X212345Y519452D01*
X206988Y514095D01*
X199412Y514095D01*
G37*
%LPD*%
%LPC*%
G36*
X148612Y31495D02*
X148612Y31495D01*
X143255Y36852D01*
X143255Y44428D01*
X148612Y49785D01*
X156188Y49785D01*
X161545Y44428D01*
X161545Y36852D01*
X156188Y31495D01*
X148612Y31495D01*
G37*
%LPD*%
%LPC*%
G36*
X123212Y31495D02*
X123212Y31495D01*
X117855Y36852D01*
X117855Y44428D01*
X123212Y49785D01*
X130788Y49785D01*
X136145Y44428D01*
X136145Y36852D01*
X130788Y31495D01*
X123212Y31495D01*
G37*
%LPD*%
%LPC*%
G36*
X97812Y31495D02*
X97812Y31495D01*
X92455Y36852D01*
X92455Y44428D01*
X97812Y49785D01*
X105388Y49785D01*
X110745Y44428D01*
X110745Y36852D01*
X105388Y31495D01*
X97812Y31495D01*
G37*
%LPD*%
%LPC*%
G36*
X224812Y514095D02*
X224812Y514095D01*
X219455Y519452D01*
X219455Y527028D01*
X224812Y532385D01*
X232388Y532385D01*
X237745Y527028D01*
X237745Y519452D01*
X232388Y514095D01*
X224812Y514095D01*
G37*
%LPD*%
%LPC*%
G36*
X72412Y31495D02*
X72412Y31495D01*
X67055Y36852D01*
X67055Y44428D01*
X72412Y49785D01*
X79988Y49785D01*
X85345Y44428D01*
X85345Y36852D01*
X79988Y31495D01*
X72412Y31495D01*
G37*
%LPD*%
%LPC*%
G36*
X47012Y31495D02*
X47012Y31495D01*
X41655Y36852D01*
X41655Y44428D01*
X47012Y49785D01*
X54588Y49785D01*
X59945Y44428D01*
X59945Y36852D01*
X54588Y31495D01*
X47012Y31495D01*
G37*
%LPD*%
%LPC*%
G36*
X199412Y51815D02*
X199412Y51815D01*
X194055Y57172D01*
X194055Y64748D01*
X199412Y70105D01*
X206988Y70105D01*
X212345Y64748D01*
X212345Y57172D01*
X206988Y51815D01*
X199412Y51815D01*
G37*
%LPD*%
%LPC*%
G36*
X605812Y514095D02*
X605812Y514095D01*
X600455Y519452D01*
X600455Y527028D01*
X605812Y532385D01*
X613388Y532385D01*
X618745Y527028D01*
X618745Y519452D01*
X613388Y514095D01*
X605812Y514095D01*
G37*
%LPD*%
%LPC*%
G36*
X351812Y51815D02*
X351812Y51815D01*
X346455Y57172D01*
X346455Y64748D01*
X351812Y70105D01*
X359388Y70105D01*
X364745Y64748D01*
X364745Y57172D01*
X359388Y51815D01*
X351812Y51815D01*
G37*
%LPD*%
%LPC*%
G36*
X301012Y51815D02*
X301012Y51815D01*
X295655Y57172D01*
X295655Y64748D01*
X301012Y70105D01*
X308588Y70105D01*
X313945Y64748D01*
X313945Y57172D01*
X308588Y51815D01*
X301012Y51815D01*
G37*
%LPD*%
%LPC*%
G36*
X275612Y51815D02*
X275612Y51815D01*
X270255Y57172D01*
X270255Y64748D01*
X275612Y70105D01*
X283188Y70105D01*
X288545Y64748D01*
X288545Y57172D01*
X283188Y51815D01*
X275612Y51815D01*
G37*
%LPD*%
%LPC*%
G36*
X250212Y51815D02*
X250212Y51815D01*
X244855Y57172D01*
X244855Y64748D01*
X250212Y70105D01*
X257788Y70105D01*
X263145Y64748D01*
X263145Y57172D01*
X257788Y51815D01*
X250212Y51815D01*
G37*
%LPD*%
%LPC*%
G36*
X224812Y51815D02*
X224812Y51815D01*
X219455Y57172D01*
X219455Y64748D01*
X224812Y70105D01*
X232388Y70105D01*
X237745Y64748D01*
X237745Y57172D01*
X232388Y51815D01*
X224812Y51815D01*
G37*
%LPD*%
%LPC*%
G36*
X174012Y51815D02*
X174012Y51815D01*
X168655Y57172D01*
X168655Y64748D01*
X174012Y70105D01*
X181588Y70105D01*
X186945Y64748D01*
X186945Y57172D01*
X181588Y51815D01*
X174012Y51815D01*
G37*
%LPD*%
%LPC*%
G36*
X148612Y51815D02*
X148612Y51815D01*
X143255Y57172D01*
X143255Y64748D01*
X148612Y70105D01*
X156188Y70105D01*
X161545Y64748D01*
X161545Y57172D01*
X156188Y51815D01*
X148612Y51815D01*
G37*
%LPD*%
%LPC*%
G36*
X123212Y51815D02*
X123212Y51815D01*
X117855Y57172D01*
X117855Y64748D01*
X123212Y70105D01*
X130788Y70105D01*
X136145Y64748D01*
X136145Y57172D01*
X130788Y51815D01*
X123212Y51815D01*
G37*
%LPD*%
%LPC*%
G36*
X97812Y51815D02*
X97812Y51815D01*
X92455Y57172D01*
X92455Y64748D01*
X97812Y70105D01*
X105388Y70105D01*
X110745Y64748D01*
X110745Y57172D01*
X105388Y51815D01*
X97812Y51815D01*
G37*
%LPD*%
%LPC*%
G36*
X72412Y51815D02*
X72412Y51815D01*
X67055Y57172D01*
X67055Y64748D01*
X72412Y70105D01*
X79988Y70105D01*
X85345Y64748D01*
X85345Y57172D01*
X79988Y51815D01*
X72412Y51815D01*
G37*
%LPD*%
%LPC*%
G36*
X47012Y51815D02*
X47012Y51815D01*
X41655Y57172D01*
X41655Y64748D01*
X47012Y70105D01*
X54588Y70105D01*
X59945Y64748D01*
X59945Y57172D01*
X54588Y51815D01*
X47012Y51815D01*
G37*
%LPD*%
%LPC*%
G36*
X605812Y51815D02*
X605812Y51815D01*
X600455Y57172D01*
X600455Y64748D01*
X605812Y70105D01*
X613388Y70105D01*
X618745Y64748D01*
X618745Y57172D01*
X613388Y51815D01*
X605812Y51815D01*
G37*
%LPD*%
%LPC*%
G36*
X580412Y51815D02*
X580412Y51815D01*
X575055Y57172D01*
X575055Y64748D01*
X580412Y70105D01*
X587988Y70105D01*
X593345Y64748D01*
X593345Y57172D01*
X587988Y51815D01*
X580412Y51815D01*
G37*
%LPD*%
%LPC*%
G36*
X555012Y51815D02*
X555012Y51815D01*
X549655Y57172D01*
X549655Y64748D01*
X555012Y70105D01*
X562588Y70105D01*
X567945Y64748D01*
X567945Y57172D01*
X562588Y51815D01*
X555012Y51815D01*
G37*
%LPD*%
%LPC*%
G36*
X529612Y51815D02*
X529612Y51815D01*
X524255Y57172D01*
X524255Y64748D01*
X529612Y70105D01*
X537188Y70105D01*
X542545Y64748D01*
X542545Y57172D01*
X537188Y51815D01*
X529612Y51815D01*
G37*
%LPD*%
%LPC*%
G36*
X504212Y51815D02*
X504212Y51815D01*
X498855Y57172D01*
X498855Y64748D01*
X504212Y70105D01*
X511788Y70105D01*
X517145Y64748D01*
X517145Y57172D01*
X511788Y51815D01*
X504212Y51815D01*
G37*
%LPD*%
%LPC*%
G36*
X478812Y51815D02*
X478812Y51815D01*
X473455Y57172D01*
X473455Y64748D01*
X478812Y70105D01*
X486388Y70105D01*
X491745Y64748D01*
X491745Y57172D01*
X486388Y51815D01*
X478812Y51815D01*
G37*
%LPD*%
%LPC*%
G36*
X453412Y51815D02*
X453412Y51815D01*
X448055Y57172D01*
X448055Y64748D01*
X453412Y70105D01*
X460988Y70105D01*
X466345Y64748D01*
X466345Y57172D01*
X460988Y51815D01*
X453412Y51815D01*
G37*
%LPD*%
%LPC*%
G36*
X428012Y51815D02*
X428012Y51815D01*
X422655Y57172D01*
X422655Y64748D01*
X428012Y70105D01*
X435588Y70105D01*
X440945Y64748D01*
X440945Y57172D01*
X435588Y51815D01*
X428012Y51815D01*
G37*
%LPD*%
%LPC*%
G36*
X402612Y51815D02*
X402612Y51815D01*
X397255Y57172D01*
X397255Y64748D01*
X402612Y70105D01*
X410188Y70105D01*
X415545Y64748D01*
X415545Y57172D01*
X410188Y51815D01*
X402612Y51815D01*
G37*
%LPD*%
%LPC*%
G36*
X377212Y51815D02*
X377212Y51815D01*
X371855Y57172D01*
X371855Y64748D01*
X377212Y70105D01*
X384788Y70105D01*
X390145Y64748D01*
X390145Y57172D01*
X384788Y51815D01*
X377212Y51815D01*
G37*
%LPD*%
%LPC*%
G36*
X605812Y31495D02*
X605812Y31495D01*
X600455Y36852D01*
X600455Y44428D01*
X605812Y49785D01*
X613388Y49785D01*
X618745Y44428D01*
X618745Y36852D01*
X613388Y31495D01*
X605812Y31495D01*
G37*
%LPD*%
%LPC*%
G36*
X580412Y31495D02*
X580412Y31495D01*
X575055Y36852D01*
X575055Y44428D01*
X580412Y49785D01*
X587988Y49785D01*
X593345Y44428D01*
X593345Y36852D01*
X587988Y31495D01*
X580412Y31495D01*
G37*
%LPD*%
%LPC*%
G36*
X555012Y31495D02*
X555012Y31495D01*
X549655Y36852D01*
X549655Y44428D01*
X555012Y49785D01*
X562588Y49785D01*
X567945Y44428D01*
X567945Y36852D01*
X562588Y31495D01*
X555012Y31495D01*
G37*
%LPD*%
%LPC*%
G36*
X529612Y31495D02*
X529612Y31495D01*
X524255Y36852D01*
X524255Y44428D01*
X529612Y49785D01*
X537188Y49785D01*
X542545Y44428D01*
X542545Y36852D01*
X537188Y31495D01*
X529612Y31495D01*
G37*
%LPD*%
%LPC*%
G36*
X504212Y31495D02*
X504212Y31495D01*
X498855Y36852D01*
X498855Y44428D01*
X504212Y49785D01*
X511788Y49785D01*
X517145Y44428D01*
X517145Y36852D01*
X511788Y31495D01*
X504212Y31495D01*
G37*
%LPD*%
%LPC*%
G36*
X478812Y31495D02*
X478812Y31495D01*
X473455Y36852D01*
X473455Y44428D01*
X478812Y49785D01*
X486388Y49785D01*
X491745Y44428D01*
X491745Y36852D01*
X486388Y31495D01*
X478812Y31495D01*
G37*
%LPD*%
%LPC*%
G36*
X453412Y31495D02*
X453412Y31495D01*
X448055Y36852D01*
X448055Y44428D01*
X453412Y49785D01*
X460988Y49785D01*
X466345Y44428D01*
X466345Y36852D01*
X460988Y31495D01*
X453412Y31495D01*
G37*
%LPD*%
%LPC*%
G36*
X428012Y31495D02*
X428012Y31495D01*
X422655Y36852D01*
X422655Y44428D01*
X428012Y49785D01*
X435588Y49785D01*
X440945Y44428D01*
X440945Y36852D01*
X435588Y31495D01*
X428012Y31495D01*
G37*
%LPD*%
%LPC*%
G36*
X402612Y31495D02*
X402612Y31495D01*
X397255Y36852D01*
X397255Y44428D01*
X402612Y49785D01*
X410188Y49785D01*
X415545Y44428D01*
X415545Y36852D01*
X410188Y31495D01*
X402612Y31495D01*
G37*
%LPD*%
%LPC*%
G36*
X377212Y31495D02*
X377212Y31495D01*
X371855Y36852D01*
X371855Y44428D01*
X377212Y49785D01*
X384788Y49785D01*
X390145Y44428D01*
X390145Y36852D01*
X384788Y31495D01*
X377212Y31495D01*
G37*
%LPD*%
%LPC*%
G36*
X351812Y31495D02*
X351812Y31495D01*
X346455Y36852D01*
X346455Y44428D01*
X351812Y49785D01*
X359388Y49785D01*
X364745Y44428D01*
X364745Y36852D01*
X359388Y31495D01*
X351812Y31495D01*
G37*
%LPD*%
%LPC*%
G36*
X301012Y31495D02*
X301012Y31495D01*
X295655Y36852D01*
X295655Y44428D01*
X301012Y49785D01*
X308588Y49785D01*
X313945Y44428D01*
X313945Y36852D01*
X308588Y31495D01*
X301012Y31495D01*
G37*
%LPD*%
%LPC*%
G36*
X275612Y31495D02*
X275612Y31495D01*
X270255Y36852D01*
X270255Y44428D01*
X275612Y49785D01*
X283188Y49785D01*
X288545Y44428D01*
X288545Y36852D01*
X283188Y31495D01*
X275612Y31495D01*
G37*
%LPD*%
%LPC*%
G36*
X250212Y31495D02*
X250212Y31495D01*
X244855Y36852D01*
X244855Y44428D01*
X250212Y49785D01*
X257788Y49785D01*
X263145Y44428D01*
X263145Y36852D01*
X257788Y31495D01*
X250212Y31495D01*
G37*
%LPD*%
%LPC*%
G36*
X224812Y31495D02*
X224812Y31495D01*
X219455Y36852D01*
X219455Y44428D01*
X224812Y49785D01*
X232388Y49785D01*
X237745Y44428D01*
X237745Y36852D01*
X232388Y31495D01*
X224812Y31495D01*
G37*
%LPD*%
%LPC*%
G36*
X199412Y31495D02*
X199412Y31495D01*
X194055Y36852D01*
X194055Y44428D01*
X199412Y49785D01*
X206988Y49785D01*
X212345Y44428D01*
X212345Y36852D01*
X206988Y31495D01*
X199412Y31495D01*
G37*
%LPD*%
%LPC*%
G36*
X174012Y31495D02*
X174012Y31495D01*
X168655Y36852D01*
X168655Y44428D01*
X174012Y49785D01*
X181588Y49785D01*
X186945Y44428D01*
X186945Y36852D01*
X181588Y31495D01*
X174012Y31495D01*
G37*
%LPD*%
%LPC*%
G36*
X129773Y145033D02*
X129773Y145033D01*
X124713Y150093D01*
X124713Y157247D01*
X129773Y162307D01*
X136927Y162307D01*
X141987Y157247D01*
X141987Y150093D01*
X136927Y145033D01*
X129773Y145033D01*
G37*
%LPD*%
%LPC*%
G36*
X53573Y145033D02*
X53573Y145033D01*
X48513Y150093D01*
X48513Y157247D01*
X53573Y162307D01*
X60727Y162307D01*
X65787Y157247D01*
X65787Y150093D01*
X60727Y145033D01*
X53573Y145033D01*
G37*
%LPD*%
%LPC*%
G36*
X322813Y247903D02*
X322813Y247903D01*
X317753Y252963D01*
X317753Y260117D01*
X322813Y265177D01*
X329967Y265177D01*
X335027Y260117D01*
X335027Y252963D01*
X329967Y247903D01*
X322813Y247903D01*
G37*
%LPD*%
%LPC*%
G36*
X114533Y335533D02*
X114533Y335533D01*
X109473Y340593D01*
X109473Y347747D01*
X114533Y352807D01*
X121687Y352807D01*
X126747Y347747D01*
X126747Y340593D01*
X121687Y335533D01*
X114533Y335533D01*
G37*
%LPD*%
%LPC*%
G36*
X190733Y335533D02*
X190733Y335533D01*
X185673Y340593D01*
X185673Y347747D01*
X190733Y352807D01*
X197887Y352807D01*
X202947Y347747D01*
X202947Y340593D01*
X197887Y335533D01*
X190733Y335533D01*
G37*
%LPD*%
%LPC*%
G36*
X189463Y421893D02*
X189463Y421893D01*
X184403Y426953D01*
X184403Y434107D01*
X189463Y439167D01*
X196617Y439167D01*
X201677Y434107D01*
X201677Y426953D01*
X196617Y421893D01*
X189463Y421893D01*
G37*
%LPD*%
%LPC*%
G36*
X192003Y379983D02*
X192003Y379983D01*
X186943Y385043D01*
X186943Y392197D01*
X192003Y397257D01*
X199157Y397257D01*
X204217Y392197D01*
X204217Y385043D01*
X199157Y379983D01*
X192003Y379983D01*
G37*
%LPD*%
%LPC*%
G36*
X246613Y247903D02*
X246613Y247903D01*
X241553Y252963D01*
X241553Y260117D01*
X246613Y265177D01*
X253767Y265177D01*
X258827Y260117D01*
X258827Y252963D01*
X253767Y247903D01*
X246613Y247903D01*
G37*
%LPD*%
%LPC*%
G36*
X115803Y379983D02*
X115803Y379983D01*
X110743Y385043D01*
X110743Y392197D01*
X115803Y397257D01*
X122957Y397257D01*
X128017Y392197D01*
X128017Y385043D01*
X122957Y379983D01*
X115803Y379983D01*
G37*
%LPD*%
%LPC*%
G36*
X113263Y421893D02*
X113263Y421893D01*
X108203Y426953D01*
X108203Y434107D01*
X113263Y439167D01*
X120417Y439167D01*
X125477Y434107D01*
X125477Y426953D01*
X120417Y421893D01*
X113263Y421893D01*
G37*
%LPD*%
%LPC*%
G36*
X322813Y218693D02*
X322813Y218693D01*
X317753Y223753D01*
X317753Y230907D01*
X322813Y235967D01*
X329967Y235967D01*
X335027Y230907D01*
X335027Y223753D01*
X329967Y218693D01*
X322813Y218693D01*
G37*
%LPD*%
D10*
X50800Y40640D03*
X50800Y60960D03*
X76200Y40640D03*
X76200Y60960D03*
X101600Y40640D03*
X101600Y60960D03*
X127000Y40640D03*
X127000Y60960D03*
X152400Y40640D03*
X152400Y60960D03*
X177800Y40640D03*
X177800Y60960D03*
X203200Y40640D03*
X203200Y60960D03*
X228600Y40640D03*
X228600Y60960D03*
X254000Y40640D03*
X254000Y60960D03*
X279400Y40640D03*
X279400Y60960D03*
X304800Y40640D03*
X304800Y60960D03*
X330200Y40640D03*
X330200Y60960D03*
X355600Y40640D03*
X355600Y60960D03*
X381000Y40640D03*
X381000Y60960D03*
X406400Y40640D03*
X406400Y60960D03*
X431800Y40640D03*
X431800Y60960D03*
X457200Y40640D03*
X457200Y60960D03*
X482600Y40640D03*
X482600Y60960D03*
X508000Y40640D03*
X508000Y60960D03*
X533400Y40640D03*
X533400Y60960D03*
X558800Y40640D03*
X558800Y60960D03*
X584200Y40640D03*
X584200Y60960D03*
X609600Y40640D03*
X609600Y60960D03*
D11*
X194310Y344170D03*
X118110Y344170D03*
D12*
X406400Y466090D03*
X431800Y466090D03*
X457200Y466090D03*
X482600Y466090D03*
X508000Y466090D03*
X533400Y466090D03*
X558800Y466090D03*
X584200Y466090D03*
X609600Y466090D03*
D13*
X139700Y233680D02*
X139700Y218440D01*
X114300Y218440D02*
X114300Y233680D01*
D11*
X193040Y430530D03*
X116840Y430530D03*
D12*
X222250Y345440D03*
X219710Y430530D03*
X220980Y388620D03*
D11*
X195580Y388620D03*
X119380Y388620D03*
D13*
X227330Y187960D02*
X227330Y172720D01*
X201930Y172720D02*
X201930Y187960D01*
X176530Y187960D02*
X176530Y172720D01*
X151130Y172720D02*
X151130Y187960D01*
D11*
X133350Y153670D03*
X57150Y153670D03*
D14*
X250190Y256540D03*
X326390Y256540D03*
X250190Y227330D03*
X326390Y227330D03*
D12*
X50800Y118110D03*
X76200Y118110D03*
X101600Y118110D03*
D10*
X50800Y523240D03*
X50800Y543560D03*
X76200Y523240D03*
X76200Y543560D03*
X101600Y523240D03*
X101600Y543560D03*
X127000Y523240D03*
X127000Y543560D03*
X152400Y523240D03*
X152400Y543560D03*
X177800Y523240D03*
X177800Y543560D03*
X203200Y523240D03*
X203200Y543560D03*
X228600Y523240D03*
X228600Y543560D03*
X254000Y523240D03*
X254000Y543560D03*
X279400Y523240D03*
X279400Y543560D03*
X304800Y523240D03*
X304800Y543560D03*
X330200Y523240D03*
X330200Y543560D03*
X355600Y523240D03*
X355600Y543560D03*
X381000Y523240D03*
X381000Y543560D03*
X406400Y523240D03*
X406400Y543560D03*
X431800Y523240D03*
X431800Y543560D03*
X457200Y523240D03*
X457200Y543560D03*
X482600Y523240D03*
X482600Y543560D03*
X508000Y523240D03*
X508000Y543560D03*
X533400Y523240D03*
X533400Y543560D03*
X558800Y523240D03*
X558800Y543560D03*
X584200Y523240D03*
X584200Y543560D03*
X609600Y523240D03*
X609600Y543560D03*
D12*
X127000Y116840D03*
X152400Y118110D03*
X177800Y118110D03*
X203200Y118110D03*
X228600Y118110D03*
X254000Y118110D03*
X279400Y118110D03*
X304800Y118110D03*
X330200Y118110D03*
X355600Y118110D03*
D13*
X459740Y166370D02*
X474980Y166370D01*
X474980Y191770D02*
X459740Y191770D01*
X459740Y217170D02*
X474980Y217170D01*
X474980Y242570D02*
X459740Y242570D01*
D12*
X381000Y118110D03*
X406400Y118110D03*
X431800Y118110D03*
X457200Y118110D03*
X482600Y118110D03*
X508000Y118110D03*
X533400Y118110D03*
X558800Y118110D03*
X584200Y118110D03*
X609600Y118110D03*
D13*
X441960Y166370D02*
X426720Y166370D01*
X426720Y191770D02*
X441960Y191770D01*
X441960Y217170D02*
X426720Y217170D01*
X426720Y242570D02*
X441960Y242570D01*
D12*
X50800Y86360D03*
X76200Y86360D03*
X101600Y86360D03*
X127000Y86360D03*
X152400Y86360D03*
X177800Y86360D03*
X203200Y86360D03*
X228600Y86360D03*
X254000Y86360D03*
X279400Y86360D03*
D13*
X393700Y166370D02*
X408940Y166370D01*
X408940Y191770D02*
X393700Y191770D01*
X393700Y217170D02*
X408940Y217170D01*
X408940Y242570D02*
X393700Y242570D01*
D12*
X304800Y86360D03*
X330200Y86360D03*
X355600Y86360D03*
X381000Y86360D03*
X406400Y86360D03*
X431800Y86360D03*
X457200Y86360D03*
X482600Y87630D03*
X508000Y86360D03*
X533400Y86360D03*
D13*
X548640Y259080D02*
X548640Y274320D01*
X574040Y274320D02*
X574040Y259080D01*
X599440Y259080D02*
X599440Y274320D01*
D12*
X558800Y86360D03*
X584200Y86360D03*
X609600Y86360D03*
X50800Y495300D03*
X76200Y495300D03*
X101600Y495300D03*
X127000Y495300D03*
X152400Y495300D03*
X177800Y495300D03*
X203200Y495300D03*
D13*
X548640Y236220D02*
X548640Y220980D01*
X574040Y220980D02*
X574040Y236220D01*
X599440Y236220D02*
X599440Y220980D01*
D12*
X228600Y495300D03*
X254000Y495300D03*
X279400Y495300D03*
X304800Y495300D03*
X330200Y495300D03*
X355600Y495300D03*
X381000Y495300D03*
X406400Y495300D03*
X431800Y495300D03*
X457200Y495300D03*
D13*
X548640Y203200D02*
X548640Y187960D01*
X574040Y187960D02*
X574040Y203200D01*
X599440Y203200D02*
X599440Y187960D01*
D12*
X482600Y495300D03*
X508000Y495300D03*
X533400Y495300D03*
X558800Y495300D03*
X584200Y495300D03*
X609600Y495300D03*
X50800Y466090D03*
X76200Y466090D03*
X101600Y466090D03*
X127000Y466090D03*
D13*
X548640Y165100D02*
X548640Y149860D01*
X574040Y149860D02*
X574040Y165100D01*
X599440Y165100D02*
X599440Y149860D01*
D12*
X152400Y466090D03*
X177800Y466090D03*
X203200Y466090D03*
X228600Y466090D03*
X254000Y466090D03*
X279400Y466090D03*
X304800Y466090D03*
X330200Y466090D03*
X355600Y466090D03*
X381000Y466090D03*
D15*
X548640Y167640D02*
X548640Y157480D01*
X548640Y167640D02*
X542544Y173736D01*
X542544Y178308D01*
X548640Y184404D01*
X548640Y195580D01*
X548640Y256032D02*
X548640Y266700D01*
X548640Y256032D02*
X542544Y249936D01*
X542544Y245364D01*
X548640Y239268D01*
X548640Y228600D01*
X435864Y121920D02*
X432816Y118872D01*
X435864Y121920D02*
X437388Y121920D01*
X466344Y150876D01*
X542544Y150876D01*
X548640Y156972D01*
X432816Y118872D02*
X431800Y118110D01*
X548640Y156972D02*
X548640Y157480D01*
X573024Y158496D02*
X573024Y164592D01*
X563880Y173736D01*
X563880Y175260D01*
X573024Y184404D01*
X573024Y195072D01*
X573024Y158496D02*
X574040Y157480D01*
X573024Y195072D02*
X574040Y195580D01*
X330200Y86360D02*
X326136Y82296D01*
X324612Y82296D01*
X318516Y76200D01*
X318516Y51816D01*
X329184Y41148D01*
X330200Y40640D01*
X384048Y167640D02*
X400812Y167640D01*
X384048Y167640D02*
X381000Y170688D01*
X306832Y170688D01*
X250190Y227330D01*
X400812Y167640D02*
X401320Y166370D01*
M02*
