G04 EAGLE Gerber RS-274X export*
G75*
%MOMM*%
%FSLAX34Y34*%
%LPD*%
%INBottom Copper*%
%IPPOS*%
%AMOC8*
5,1,8,0,0,1.08239X$1,22.5*%
G01*
%ADD10P,1.649562X8X22.500000*%
%ADD11P,1.539592X8X202.500000*%
%ADD12C,1.422400*%
%ADD13C,1.524000*%
%ADD14P,1.539592X8X22.500000*%
%ADD15C,0.152400*%

G36*
X706648Y10164D02*
X706648Y10164D01*
X706667Y10162D01*
X706769Y10184D01*
X706871Y10200D01*
X706888Y10210D01*
X706908Y10214D01*
X706997Y10267D01*
X707088Y10316D01*
X707102Y10330D01*
X707119Y10340D01*
X707186Y10419D01*
X707258Y10494D01*
X707266Y10512D01*
X707279Y10527D01*
X707318Y10623D01*
X707361Y10717D01*
X707363Y10737D01*
X707371Y10755D01*
X707389Y10922D01*
X707389Y573278D01*
X707386Y573298D01*
X707388Y573317D01*
X707366Y573419D01*
X707350Y573521D01*
X707340Y573538D01*
X707336Y573558D01*
X707283Y573647D01*
X707234Y573738D01*
X707220Y573752D01*
X707210Y573769D01*
X707131Y573836D01*
X707056Y573908D01*
X707038Y573916D01*
X707023Y573929D01*
X706927Y573968D01*
X706833Y574011D01*
X706813Y574013D01*
X706795Y574021D01*
X706628Y574039D01*
X10922Y574039D01*
X10902Y574036D01*
X10883Y574038D01*
X10781Y574016D01*
X10679Y574000D01*
X10662Y573990D01*
X10642Y573986D01*
X10553Y573933D01*
X10462Y573884D01*
X10448Y573870D01*
X10431Y573860D01*
X10364Y573781D01*
X10292Y573706D01*
X10284Y573688D01*
X10271Y573673D01*
X10232Y573577D01*
X10189Y573483D01*
X10187Y573463D01*
X10179Y573445D01*
X10161Y573278D01*
X10161Y10922D01*
X10164Y10902D01*
X10162Y10883D01*
X10184Y10781D01*
X10200Y10679D01*
X10210Y10662D01*
X10214Y10642D01*
X10267Y10553D01*
X10316Y10462D01*
X10330Y10448D01*
X10340Y10431D01*
X10419Y10364D01*
X10494Y10292D01*
X10512Y10284D01*
X10527Y10271D01*
X10623Y10232D01*
X10717Y10189D01*
X10737Y10187D01*
X10755Y10179D01*
X10922Y10161D01*
X706628Y10161D01*
X706648Y10164D01*
G37*
%LPC*%
G36*
X430082Y109473D02*
X430082Y109473D01*
X426908Y110788D01*
X424478Y113218D01*
X423163Y116392D01*
X423163Y119828D01*
X424478Y123002D01*
X426908Y125432D01*
X430082Y126747D01*
X433518Y126747D01*
X436734Y125415D01*
X436757Y125400D01*
X436840Y125340D01*
X436859Y125334D01*
X436876Y125323D01*
X436977Y125298D01*
X437075Y125267D01*
X437096Y125268D01*
X437115Y125263D01*
X437218Y125271D01*
X437321Y125274D01*
X437340Y125281D01*
X437360Y125282D01*
X437455Y125323D01*
X437552Y125358D01*
X437568Y125371D01*
X437586Y125379D01*
X437717Y125483D01*
X463834Y151600D01*
X465397Y153163D01*
X538734Y153163D01*
X538754Y153166D01*
X538773Y153164D01*
X538875Y153186D01*
X538977Y153202D01*
X538994Y153212D01*
X539014Y153216D01*
X539103Y153269D01*
X539194Y153318D01*
X539208Y153332D01*
X539225Y153342D01*
X539292Y153421D01*
X539364Y153496D01*
X539372Y153514D01*
X539385Y153529D01*
X539424Y153625D01*
X539467Y153719D01*
X539469Y153739D01*
X539477Y153757D01*
X539495Y153924D01*
X539495Y166919D01*
X540887Y170280D01*
X541288Y170681D01*
X541300Y170697D01*
X541316Y170710D01*
X541372Y170797D01*
X541432Y170881D01*
X541438Y170900D01*
X541449Y170917D01*
X541474Y171017D01*
X541504Y171116D01*
X541504Y171136D01*
X541509Y171155D01*
X541501Y171258D01*
X541498Y171362D01*
X541491Y171381D01*
X541490Y171400D01*
X541449Y171495D01*
X541414Y171593D01*
X541401Y171608D01*
X541393Y171627D01*
X541288Y171758D01*
X540257Y172789D01*
X540257Y179255D01*
X541796Y180794D01*
X541808Y180811D01*
X541824Y180823D01*
X541880Y180910D01*
X541940Y180994D01*
X541946Y181013D01*
X541957Y181030D01*
X541982Y181130D01*
X542012Y181229D01*
X542012Y181249D01*
X542017Y181268D01*
X542009Y181371D01*
X542006Y181475D01*
X541999Y181494D01*
X541998Y181514D01*
X541957Y181608D01*
X541922Y181706D01*
X541909Y181722D01*
X541901Y181740D01*
X541796Y181871D01*
X540887Y182780D01*
X539495Y186141D01*
X539495Y205019D01*
X540887Y208380D01*
X543460Y210953D01*
X544508Y211387D01*
X544569Y211424D01*
X544635Y211454D01*
X544673Y211489D01*
X544717Y211516D01*
X544763Y211572D01*
X544816Y211620D01*
X544841Y211666D01*
X544874Y211706D01*
X544900Y211773D01*
X544934Y211836D01*
X544944Y211887D01*
X544962Y211935D01*
X544965Y212007D01*
X544978Y212078D01*
X544970Y212129D01*
X544973Y212181D01*
X544953Y212250D01*
X544942Y212321D01*
X544919Y212367D01*
X544904Y212417D01*
X544863Y212476D01*
X544831Y212540D01*
X544793Y212577D01*
X544764Y212619D01*
X544706Y212662D01*
X544655Y212712D01*
X544592Y212747D01*
X544566Y212766D01*
X544544Y212773D01*
X544508Y212793D01*
X543460Y213227D01*
X540887Y215800D01*
X539495Y219161D01*
X539495Y238039D01*
X540887Y241400D01*
X541542Y242055D01*
X541554Y242071D01*
X541570Y242084D01*
X541626Y242171D01*
X541686Y242255D01*
X541692Y242274D01*
X541703Y242291D01*
X541728Y242391D01*
X541758Y242490D01*
X541758Y242510D01*
X541763Y242529D01*
X541755Y242632D01*
X541752Y242736D01*
X541745Y242755D01*
X541744Y242774D01*
X541703Y242869D01*
X541668Y242967D01*
X541655Y242982D01*
X541647Y243001D01*
X541542Y243132D01*
X540257Y244417D01*
X540257Y250883D01*
X541542Y252168D01*
X541554Y252185D01*
X541570Y252197D01*
X541626Y252284D01*
X541686Y252368D01*
X541692Y252387D01*
X541703Y252404D01*
X541728Y252504D01*
X541758Y252603D01*
X541758Y252623D01*
X541763Y252642D01*
X541755Y252745D01*
X541752Y252849D01*
X541745Y252868D01*
X541744Y252888D01*
X541703Y252983D01*
X541668Y253080D01*
X541655Y253096D01*
X541647Y253114D01*
X541542Y253245D01*
X540887Y253900D01*
X539495Y257261D01*
X539495Y276139D01*
X540887Y279500D01*
X543460Y282073D01*
X546821Y283465D01*
X550459Y283465D01*
X553820Y282073D01*
X556393Y279500D01*
X557785Y276139D01*
X557785Y257261D01*
X556393Y253900D01*
X553820Y251327D01*
X550459Y249935D01*
X546821Y249935D01*
X546553Y250046D01*
X546440Y250073D01*
X546326Y250102D01*
X546320Y250101D01*
X546313Y250103D01*
X546197Y250092D01*
X546081Y250082D01*
X546075Y250080D01*
X546069Y250079D01*
X545961Y250032D01*
X545854Y249986D01*
X545848Y249982D01*
X545844Y249979D01*
X545830Y249967D01*
X545723Y249881D01*
X545054Y249212D01*
X545001Y249138D01*
X544941Y249068D01*
X544929Y249038D01*
X544910Y249012D01*
X544883Y248925D01*
X544849Y248840D01*
X544845Y248799D01*
X544838Y248777D01*
X544839Y248745D01*
X544831Y248673D01*
X544831Y246627D01*
X544845Y246537D01*
X544853Y246446D01*
X544865Y246416D01*
X544870Y246384D01*
X544913Y246303D01*
X544949Y246219D01*
X544975Y246187D01*
X544986Y246166D01*
X545009Y246144D01*
X545054Y246088D01*
X545723Y245419D01*
X545819Y245350D01*
X545912Y245281D01*
X545918Y245279D01*
X545923Y245275D01*
X546035Y245241D01*
X546146Y245205D01*
X546152Y245205D01*
X546158Y245203D01*
X546275Y245206D01*
X546392Y245207D01*
X546399Y245209D01*
X546404Y245209D01*
X546421Y245216D01*
X546553Y245254D01*
X546821Y245365D01*
X550459Y245365D01*
X553820Y243973D01*
X556393Y241400D01*
X557785Y238039D01*
X557785Y219161D01*
X556393Y215800D01*
X553820Y213227D01*
X552772Y212793D01*
X552711Y212756D01*
X552645Y212726D01*
X552607Y212691D01*
X552563Y212664D01*
X552517Y212609D01*
X552464Y212560D01*
X552439Y212514D01*
X552406Y212474D01*
X552380Y212407D01*
X552346Y212344D01*
X552336Y212293D01*
X552318Y212245D01*
X552315Y212173D01*
X552302Y212102D01*
X552310Y212051D01*
X552307Y211999D01*
X552327Y211930D01*
X552338Y211859D01*
X552361Y211813D01*
X552376Y211763D01*
X552417Y211704D01*
X552449Y211640D01*
X552487Y211603D01*
X552516Y211561D01*
X552574Y211518D01*
X552625Y211468D01*
X552688Y211433D01*
X552714Y211414D01*
X552736Y211407D01*
X552772Y211387D01*
X553820Y210953D01*
X556393Y208380D01*
X557785Y205019D01*
X557785Y186141D01*
X556393Y182780D01*
X553820Y180207D01*
X550459Y178815D01*
X546755Y178815D01*
X546685Y178833D01*
X546679Y178832D01*
X546673Y178834D01*
X546556Y178823D01*
X546440Y178814D01*
X546434Y178811D01*
X546428Y178811D01*
X546320Y178763D01*
X546213Y178717D01*
X546208Y178713D01*
X546203Y178711D01*
X546189Y178698D01*
X546082Y178613D01*
X545054Y177584D01*
X545001Y177510D01*
X544941Y177440D01*
X544929Y177410D01*
X544910Y177384D01*
X544883Y177297D01*
X544849Y177212D01*
X544845Y177171D01*
X544838Y177149D01*
X544839Y177117D01*
X544831Y177045D01*
X544831Y174999D01*
X544845Y174908D01*
X544853Y174818D01*
X544865Y174788D01*
X544870Y174756D01*
X544913Y174675D01*
X544949Y174591D01*
X544975Y174559D01*
X544986Y174538D01*
X545009Y174516D01*
X545054Y174460D01*
X545364Y174150D01*
X545458Y174082D01*
X545553Y174012D01*
X545559Y174010D01*
X545564Y174006D01*
X545675Y173972D01*
X545787Y173936D01*
X545793Y173936D01*
X545799Y173934D01*
X545916Y173937D01*
X546033Y173938D01*
X546040Y173940D01*
X546045Y173940D01*
X546062Y173947D01*
X546194Y173985D01*
X546821Y174245D01*
X550459Y174245D01*
X553820Y172853D01*
X556393Y170280D01*
X557785Y166919D01*
X557785Y148041D01*
X556393Y144680D01*
X553820Y142107D01*
X550459Y140715D01*
X546821Y140715D01*
X543460Y142107D01*
X540887Y144680D01*
X539463Y148119D01*
X539401Y148219D01*
X539341Y148319D01*
X539337Y148323D01*
X539333Y148328D01*
X539243Y148403D01*
X539154Y148479D01*
X539149Y148481D01*
X539144Y148485D01*
X539035Y148527D01*
X538926Y148571D01*
X538919Y148572D01*
X538914Y148573D01*
X538896Y148574D01*
X538760Y148589D01*
X467607Y148589D01*
X467516Y148575D01*
X467426Y148567D01*
X467396Y148555D01*
X467364Y148550D01*
X467283Y148507D01*
X467199Y148471D01*
X467167Y148445D01*
X467146Y148434D01*
X467124Y148411D01*
X467068Y148366D01*
X440238Y121536D01*
X440170Y121441D01*
X440100Y121347D01*
X440098Y121341D01*
X440094Y121336D01*
X440060Y121225D01*
X440024Y121113D01*
X440024Y121107D01*
X440022Y121101D01*
X440025Y120984D01*
X440026Y120867D01*
X440028Y120860D01*
X440028Y120855D01*
X440035Y120838D01*
X440073Y120706D01*
X440437Y119828D01*
X440437Y116392D01*
X439122Y113218D01*
X436692Y110788D01*
X433518Y109473D01*
X430082Y109473D01*
G37*
%LPD*%
%LPC*%
G36*
X572221Y140715D02*
X572221Y140715D01*
X568860Y142107D01*
X566287Y144680D01*
X564895Y148041D01*
X564895Y166919D01*
X565453Y168265D01*
X565479Y168378D01*
X565508Y168492D01*
X565507Y168498D01*
X565509Y168504D01*
X565498Y168621D01*
X565489Y168737D01*
X565486Y168743D01*
X565486Y168749D01*
X565438Y168856D01*
X565393Y168963D01*
X565388Y168969D01*
X565386Y168974D01*
X565373Y168987D01*
X565288Y169094D01*
X563156Y171226D01*
X561593Y172789D01*
X561593Y176207D01*
X563156Y177770D01*
X566688Y181302D01*
X566700Y181319D01*
X566716Y181331D01*
X566772Y181418D01*
X566832Y181502D01*
X566838Y181521D01*
X566849Y181538D01*
X566874Y181638D01*
X566904Y181737D01*
X566904Y181757D01*
X566909Y181776D01*
X566901Y181879D01*
X566898Y181983D01*
X566891Y182002D01*
X566890Y182022D01*
X566849Y182116D01*
X566814Y182214D01*
X566801Y182230D01*
X566793Y182248D01*
X566688Y182379D01*
X566287Y182780D01*
X564895Y186141D01*
X564895Y205019D01*
X566287Y208380D01*
X568860Y210953D01*
X569908Y211387D01*
X569969Y211424D01*
X570035Y211454D01*
X570073Y211489D01*
X570117Y211516D01*
X570163Y211572D01*
X570216Y211620D01*
X570241Y211666D01*
X570274Y211706D01*
X570300Y211773D01*
X570334Y211836D01*
X570344Y211887D01*
X570362Y211935D01*
X570365Y212007D01*
X570378Y212078D01*
X570370Y212129D01*
X570373Y212181D01*
X570353Y212250D01*
X570342Y212321D01*
X570319Y212367D01*
X570304Y212417D01*
X570263Y212476D01*
X570231Y212540D01*
X570193Y212577D01*
X570164Y212619D01*
X570106Y212662D01*
X570055Y212712D01*
X569992Y212747D01*
X569966Y212766D01*
X569944Y212773D01*
X569908Y212793D01*
X568860Y213227D01*
X566287Y215800D01*
X564895Y219161D01*
X564895Y238039D01*
X566287Y241400D01*
X568860Y243973D01*
X572221Y245365D01*
X575859Y245365D01*
X579220Y243973D01*
X581793Y241400D01*
X583185Y238039D01*
X583185Y219161D01*
X581793Y215800D01*
X579220Y213227D01*
X578172Y212793D01*
X578111Y212756D01*
X578045Y212726D01*
X578007Y212691D01*
X577963Y212664D01*
X577917Y212609D01*
X577864Y212560D01*
X577839Y212514D01*
X577806Y212474D01*
X577780Y212407D01*
X577746Y212344D01*
X577736Y212293D01*
X577718Y212245D01*
X577715Y212173D01*
X577702Y212102D01*
X577710Y212051D01*
X577707Y211999D01*
X577727Y211930D01*
X577738Y211859D01*
X577761Y211813D01*
X577776Y211763D01*
X577817Y211704D01*
X577849Y211640D01*
X577887Y211603D01*
X577916Y211561D01*
X577974Y211518D01*
X578025Y211468D01*
X578088Y211433D01*
X578114Y211414D01*
X578136Y211407D01*
X578172Y211387D01*
X579220Y210953D01*
X581793Y208380D01*
X583185Y205019D01*
X583185Y186141D01*
X581793Y182780D01*
X579220Y180207D01*
X575859Y178815D01*
X572221Y178815D01*
X571594Y179075D01*
X571480Y179102D01*
X571367Y179130D01*
X571360Y179130D01*
X571354Y179131D01*
X571238Y179120D01*
X571121Y179111D01*
X571116Y179109D01*
X571109Y179108D01*
X571002Y179060D01*
X570895Y179015D01*
X570889Y179010D01*
X570885Y179008D01*
X570871Y178996D01*
X570764Y178910D01*
X566890Y175036D01*
X566879Y175020D01*
X566863Y175008D01*
X566807Y174920D01*
X566747Y174837D01*
X566741Y174818D01*
X566730Y174801D01*
X566705Y174700D01*
X566674Y174601D01*
X566675Y174582D01*
X566670Y174562D01*
X566678Y174459D01*
X566681Y174356D01*
X566688Y174337D01*
X566689Y174317D01*
X566729Y174222D01*
X566765Y174125D01*
X566778Y174109D01*
X566785Y174091D01*
X566890Y173960D01*
X567890Y172960D01*
X567906Y172949D01*
X567917Y172934D01*
X568001Y172880D01*
X568079Y172822D01*
X568085Y172820D01*
X568090Y172816D01*
X568108Y172810D01*
X568124Y172800D01*
X568220Y172776D01*
X568313Y172745D01*
X568319Y172746D01*
X568325Y172744D01*
X568344Y172744D01*
X568362Y172739D01*
X568461Y172747D01*
X568559Y172748D01*
X568566Y172750D01*
X568571Y172750D01*
X568589Y172757D01*
X568608Y172758D01*
X568638Y172771D01*
X568720Y172795D01*
X572221Y174245D01*
X575859Y174245D01*
X579220Y172853D01*
X581793Y170280D01*
X583185Y166919D01*
X583185Y148041D01*
X581793Y144680D01*
X579220Y142107D01*
X575859Y140715D01*
X572221Y140715D01*
G37*
%LPD*%
%LPC*%
G36*
X273283Y146303D02*
X273283Y146303D01*
X268223Y151363D01*
X268223Y158517D01*
X273283Y163577D01*
X280437Y163577D01*
X280812Y163202D01*
X280828Y163191D01*
X280840Y163175D01*
X280928Y163119D01*
X281012Y163059D01*
X281031Y163053D01*
X281047Y163042D01*
X281148Y163017D01*
X281247Y162986D01*
X281267Y162987D01*
X281286Y162982D01*
X281389Y162990D01*
X281493Y162993D01*
X281511Y163000D01*
X281531Y163001D01*
X281626Y163042D01*
X281724Y163077D01*
X281739Y163090D01*
X281757Y163098D01*
X281888Y163202D01*
X291661Y172975D01*
X381947Y172975D01*
X383510Y171412D01*
X384387Y170534D01*
X384425Y170508D01*
X384456Y170474D01*
X384524Y170436D01*
X384587Y170391D01*
X384631Y170377D01*
X384671Y170355D01*
X384748Y170341D01*
X384822Y170319D01*
X384868Y170320D01*
X384913Y170312D01*
X384990Y170323D01*
X385068Y170325D01*
X385111Y170341D01*
X385157Y170347D01*
X385226Y170383D01*
X385299Y170409D01*
X385335Y170438D01*
X385376Y170459D01*
X385430Y170514D01*
X385491Y170563D01*
X385516Y170602D01*
X385548Y170634D01*
X385614Y170754D01*
X385624Y170770D01*
X385625Y170775D01*
X385629Y170781D01*
X385947Y171550D01*
X388520Y174123D01*
X391881Y175515D01*
X410759Y175515D01*
X414120Y174123D01*
X416693Y171550D01*
X418085Y168189D01*
X418085Y164551D01*
X416693Y161190D01*
X414120Y158617D01*
X410759Y157225D01*
X391881Y157225D01*
X388520Y158617D01*
X385947Y161190D01*
X384555Y164551D01*
X384555Y164592D01*
X384552Y164612D01*
X384554Y164631D01*
X384532Y164733D01*
X384516Y164835D01*
X384506Y164852D01*
X384502Y164872D01*
X384449Y164961D01*
X384400Y165052D01*
X384386Y165066D01*
X384376Y165083D01*
X384297Y165150D01*
X384222Y165222D01*
X384204Y165230D01*
X384189Y165243D01*
X384093Y165282D01*
X383999Y165325D01*
X383979Y165327D01*
X383961Y165335D01*
X383794Y165353D01*
X383101Y165353D01*
X380276Y168178D01*
X380202Y168231D01*
X380132Y168291D01*
X380102Y168303D01*
X380076Y168322D01*
X379989Y168349D01*
X379904Y168383D01*
X379863Y168387D01*
X379841Y168394D01*
X379809Y168393D01*
X379737Y168401D01*
X293871Y168401D01*
X293780Y168387D01*
X293690Y168379D01*
X293660Y168367D01*
X293628Y168362D01*
X293547Y168319D01*
X293463Y168283D01*
X293431Y168257D01*
X293410Y168246D01*
X293388Y168223D01*
X293332Y168178D01*
X285122Y159968D01*
X285111Y159952D01*
X285095Y159940D01*
X285039Y159853D01*
X284979Y159769D01*
X284973Y159750D01*
X284962Y159733D01*
X284937Y159632D01*
X284906Y159534D01*
X284907Y159514D01*
X284902Y159494D01*
X284910Y159391D01*
X284913Y159288D01*
X284920Y159269D01*
X284921Y159249D01*
X284962Y159154D01*
X284997Y159057D01*
X285010Y159041D01*
X285018Y159023D01*
X285122Y158892D01*
X285497Y158517D01*
X285497Y151363D01*
X280437Y146303D01*
X273283Y146303D01*
G37*
%LPD*%
%LPC*%
G36*
X597621Y178815D02*
X597621Y178815D01*
X594260Y180207D01*
X591687Y182780D01*
X590295Y186141D01*
X590295Y205019D01*
X591687Y208380D01*
X594260Y210953D01*
X595308Y211387D01*
X595369Y211424D01*
X595435Y211454D01*
X595473Y211489D01*
X595517Y211516D01*
X595563Y211572D01*
X595616Y211620D01*
X595641Y211666D01*
X595674Y211706D01*
X595700Y211773D01*
X595734Y211836D01*
X595744Y211887D01*
X595762Y211935D01*
X595765Y212007D01*
X595778Y212078D01*
X595770Y212129D01*
X595773Y212181D01*
X595753Y212250D01*
X595742Y212321D01*
X595719Y212367D01*
X595704Y212417D01*
X595663Y212476D01*
X595631Y212540D01*
X595593Y212577D01*
X595564Y212619D01*
X595506Y212662D01*
X595455Y212712D01*
X595392Y212747D01*
X595366Y212766D01*
X595344Y212773D01*
X595308Y212793D01*
X594260Y213227D01*
X591687Y215800D01*
X590295Y219161D01*
X590295Y238039D01*
X591687Y241400D01*
X594260Y243973D01*
X597621Y245365D01*
X601259Y245365D01*
X604620Y243973D01*
X607193Y241400D01*
X608585Y238039D01*
X608585Y219161D01*
X607193Y215800D01*
X604620Y213227D01*
X603572Y212793D01*
X603511Y212756D01*
X603445Y212726D01*
X603407Y212691D01*
X603363Y212664D01*
X603317Y212609D01*
X603264Y212560D01*
X603239Y212514D01*
X603206Y212474D01*
X603180Y212407D01*
X603146Y212344D01*
X603136Y212293D01*
X603118Y212245D01*
X603115Y212173D01*
X603102Y212102D01*
X603110Y212051D01*
X603107Y211999D01*
X603127Y211930D01*
X603138Y211859D01*
X603161Y211813D01*
X603176Y211763D01*
X603217Y211704D01*
X603249Y211640D01*
X603287Y211603D01*
X603316Y211561D01*
X603374Y211518D01*
X603425Y211468D01*
X603488Y211433D01*
X603514Y211414D01*
X603536Y211407D01*
X603572Y211387D01*
X604620Y210953D01*
X607193Y208380D01*
X608585Y205019D01*
X608585Y186141D01*
X607193Y182780D01*
X604620Y180207D01*
X601259Y178815D01*
X597621Y178815D01*
G37*
%LPD*%
%LPC*%
G36*
X326412Y31495D02*
X326412Y31495D01*
X321055Y36852D01*
X321055Y44428D01*
X321324Y44697D01*
X321336Y44713D01*
X321352Y44726D01*
X321408Y44813D01*
X321468Y44897D01*
X321474Y44916D01*
X321485Y44933D01*
X321510Y45033D01*
X321540Y45132D01*
X321540Y45152D01*
X321545Y45171D01*
X321537Y45274D01*
X321534Y45378D01*
X321527Y45397D01*
X321526Y45416D01*
X321485Y45511D01*
X321450Y45609D01*
X321437Y45624D01*
X321429Y45643D01*
X321324Y45774D01*
X316229Y50869D01*
X316229Y77147D01*
X321836Y82754D01*
X321904Y82848D01*
X321974Y82943D01*
X321976Y82949D01*
X321980Y82954D01*
X322014Y83065D01*
X322051Y83177D01*
X322051Y83183D01*
X322052Y83189D01*
X322049Y83306D01*
X322048Y83423D01*
X322046Y83430D01*
X322046Y83435D01*
X322040Y83453D01*
X322002Y83584D01*
X321563Y84642D01*
X321563Y88078D01*
X322878Y91252D01*
X325308Y93682D01*
X328482Y94997D01*
X331918Y94997D01*
X335092Y93682D01*
X337522Y91252D01*
X338837Y88078D01*
X338837Y84642D01*
X337522Y81468D01*
X335092Y79038D01*
X331918Y77723D01*
X328482Y77723D01*
X325269Y79054D01*
X325155Y79081D01*
X325042Y79109D01*
X325035Y79109D01*
X325029Y79110D01*
X324913Y79099D01*
X324796Y79090D01*
X324791Y79088D01*
X324784Y79087D01*
X324677Y79040D01*
X324570Y78994D01*
X324564Y78989D01*
X324560Y78987D01*
X324546Y78975D01*
X324439Y78889D01*
X321026Y75476D01*
X320973Y75402D01*
X320913Y75332D01*
X320901Y75302D01*
X320882Y75276D01*
X320855Y75189D01*
X320821Y75104D01*
X320817Y75063D01*
X320810Y75041D01*
X320811Y75009D01*
X320803Y74937D01*
X320803Y66333D01*
X320814Y66262D01*
X320816Y66191D01*
X320834Y66142D01*
X320842Y66090D01*
X320876Y66027D01*
X320901Y65960D01*
X320933Y65919D01*
X320958Y65873D01*
X321010Y65824D01*
X321054Y65768D01*
X321098Y65739D01*
X321136Y65704D01*
X321201Y65673D01*
X321261Y65635D01*
X321312Y65622D01*
X321359Y65600D01*
X321430Y65592D01*
X321500Y65575D01*
X321552Y65579D01*
X321603Y65573D01*
X321674Y65588D01*
X321745Y65594D01*
X321793Y65614D01*
X321844Y65625D01*
X321905Y65662D01*
X321971Y65690D01*
X322027Y65735D01*
X322055Y65751D01*
X322070Y65769D01*
X322102Y65795D01*
X326412Y70105D01*
X333988Y70105D01*
X339345Y64748D01*
X339345Y57172D01*
X333988Y51815D01*
X326412Y51815D01*
X322102Y56125D01*
X322044Y56167D01*
X321992Y56216D01*
X321945Y56238D01*
X321903Y56269D01*
X321834Y56290D01*
X321769Y56320D01*
X321717Y56326D01*
X321667Y56341D01*
X321596Y56339D01*
X321525Y56347D01*
X321474Y56336D01*
X321422Y56335D01*
X321354Y56310D01*
X321284Y56295D01*
X321239Y56268D01*
X321191Y56250D01*
X321135Y56205D01*
X321073Y56169D01*
X321039Y56129D01*
X320999Y56097D01*
X320960Y56036D01*
X320913Y55982D01*
X320894Y55933D01*
X320866Y55890D01*
X320848Y55820D01*
X320821Y55754D01*
X320813Y55682D01*
X320805Y55651D01*
X320807Y55628D01*
X320803Y55587D01*
X320803Y53079D01*
X320817Y52988D01*
X320825Y52898D01*
X320837Y52868D01*
X320842Y52836D01*
X320885Y52755D01*
X320921Y52671D01*
X320947Y52639D01*
X320958Y52618D01*
X320981Y52596D01*
X321026Y52540D01*
X324558Y49008D01*
X324575Y48996D01*
X324587Y48980D01*
X324674Y48924D01*
X324758Y48864D01*
X324777Y48858D01*
X324794Y48847D01*
X324894Y48822D01*
X324993Y48792D01*
X325013Y48792D01*
X325032Y48787D01*
X325135Y48795D01*
X325239Y48798D01*
X325258Y48805D01*
X325278Y48806D01*
X325373Y48847D01*
X325470Y48882D01*
X325486Y48895D01*
X325504Y48903D01*
X325635Y49008D01*
X326412Y49785D01*
X333988Y49785D01*
X339345Y44428D01*
X339345Y36852D01*
X333988Y31495D01*
X326412Y31495D01*
G37*
%LPD*%
%LPC*%
G36*
X112481Y209295D02*
X112481Y209295D01*
X109120Y210687D01*
X106547Y213260D01*
X105155Y216621D01*
X105155Y235499D01*
X106547Y238860D01*
X109120Y241433D01*
X112481Y242825D01*
X116119Y242825D01*
X119480Y241433D01*
X122053Y238860D01*
X123445Y235499D01*
X123445Y216621D01*
X122053Y213260D01*
X119480Y210687D01*
X116119Y209295D01*
X112481Y209295D01*
G37*
%LPD*%
%LPC*%
G36*
X597621Y249935D02*
X597621Y249935D01*
X594260Y251327D01*
X591687Y253900D01*
X590295Y257261D01*
X590295Y276139D01*
X591687Y279500D01*
X594260Y282073D01*
X597621Y283465D01*
X601259Y283465D01*
X604620Y282073D01*
X607193Y279500D01*
X608585Y276139D01*
X608585Y257261D01*
X607193Y253900D01*
X604620Y251327D01*
X601259Y249935D01*
X597621Y249935D01*
G37*
%LPD*%
%LPC*%
G36*
X572221Y249935D02*
X572221Y249935D01*
X568860Y251327D01*
X566287Y253900D01*
X564895Y257261D01*
X564895Y276139D01*
X566287Y279500D01*
X568860Y282073D01*
X572221Y283465D01*
X575859Y283465D01*
X579220Y282073D01*
X581793Y279500D01*
X583185Y276139D01*
X583185Y257261D01*
X581793Y253900D01*
X579220Y251327D01*
X575859Y249935D01*
X572221Y249935D01*
G37*
%LPD*%
%LPC*%
G36*
X427441Y233425D02*
X427441Y233425D01*
X424080Y234817D01*
X421507Y237390D01*
X420115Y240751D01*
X420115Y244389D01*
X421507Y247750D01*
X424080Y250323D01*
X427441Y251715D01*
X446319Y251715D01*
X449680Y250323D01*
X452253Y247750D01*
X453645Y244389D01*
X453645Y240751D01*
X452253Y237390D01*
X449680Y234817D01*
X446319Y233425D01*
X427441Y233425D01*
G37*
%LPD*%
%LPC*%
G36*
X391881Y233425D02*
X391881Y233425D01*
X388520Y234817D01*
X385947Y237390D01*
X384555Y240751D01*
X384555Y244389D01*
X385947Y247750D01*
X388520Y250323D01*
X391881Y251715D01*
X410759Y251715D01*
X414120Y250323D01*
X416693Y247750D01*
X418085Y244389D01*
X418085Y240751D01*
X416693Y237390D01*
X414120Y234817D01*
X410759Y233425D01*
X391881Y233425D01*
G37*
%LPD*%
%LPC*%
G36*
X463001Y232155D02*
X463001Y232155D01*
X459640Y233547D01*
X457067Y236120D01*
X455675Y239481D01*
X455675Y243119D01*
X457067Y246480D01*
X459640Y249053D01*
X463001Y250445D01*
X481879Y250445D01*
X485240Y249053D01*
X487813Y246480D01*
X489205Y243119D01*
X489205Y239481D01*
X487813Y236120D01*
X485240Y233547D01*
X481879Y232155D01*
X463001Y232155D01*
G37*
%LPD*%
%LPC*%
G36*
X137881Y209295D02*
X137881Y209295D01*
X134520Y210687D01*
X131947Y213260D01*
X130555Y216621D01*
X130555Y235499D01*
X131947Y238860D01*
X134520Y241433D01*
X137881Y242825D01*
X141519Y242825D01*
X144880Y241433D01*
X147453Y238860D01*
X148845Y235499D01*
X148845Y216621D01*
X147453Y213260D01*
X144880Y210687D01*
X141519Y209295D01*
X137881Y209295D01*
G37*
%LPD*%
%LPC*%
G36*
X597621Y140715D02*
X597621Y140715D01*
X594260Y142107D01*
X591687Y144680D01*
X590295Y148041D01*
X590295Y166919D01*
X591687Y170280D01*
X594260Y172853D01*
X597621Y174245D01*
X601259Y174245D01*
X604620Y172853D01*
X607193Y170280D01*
X608585Y166919D01*
X608585Y148041D01*
X607193Y144680D01*
X604620Y142107D01*
X601259Y140715D01*
X597621Y140715D01*
G37*
%LPD*%
%LPC*%
G36*
X463001Y155955D02*
X463001Y155955D01*
X459640Y157347D01*
X457067Y159920D01*
X455675Y163281D01*
X455675Y166919D01*
X457067Y170280D01*
X459640Y172853D01*
X463001Y174245D01*
X481879Y174245D01*
X485240Y172853D01*
X487813Y170280D01*
X489205Y166919D01*
X489205Y163281D01*
X487813Y159920D01*
X485240Y157347D01*
X481879Y155955D01*
X463001Y155955D01*
G37*
%LPD*%
%LPC*%
G36*
X427441Y157225D02*
X427441Y157225D01*
X424080Y158617D01*
X421507Y161190D01*
X420115Y164551D01*
X420115Y168189D01*
X421507Y171550D01*
X424080Y174123D01*
X427441Y175515D01*
X446319Y175515D01*
X449680Y174123D01*
X452253Y171550D01*
X453645Y168189D01*
X453645Y164551D01*
X452253Y161190D01*
X449680Y158617D01*
X446319Y157225D01*
X427441Y157225D01*
G37*
%LPD*%
%LPC*%
G36*
X149311Y163575D02*
X149311Y163575D01*
X145950Y164967D01*
X143377Y167540D01*
X141985Y170901D01*
X141985Y189779D01*
X143377Y193140D01*
X145950Y195713D01*
X149311Y197105D01*
X152949Y197105D01*
X156310Y195713D01*
X158883Y193140D01*
X160275Y189779D01*
X160275Y170901D01*
X158883Y167540D01*
X156310Y164967D01*
X152949Y163575D01*
X149311Y163575D01*
G37*
%LPD*%
%LPC*%
G36*
X174711Y163575D02*
X174711Y163575D01*
X171350Y164967D01*
X168777Y167540D01*
X167385Y170901D01*
X167385Y189779D01*
X168777Y193140D01*
X171350Y195713D01*
X174711Y197105D01*
X178349Y197105D01*
X181710Y195713D01*
X184283Y193140D01*
X185675Y189779D01*
X185675Y170901D01*
X184283Y167540D01*
X181710Y164967D01*
X178349Y163575D01*
X174711Y163575D01*
G37*
%LPD*%
%LPC*%
G36*
X200111Y163575D02*
X200111Y163575D01*
X196750Y164967D01*
X194177Y167540D01*
X192785Y170901D01*
X192785Y189779D01*
X194177Y193140D01*
X196750Y195713D01*
X200111Y197105D01*
X203749Y197105D01*
X207110Y195713D01*
X209683Y193140D01*
X211075Y189779D01*
X211075Y170901D01*
X209683Y167540D01*
X207110Y164967D01*
X203749Y163575D01*
X200111Y163575D01*
G37*
%LPD*%
%LPC*%
G36*
X225511Y163575D02*
X225511Y163575D01*
X222150Y164967D01*
X219577Y167540D01*
X218185Y170901D01*
X218185Y189779D01*
X219577Y193140D01*
X222150Y195713D01*
X225511Y197105D01*
X229149Y197105D01*
X232510Y195713D01*
X235083Y193140D01*
X236475Y189779D01*
X236475Y170901D01*
X235083Y167540D01*
X232510Y164967D01*
X229149Y163575D01*
X225511Y163575D01*
G37*
%LPD*%
%LPC*%
G36*
X463001Y181355D02*
X463001Y181355D01*
X459640Y182747D01*
X457067Y185320D01*
X455675Y188681D01*
X455675Y192319D01*
X457067Y195680D01*
X459640Y198253D01*
X463001Y199645D01*
X481879Y199645D01*
X485240Y198253D01*
X487813Y195680D01*
X489205Y192319D01*
X489205Y188681D01*
X487813Y185320D01*
X485240Y182747D01*
X481879Y181355D01*
X463001Y181355D01*
G37*
%LPD*%
%LPC*%
G36*
X391881Y182625D02*
X391881Y182625D01*
X388520Y184017D01*
X385947Y186590D01*
X384555Y189951D01*
X384555Y193589D01*
X385947Y196950D01*
X388520Y199523D01*
X391881Y200915D01*
X410759Y200915D01*
X414120Y199523D01*
X416693Y196950D01*
X418085Y193589D01*
X418085Y189951D01*
X416693Y186590D01*
X414120Y184017D01*
X410759Y182625D01*
X391881Y182625D01*
G37*
%LPD*%
%LPC*%
G36*
X427441Y182625D02*
X427441Y182625D01*
X424080Y184017D01*
X421507Y186590D01*
X420115Y189951D01*
X420115Y193589D01*
X421507Y196950D01*
X424080Y199523D01*
X427441Y200915D01*
X446319Y200915D01*
X449680Y199523D01*
X452253Y196950D01*
X453645Y193589D01*
X453645Y189951D01*
X452253Y186590D01*
X449680Y184017D01*
X446319Y182625D01*
X427441Y182625D01*
G37*
%LPD*%
%LPC*%
G36*
X463001Y206755D02*
X463001Y206755D01*
X459640Y208147D01*
X457067Y210720D01*
X455675Y214081D01*
X455675Y217719D01*
X457067Y221080D01*
X459640Y223653D01*
X463001Y225045D01*
X481879Y225045D01*
X485240Y223653D01*
X487813Y221080D01*
X489205Y217719D01*
X489205Y214081D01*
X487813Y210720D01*
X485240Y208147D01*
X481879Y206755D01*
X463001Y206755D01*
G37*
%LPD*%
%LPC*%
G36*
X427441Y208025D02*
X427441Y208025D01*
X424080Y209417D01*
X421507Y211990D01*
X420115Y215351D01*
X420115Y218989D01*
X421507Y222350D01*
X424080Y224923D01*
X427441Y226315D01*
X446319Y226315D01*
X449680Y224923D01*
X452253Y222350D01*
X453645Y218989D01*
X453645Y215351D01*
X452253Y211990D01*
X449680Y209417D01*
X446319Y208025D01*
X427441Y208025D01*
G37*
%LPD*%
%LPC*%
G36*
X391881Y208025D02*
X391881Y208025D01*
X388520Y209417D01*
X385947Y211990D01*
X384555Y215351D01*
X384555Y218989D01*
X385947Y222350D01*
X388520Y224923D01*
X391881Y226315D01*
X410759Y226315D01*
X414120Y224923D01*
X416693Y222350D01*
X418085Y218989D01*
X418085Y215351D01*
X416693Y211990D01*
X414120Y209417D01*
X410759Y208025D01*
X391881Y208025D01*
G37*
%LPD*%
%LPC*%
G36*
X275612Y534415D02*
X275612Y534415D01*
X270255Y539772D01*
X270255Y547348D01*
X275612Y552705D01*
X283188Y552705D01*
X288545Y547348D01*
X288545Y539772D01*
X283188Y534415D01*
X275612Y534415D01*
G37*
%LPD*%
%LPC*%
G36*
X250212Y534415D02*
X250212Y534415D01*
X244855Y539772D01*
X244855Y547348D01*
X250212Y552705D01*
X257788Y552705D01*
X263145Y547348D01*
X263145Y539772D01*
X257788Y534415D01*
X250212Y534415D01*
G37*
%LPD*%
%LPC*%
G36*
X605812Y534415D02*
X605812Y534415D01*
X600455Y539772D01*
X600455Y547348D01*
X605812Y552705D01*
X613388Y552705D01*
X618745Y547348D01*
X618745Y539772D01*
X613388Y534415D01*
X605812Y534415D01*
G37*
%LPD*%
%LPC*%
G36*
X580412Y534415D02*
X580412Y534415D01*
X575055Y539772D01*
X575055Y547348D01*
X580412Y552705D01*
X587988Y552705D01*
X593345Y547348D01*
X593345Y539772D01*
X587988Y534415D01*
X580412Y534415D01*
G37*
%LPD*%
%LPC*%
G36*
X555012Y534415D02*
X555012Y534415D01*
X549655Y539772D01*
X549655Y547348D01*
X555012Y552705D01*
X562588Y552705D01*
X567945Y547348D01*
X567945Y539772D01*
X562588Y534415D01*
X555012Y534415D01*
G37*
%LPD*%
%LPC*%
G36*
X529612Y534415D02*
X529612Y534415D01*
X524255Y539772D01*
X524255Y547348D01*
X529612Y552705D01*
X537188Y552705D01*
X542545Y547348D01*
X542545Y539772D01*
X537188Y534415D01*
X529612Y534415D01*
G37*
%LPD*%
%LPC*%
G36*
X504212Y534415D02*
X504212Y534415D01*
X498855Y539772D01*
X498855Y547348D01*
X504212Y552705D01*
X511788Y552705D01*
X517145Y547348D01*
X517145Y539772D01*
X511788Y534415D01*
X504212Y534415D01*
G37*
%LPD*%
%LPC*%
G36*
X478812Y534415D02*
X478812Y534415D01*
X473455Y539772D01*
X473455Y547348D01*
X478812Y552705D01*
X486388Y552705D01*
X491745Y547348D01*
X491745Y539772D01*
X486388Y534415D01*
X478812Y534415D01*
G37*
%LPD*%
%LPC*%
G36*
X453412Y534415D02*
X453412Y534415D01*
X448055Y539772D01*
X448055Y547348D01*
X453412Y552705D01*
X460988Y552705D01*
X466345Y547348D01*
X466345Y539772D01*
X460988Y534415D01*
X453412Y534415D01*
G37*
%LPD*%
%LPC*%
G36*
X428012Y534415D02*
X428012Y534415D01*
X422655Y539772D01*
X422655Y547348D01*
X428012Y552705D01*
X435588Y552705D01*
X440945Y547348D01*
X440945Y539772D01*
X435588Y534415D01*
X428012Y534415D01*
G37*
%LPD*%
%LPC*%
G36*
X402612Y534415D02*
X402612Y534415D01*
X397255Y539772D01*
X397255Y547348D01*
X402612Y552705D01*
X410188Y552705D01*
X415545Y547348D01*
X415545Y539772D01*
X410188Y534415D01*
X402612Y534415D01*
G37*
%LPD*%
%LPC*%
G36*
X377212Y534415D02*
X377212Y534415D01*
X371855Y539772D01*
X371855Y547348D01*
X377212Y552705D01*
X384788Y552705D01*
X390145Y547348D01*
X390145Y539772D01*
X384788Y534415D01*
X377212Y534415D01*
G37*
%LPD*%
%LPC*%
G36*
X351812Y534415D02*
X351812Y534415D01*
X346455Y539772D01*
X346455Y547348D01*
X351812Y552705D01*
X359388Y552705D01*
X364745Y547348D01*
X364745Y539772D01*
X359388Y534415D01*
X351812Y534415D01*
G37*
%LPD*%
%LPC*%
G36*
X326412Y534415D02*
X326412Y534415D01*
X321055Y539772D01*
X321055Y547348D01*
X326412Y552705D01*
X333988Y552705D01*
X339345Y547348D01*
X339345Y539772D01*
X333988Y534415D01*
X326412Y534415D01*
G37*
%LPD*%
%LPC*%
G36*
X301012Y534415D02*
X301012Y534415D01*
X295655Y539772D01*
X295655Y547348D01*
X301012Y552705D01*
X308588Y552705D01*
X313945Y547348D01*
X313945Y539772D01*
X308588Y534415D01*
X301012Y534415D01*
G37*
%LPD*%
%LPC*%
G36*
X72412Y534415D02*
X72412Y534415D01*
X67055Y539772D01*
X67055Y547348D01*
X72412Y552705D01*
X79988Y552705D01*
X85345Y547348D01*
X85345Y539772D01*
X79988Y534415D01*
X72412Y534415D01*
G37*
%LPD*%
%LPC*%
G36*
X47012Y534415D02*
X47012Y534415D01*
X41655Y539772D01*
X41655Y547348D01*
X47012Y552705D01*
X54588Y552705D01*
X59945Y547348D01*
X59945Y539772D01*
X54588Y534415D01*
X47012Y534415D01*
G37*
%LPD*%
%LPC*%
G36*
X224812Y534415D02*
X224812Y534415D01*
X219455Y539772D01*
X219455Y547348D01*
X224812Y552705D01*
X232388Y552705D01*
X237745Y547348D01*
X237745Y539772D01*
X232388Y534415D01*
X224812Y534415D01*
G37*
%LPD*%
%LPC*%
G36*
X199412Y534415D02*
X199412Y534415D01*
X194055Y539772D01*
X194055Y547348D01*
X199412Y552705D01*
X206988Y552705D01*
X212345Y547348D01*
X212345Y539772D01*
X206988Y534415D01*
X199412Y534415D01*
G37*
%LPD*%
%LPC*%
G36*
X174012Y534415D02*
X174012Y534415D01*
X168655Y539772D01*
X168655Y547348D01*
X174012Y552705D01*
X181588Y552705D01*
X186945Y547348D01*
X186945Y539772D01*
X181588Y534415D01*
X174012Y534415D01*
G37*
%LPD*%
%LPC*%
G36*
X148612Y534415D02*
X148612Y534415D01*
X143255Y539772D01*
X143255Y547348D01*
X148612Y552705D01*
X156188Y552705D01*
X161545Y547348D01*
X161545Y539772D01*
X156188Y534415D01*
X148612Y534415D01*
G37*
%LPD*%
%LPC*%
G36*
X123212Y534415D02*
X123212Y534415D01*
X117855Y539772D01*
X117855Y547348D01*
X123212Y552705D01*
X130788Y552705D01*
X136145Y547348D01*
X136145Y539772D01*
X130788Y534415D01*
X123212Y534415D01*
G37*
%LPD*%
%LPC*%
G36*
X97812Y534415D02*
X97812Y534415D01*
X92455Y539772D01*
X92455Y547348D01*
X97812Y552705D01*
X105388Y552705D01*
X110745Y547348D01*
X110745Y539772D01*
X105388Y534415D01*
X97812Y534415D01*
G37*
%LPD*%
%LPC*%
G36*
X504212Y514095D02*
X504212Y514095D01*
X498855Y519452D01*
X498855Y527028D01*
X504212Y532385D01*
X511788Y532385D01*
X517145Y527028D01*
X517145Y519452D01*
X511788Y514095D01*
X504212Y514095D01*
G37*
%LPD*%
%LPC*%
G36*
X478812Y514095D02*
X478812Y514095D01*
X473455Y519452D01*
X473455Y527028D01*
X478812Y532385D01*
X486388Y532385D01*
X491745Y527028D01*
X491745Y519452D01*
X486388Y514095D01*
X478812Y514095D01*
G37*
%LPD*%
%LPC*%
G36*
X605812Y514095D02*
X605812Y514095D01*
X600455Y519452D01*
X600455Y527028D01*
X605812Y532385D01*
X613388Y532385D01*
X618745Y527028D01*
X618745Y519452D01*
X613388Y514095D01*
X605812Y514095D01*
G37*
%LPD*%
%LPC*%
G36*
X580412Y514095D02*
X580412Y514095D01*
X575055Y519452D01*
X575055Y527028D01*
X580412Y532385D01*
X587988Y532385D01*
X593345Y527028D01*
X593345Y519452D01*
X587988Y514095D01*
X580412Y514095D01*
G37*
%LPD*%
%LPC*%
G36*
X555012Y514095D02*
X555012Y514095D01*
X549655Y519452D01*
X549655Y527028D01*
X555012Y532385D01*
X562588Y532385D01*
X567945Y527028D01*
X567945Y519452D01*
X562588Y514095D01*
X555012Y514095D01*
G37*
%LPD*%
%LPC*%
G36*
X529612Y514095D02*
X529612Y514095D01*
X524255Y519452D01*
X524255Y527028D01*
X529612Y532385D01*
X537188Y532385D01*
X542545Y527028D01*
X542545Y519452D01*
X537188Y514095D01*
X529612Y514095D01*
G37*
%LPD*%
%LPC*%
G36*
X72412Y514095D02*
X72412Y514095D01*
X67055Y519452D01*
X67055Y527028D01*
X72412Y532385D01*
X79988Y532385D01*
X85345Y527028D01*
X85345Y519452D01*
X79988Y514095D01*
X72412Y514095D01*
G37*
%LPD*%
%LPC*%
G36*
X47012Y514095D02*
X47012Y514095D01*
X41655Y519452D01*
X41655Y527028D01*
X47012Y532385D01*
X54588Y532385D01*
X59945Y527028D01*
X59945Y519452D01*
X54588Y514095D01*
X47012Y514095D01*
G37*
%LPD*%
%LPC*%
G36*
X453412Y514095D02*
X453412Y514095D01*
X448055Y519452D01*
X448055Y527028D01*
X453412Y532385D01*
X460988Y532385D01*
X466345Y527028D01*
X466345Y519452D01*
X460988Y514095D01*
X453412Y514095D01*
G37*
%LPD*%
%LPC*%
G36*
X428012Y514095D02*
X428012Y514095D01*
X422655Y519452D01*
X422655Y527028D01*
X428012Y532385D01*
X435588Y532385D01*
X440945Y527028D01*
X440945Y519452D01*
X435588Y514095D01*
X428012Y514095D01*
G37*
%LPD*%
%LPC*%
G36*
X402612Y514095D02*
X402612Y514095D01*
X397255Y519452D01*
X397255Y527028D01*
X402612Y532385D01*
X410188Y532385D01*
X415545Y527028D01*
X415545Y519452D01*
X410188Y514095D01*
X402612Y514095D01*
G37*
%LPD*%
%LPC*%
G36*
X377212Y514095D02*
X377212Y514095D01*
X371855Y519452D01*
X371855Y527028D01*
X377212Y532385D01*
X384788Y532385D01*
X390145Y527028D01*
X390145Y519452D01*
X384788Y514095D01*
X377212Y514095D01*
G37*
%LPD*%
%LPC*%
G36*
X351812Y514095D02*
X351812Y514095D01*
X346455Y519452D01*
X346455Y527028D01*
X351812Y532385D01*
X359388Y532385D01*
X364745Y527028D01*
X364745Y519452D01*
X359388Y514095D01*
X351812Y514095D01*
G37*
%LPD*%
%LPC*%
G36*
X326412Y514095D02*
X326412Y514095D01*
X321055Y519452D01*
X321055Y527028D01*
X326412Y532385D01*
X333988Y532385D01*
X339345Y527028D01*
X339345Y519452D01*
X333988Y514095D01*
X326412Y514095D01*
G37*
%LPD*%
%LPC*%
G36*
X301012Y514095D02*
X301012Y514095D01*
X295655Y519452D01*
X295655Y527028D01*
X301012Y532385D01*
X308588Y532385D01*
X313945Y527028D01*
X313945Y519452D01*
X308588Y514095D01*
X301012Y514095D01*
G37*
%LPD*%
%LPC*%
G36*
X275612Y514095D02*
X275612Y514095D01*
X270255Y519452D01*
X270255Y527028D01*
X275612Y532385D01*
X283188Y532385D01*
X288545Y527028D01*
X288545Y519452D01*
X283188Y514095D01*
X275612Y514095D01*
G37*
%LPD*%
%LPC*%
G36*
X250212Y514095D02*
X250212Y514095D01*
X244855Y519452D01*
X244855Y527028D01*
X250212Y532385D01*
X257788Y532385D01*
X263145Y527028D01*
X263145Y519452D01*
X257788Y514095D01*
X250212Y514095D01*
G37*
%LPD*%
%LPC*%
G36*
X224812Y514095D02*
X224812Y514095D01*
X219455Y519452D01*
X219455Y527028D01*
X224812Y532385D01*
X232388Y532385D01*
X237745Y527028D01*
X237745Y519452D01*
X232388Y514095D01*
X224812Y514095D01*
G37*
%LPD*%
%LPC*%
G36*
X199412Y514095D02*
X199412Y514095D01*
X194055Y519452D01*
X194055Y527028D01*
X199412Y532385D01*
X206988Y532385D01*
X212345Y527028D01*
X212345Y519452D01*
X206988Y514095D01*
X199412Y514095D01*
G37*
%LPD*%
%LPC*%
G36*
X174012Y514095D02*
X174012Y514095D01*
X168655Y519452D01*
X168655Y527028D01*
X174012Y532385D01*
X181588Y532385D01*
X186945Y527028D01*
X186945Y519452D01*
X181588Y514095D01*
X174012Y514095D01*
G37*
%LPD*%
%LPC*%
G36*
X148612Y514095D02*
X148612Y514095D01*
X143255Y519452D01*
X143255Y527028D01*
X148612Y532385D01*
X156188Y532385D01*
X161545Y527028D01*
X161545Y519452D01*
X156188Y514095D01*
X148612Y514095D01*
G37*
%LPD*%
%LPC*%
G36*
X123212Y514095D02*
X123212Y514095D01*
X117855Y519452D01*
X117855Y527028D01*
X123212Y532385D01*
X130788Y532385D01*
X136145Y527028D01*
X136145Y519452D01*
X130788Y514095D01*
X123212Y514095D01*
G37*
%LPD*%
%LPC*%
G36*
X97812Y514095D02*
X97812Y514095D01*
X92455Y519452D01*
X92455Y527028D01*
X97812Y532385D01*
X105388Y532385D01*
X110745Y527028D01*
X110745Y519452D01*
X105388Y514095D01*
X97812Y514095D01*
G37*
%LPD*%
%LPC*%
G36*
X504212Y51815D02*
X504212Y51815D01*
X498855Y57172D01*
X498855Y64748D01*
X504212Y70105D01*
X511788Y70105D01*
X517145Y64748D01*
X517145Y57172D01*
X511788Y51815D01*
X504212Y51815D01*
G37*
%LPD*%
%LPC*%
G36*
X478812Y51815D02*
X478812Y51815D01*
X473455Y57172D01*
X473455Y64748D01*
X478812Y70105D01*
X486388Y70105D01*
X491745Y64748D01*
X491745Y57172D01*
X486388Y51815D01*
X478812Y51815D01*
G37*
%LPD*%
%LPC*%
G36*
X453412Y51815D02*
X453412Y51815D01*
X448055Y57172D01*
X448055Y64748D01*
X453412Y70105D01*
X460988Y70105D01*
X466345Y64748D01*
X466345Y57172D01*
X460988Y51815D01*
X453412Y51815D01*
G37*
%LPD*%
%LPC*%
G36*
X428012Y51815D02*
X428012Y51815D01*
X422655Y57172D01*
X422655Y64748D01*
X428012Y70105D01*
X435588Y70105D01*
X440945Y64748D01*
X440945Y57172D01*
X435588Y51815D01*
X428012Y51815D01*
G37*
%LPD*%
%LPC*%
G36*
X402612Y51815D02*
X402612Y51815D01*
X397255Y57172D01*
X397255Y64748D01*
X402612Y70105D01*
X410188Y70105D01*
X415545Y64748D01*
X415545Y57172D01*
X410188Y51815D01*
X402612Y51815D01*
G37*
%LPD*%
%LPC*%
G36*
X377212Y51815D02*
X377212Y51815D01*
X371855Y57172D01*
X371855Y64748D01*
X377212Y70105D01*
X384788Y70105D01*
X390145Y64748D01*
X390145Y57172D01*
X384788Y51815D01*
X377212Y51815D01*
G37*
%LPD*%
%LPC*%
G36*
X351812Y51815D02*
X351812Y51815D01*
X346455Y57172D01*
X346455Y64748D01*
X351812Y70105D01*
X359388Y70105D01*
X364745Y64748D01*
X364745Y57172D01*
X359388Y51815D01*
X351812Y51815D01*
G37*
%LPD*%
%LPC*%
G36*
X301012Y51815D02*
X301012Y51815D01*
X295655Y57172D01*
X295655Y64748D01*
X301012Y70105D01*
X308588Y70105D01*
X313945Y64748D01*
X313945Y57172D01*
X308588Y51815D01*
X301012Y51815D01*
G37*
%LPD*%
%LPC*%
G36*
X275612Y51815D02*
X275612Y51815D01*
X270255Y57172D01*
X270255Y64748D01*
X275612Y70105D01*
X283188Y70105D01*
X288545Y64748D01*
X288545Y57172D01*
X283188Y51815D01*
X275612Y51815D01*
G37*
%LPD*%
%LPC*%
G36*
X250212Y51815D02*
X250212Y51815D01*
X244855Y57172D01*
X244855Y64748D01*
X250212Y70105D01*
X257788Y70105D01*
X263145Y64748D01*
X263145Y57172D01*
X257788Y51815D01*
X250212Y51815D01*
G37*
%LPD*%
%LPC*%
G36*
X224812Y51815D02*
X224812Y51815D01*
X219455Y57172D01*
X219455Y64748D01*
X224812Y70105D01*
X232388Y70105D01*
X237745Y64748D01*
X237745Y57172D01*
X232388Y51815D01*
X224812Y51815D01*
G37*
%LPD*%
%LPC*%
G36*
X199412Y51815D02*
X199412Y51815D01*
X194055Y57172D01*
X194055Y64748D01*
X199412Y70105D01*
X206988Y70105D01*
X212345Y64748D01*
X212345Y57172D01*
X206988Y51815D01*
X199412Y51815D01*
G37*
%LPD*%
%LPC*%
G36*
X148612Y51815D02*
X148612Y51815D01*
X143255Y57172D01*
X143255Y64748D01*
X148612Y70105D01*
X156188Y70105D01*
X161545Y64748D01*
X161545Y57172D01*
X156188Y51815D01*
X148612Y51815D01*
G37*
%LPD*%
%LPC*%
G36*
X123212Y51815D02*
X123212Y51815D01*
X117855Y57172D01*
X117855Y64748D01*
X123212Y70105D01*
X130788Y70105D01*
X136145Y64748D01*
X136145Y57172D01*
X130788Y51815D01*
X123212Y51815D01*
G37*
%LPD*%
%LPC*%
G36*
X97812Y51815D02*
X97812Y51815D01*
X92455Y57172D01*
X92455Y64748D01*
X97812Y70105D01*
X105388Y70105D01*
X110745Y64748D01*
X110745Y57172D01*
X105388Y51815D01*
X97812Y51815D01*
G37*
%LPD*%
%LPC*%
G36*
X72412Y51815D02*
X72412Y51815D01*
X67055Y57172D01*
X67055Y64748D01*
X72412Y70105D01*
X79988Y70105D01*
X85345Y64748D01*
X85345Y57172D01*
X79988Y51815D01*
X72412Y51815D01*
G37*
%LPD*%
%LPC*%
G36*
X47012Y51815D02*
X47012Y51815D01*
X41655Y57172D01*
X41655Y64748D01*
X47012Y70105D01*
X54588Y70105D01*
X59945Y64748D01*
X59945Y57172D01*
X54588Y51815D01*
X47012Y51815D01*
G37*
%LPD*%
%LPC*%
G36*
X605812Y31495D02*
X605812Y31495D01*
X600455Y36852D01*
X600455Y44428D01*
X605812Y49785D01*
X613388Y49785D01*
X618745Y44428D01*
X618745Y36852D01*
X613388Y31495D01*
X605812Y31495D01*
G37*
%LPD*%
%LPC*%
G36*
X580412Y31495D02*
X580412Y31495D01*
X575055Y36852D01*
X575055Y44428D01*
X580412Y49785D01*
X587988Y49785D01*
X593345Y44428D01*
X593345Y36852D01*
X587988Y31495D01*
X580412Y31495D01*
G37*
%LPD*%
%LPC*%
G36*
X555012Y31495D02*
X555012Y31495D01*
X549655Y36852D01*
X549655Y44428D01*
X555012Y49785D01*
X562588Y49785D01*
X567945Y44428D01*
X567945Y36852D01*
X562588Y31495D01*
X555012Y31495D01*
G37*
%LPD*%
%LPC*%
G36*
X529612Y31495D02*
X529612Y31495D01*
X524255Y36852D01*
X524255Y44428D01*
X529612Y49785D01*
X537188Y49785D01*
X542545Y44428D01*
X542545Y36852D01*
X537188Y31495D01*
X529612Y31495D01*
G37*
%LPD*%
%LPC*%
G36*
X504212Y31495D02*
X504212Y31495D01*
X498855Y36852D01*
X498855Y44428D01*
X504212Y49785D01*
X511788Y49785D01*
X517145Y44428D01*
X517145Y36852D01*
X511788Y31495D01*
X504212Y31495D01*
G37*
%LPD*%
%LPC*%
G36*
X478812Y31495D02*
X478812Y31495D01*
X473455Y36852D01*
X473455Y44428D01*
X478812Y49785D01*
X486388Y49785D01*
X491745Y44428D01*
X491745Y36852D01*
X486388Y31495D01*
X478812Y31495D01*
G37*
%LPD*%
%LPC*%
G36*
X453412Y31495D02*
X453412Y31495D01*
X448055Y36852D01*
X448055Y44428D01*
X453412Y49785D01*
X460988Y49785D01*
X466345Y44428D01*
X466345Y36852D01*
X460988Y31495D01*
X453412Y31495D01*
G37*
%LPD*%
%LPC*%
G36*
X428012Y31495D02*
X428012Y31495D01*
X422655Y36852D01*
X422655Y44428D01*
X428012Y49785D01*
X435588Y49785D01*
X440945Y44428D01*
X440945Y36852D01*
X435588Y31495D01*
X428012Y31495D01*
G37*
%LPD*%
%LPC*%
G36*
X402612Y31495D02*
X402612Y31495D01*
X397255Y36852D01*
X397255Y44428D01*
X402612Y49785D01*
X410188Y49785D01*
X415545Y44428D01*
X415545Y36852D01*
X410188Y31495D01*
X402612Y31495D01*
G37*
%LPD*%
%LPC*%
G36*
X377212Y31495D02*
X377212Y31495D01*
X371855Y36852D01*
X371855Y44428D01*
X377212Y49785D01*
X384788Y49785D01*
X390145Y44428D01*
X390145Y36852D01*
X384788Y31495D01*
X377212Y31495D01*
G37*
%LPD*%
%LPC*%
G36*
X351812Y31495D02*
X351812Y31495D01*
X346455Y36852D01*
X346455Y44428D01*
X351812Y49785D01*
X359388Y49785D01*
X364745Y44428D01*
X364745Y36852D01*
X359388Y31495D01*
X351812Y31495D01*
G37*
%LPD*%
%LPC*%
G36*
X301012Y31495D02*
X301012Y31495D01*
X295655Y36852D01*
X295655Y44428D01*
X301012Y49785D01*
X308588Y49785D01*
X313945Y44428D01*
X313945Y36852D01*
X308588Y31495D01*
X301012Y31495D01*
G37*
%LPD*%
%LPC*%
G36*
X275612Y31495D02*
X275612Y31495D01*
X270255Y36852D01*
X270255Y44428D01*
X275612Y49785D01*
X283188Y49785D01*
X288545Y44428D01*
X288545Y36852D01*
X283188Y31495D01*
X275612Y31495D01*
G37*
%LPD*%
%LPC*%
G36*
X250212Y31495D02*
X250212Y31495D01*
X244855Y36852D01*
X244855Y44428D01*
X250212Y49785D01*
X257788Y49785D01*
X263145Y44428D01*
X263145Y36852D01*
X257788Y31495D01*
X250212Y31495D01*
G37*
%LPD*%
%LPC*%
G36*
X224812Y31495D02*
X224812Y31495D01*
X219455Y36852D01*
X219455Y44428D01*
X224812Y49785D01*
X232388Y49785D01*
X237745Y44428D01*
X237745Y36852D01*
X232388Y31495D01*
X224812Y31495D01*
G37*
%LPD*%
%LPC*%
G36*
X199412Y31495D02*
X199412Y31495D01*
X194055Y36852D01*
X194055Y44428D01*
X199412Y49785D01*
X206988Y49785D01*
X212345Y44428D01*
X212345Y36852D01*
X206988Y31495D01*
X199412Y31495D01*
G37*
%LPD*%
%LPC*%
G36*
X174012Y31495D02*
X174012Y31495D01*
X168655Y36852D01*
X168655Y44428D01*
X174012Y49785D01*
X181588Y49785D01*
X186945Y44428D01*
X186945Y36852D01*
X181588Y31495D01*
X174012Y31495D01*
G37*
%LPD*%
%LPC*%
G36*
X148612Y31495D02*
X148612Y31495D01*
X143255Y36852D01*
X143255Y44428D01*
X148612Y49785D01*
X156188Y49785D01*
X161545Y44428D01*
X161545Y36852D01*
X156188Y31495D01*
X148612Y31495D01*
G37*
%LPD*%
%LPC*%
G36*
X123212Y31495D02*
X123212Y31495D01*
X117855Y36852D01*
X117855Y44428D01*
X123212Y49785D01*
X130788Y49785D01*
X136145Y44428D01*
X136145Y36852D01*
X130788Y31495D01*
X123212Y31495D01*
G37*
%LPD*%
%LPC*%
G36*
X97812Y31495D02*
X97812Y31495D01*
X92455Y36852D01*
X92455Y44428D01*
X97812Y49785D01*
X105388Y49785D01*
X110745Y44428D01*
X110745Y36852D01*
X105388Y31495D01*
X97812Y31495D01*
G37*
%LPD*%
%LPC*%
G36*
X72412Y31495D02*
X72412Y31495D01*
X67055Y36852D01*
X67055Y44428D01*
X72412Y49785D01*
X79988Y49785D01*
X85345Y44428D01*
X85345Y36852D01*
X79988Y31495D01*
X72412Y31495D01*
G37*
%LPD*%
%LPC*%
G36*
X47012Y31495D02*
X47012Y31495D01*
X41655Y36852D01*
X41655Y44428D01*
X47012Y49785D01*
X54588Y49785D01*
X59945Y44428D01*
X59945Y36852D01*
X54588Y31495D01*
X47012Y31495D01*
G37*
%LPD*%
%LPC*%
G36*
X174012Y51815D02*
X174012Y51815D01*
X168655Y57172D01*
X168655Y64748D01*
X174012Y70105D01*
X181588Y70105D01*
X186945Y64748D01*
X186945Y57172D01*
X181588Y51815D01*
X174012Y51815D01*
G37*
%LPD*%
%LPC*%
G36*
X555012Y51815D02*
X555012Y51815D01*
X549655Y57172D01*
X549655Y64748D01*
X555012Y70105D01*
X562588Y70105D01*
X567945Y64748D01*
X567945Y57172D01*
X562588Y51815D01*
X555012Y51815D01*
G37*
%LPD*%
%LPC*%
G36*
X580412Y51815D02*
X580412Y51815D01*
X575055Y57172D01*
X575055Y64748D01*
X580412Y70105D01*
X587988Y70105D01*
X593345Y64748D01*
X593345Y57172D01*
X587988Y51815D01*
X580412Y51815D01*
G37*
%LPD*%
%LPC*%
G36*
X605812Y51815D02*
X605812Y51815D01*
X600455Y57172D01*
X600455Y64748D01*
X605812Y70105D01*
X613388Y70105D01*
X618745Y64748D01*
X618745Y57172D01*
X613388Y51815D01*
X605812Y51815D01*
G37*
%LPD*%
%LPC*%
G36*
X529612Y51815D02*
X529612Y51815D01*
X524255Y57172D01*
X524255Y64748D01*
X529612Y70105D01*
X537188Y70105D01*
X542545Y64748D01*
X542545Y57172D01*
X537188Y51815D01*
X529612Y51815D01*
G37*
%LPD*%
%LPC*%
G36*
X114533Y335533D02*
X114533Y335533D01*
X109473Y340593D01*
X109473Y347747D01*
X114533Y352807D01*
X121687Y352807D01*
X126747Y347747D01*
X126747Y340593D01*
X121687Y335533D01*
X114533Y335533D01*
G37*
%LPD*%
%LPC*%
G36*
X192003Y379983D02*
X192003Y379983D01*
X186943Y385043D01*
X186943Y392197D01*
X192003Y397257D01*
X199157Y397257D01*
X204217Y392197D01*
X204217Y385043D01*
X199157Y379983D01*
X192003Y379983D01*
G37*
%LPD*%
%LPC*%
G36*
X190733Y335533D02*
X190733Y335533D01*
X185673Y340593D01*
X185673Y347747D01*
X190733Y352807D01*
X197887Y352807D01*
X202947Y347747D01*
X202947Y340593D01*
X197887Y335533D01*
X190733Y335533D01*
G37*
%LPD*%
%LPC*%
G36*
X115803Y379983D02*
X115803Y379983D01*
X110743Y385043D01*
X110743Y392197D01*
X115803Y397257D01*
X122957Y397257D01*
X128017Y392197D01*
X128017Y385043D01*
X122957Y379983D01*
X115803Y379983D01*
G37*
%LPD*%
%LPC*%
G36*
X346943Y185673D02*
X346943Y185673D01*
X341883Y190733D01*
X341883Y197887D01*
X346943Y202947D01*
X354097Y202947D01*
X359157Y197887D01*
X359157Y190733D01*
X354097Y185673D01*
X346943Y185673D01*
G37*
%LPD*%
%LPC*%
G36*
X270743Y185673D02*
X270743Y185673D01*
X265683Y190733D01*
X265683Y197887D01*
X270743Y202947D01*
X277897Y202947D01*
X282957Y197887D01*
X282957Y190733D01*
X277897Y185673D01*
X270743Y185673D01*
G37*
%LPD*%
%LPC*%
G36*
X113263Y421893D02*
X113263Y421893D01*
X108203Y426953D01*
X108203Y434107D01*
X113263Y439167D01*
X120417Y439167D01*
X125477Y434107D01*
X125477Y426953D01*
X120417Y421893D01*
X113263Y421893D01*
G37*
%LPD*%
%LPC*%
G36*
X189463Y421893D02*
X189463Y421893D01*
X184403Y426953D01*
X184403Y434107D01*
X189463Y439167D01*
X196617Y439167D01*
X201677Y434107D01*
X201677Y426953D01*
X196617Y421893D01*
X189463Y421893D01*
G37*
%LPD*%
%LPC*%
G36*
X349483Y146303D02*
X349483Y146303D01*
X344423Y151363D01*
X344423Y158517D01*
X349483Y163577D01*
X356637Y163577D01*
X361697Y158517D01*
X361697Y151363D01*
X356637Y146303D01*
X349483Y146303D01*
G37*
%LPD*%
%LPC*%
G36*
X129773Y145033D02*
X129773Y145033D01*
X124713Y150093D01*
X124713Y157247D01*
X129773Y162307D01*
X136927Y162307D01*
X141987Y157247D01*
X141987Y150093D01*
X136927Y145033D01*
X129773Y145033D01*
G37*
%LPD*%
%LPC*%
G36*
X53573Y145033D02*
X53573Y145033D01*
X48513Y150093D01*
X48513Y157247D01*
X53573Y162307D01*
X60727Y162307D01*
X65787Y157247D01*
X65787Y150093D01*
X60727Y145033D01*
X53573Y145033D01*
G37*
%LPD*%
%LPC*%
G36*
X430082Y486663D02*
X430082Y486663D01*
X426908Y487978D01*
X424478Y490408D01*
X423163Y493582D01*
X423163Y497018D01*
X424478Y500192D01*
X426908Y502622D01*
X430082Y503937D01*
X433518Y503937D01*
X436692Y502622D01*
X439122Y500192D01*
X440437Y497018D01*
X440437Y493582D01*
X439122Y490408D01*
X436692Y487978D01*
X433518Y486663D01*
X430082Y486663D01*
G37*
%LPD*%
%LPC*%
G36*
X404682Y486663D02*
X404682Y486663D01*
X401508Y487978D01*
X399078Y490408D01*
X397763Y493582D01*
X397763Y497018D01*
X399078Y500192D01*
X401508Y502622D01*
X404682Y503937D01*
X408118Y503937D01*
X411292Y502622D01*
X413722Y500192D01*
X415037Y497018D01*
X415037Y493582D01*
X413722Y490408D01*
X411292Y487978D01*
X408118Y486663D01*
X404682Y486663D01*
G37*
%LPD*%
%LPC*%
G36*
X379282Y486663D02*
X379282Y486663D01*
X376108Y487978D01*
X373678Y490408D01*
X372363Y493582D01*
X372363Y497018D01*
X373678Y500192D01*
X376108Y502622D01*
X379282Y503937D01*
X382718Y503937D01*
X385892Y502622D01*
X388322Y500192D01*
X389637Y497018D01*
X389637Y493582D01*
X388322Y490408D01*
X385892Y487978D01*
X382718Y486663D01*
X379282Y486663D01*
G37*
%LPD*%
%LPC*%
G36*
X353882Y486663D02*
X353882Y486663D01*
X350708Y487978D01*
X348278Y490408D01*
X346963Y493582D01*
X346963Y497018D01*
X348278Y500192D01*
X350708Y502622D01*
X353882Y503937D01*
X357318Y503937D01*
X360492Y502622D01*
X362922Y500192D01*
X364237Y497018D01*
X364237Y493582D01*
X362922Y490408D01*
X360492Y487978D01*
X357318Y486663D01*
X353882Y486663D01*
G37*
%LPD*%
%LPC*%
G36*
X328482Y486663D02*
X328482Y486663D01*
X325308Y487978D01*
X322878Y490408D01*
X321563Y493582D01*
X321563Y497018D01*
X322878Y500192D01*
X325308Y502622D01*
X328482Y503937D01*
X331918Y503937D01*
X335092Y502622D01*
X337522Y500192D01*
X338837Y497018D01*
X338837Y493582D01*
X337522Y490408D01*
X335092Y487978D01*
X331918Y486663D01*
X328482Y486663D01*
G37*
%LPD*%
%LPC*%
G36*
X74482Y486663D02*
X74482Y486663D01*
X71308Y487978D01*
X68878Y490408D01*
X67563Y493582D01*
X67563Y497018D01*
X68878Y500192D01*
X71308Y502622D01*
X74482Y503937D01*
X77918Y503937D01*
X81092Y502622D01*
X83522Y500192D01*
X84837Y497018D01*
X84837Y493582D01*
X83522Y490408D01*
X81092Y487978D01*
X77918Y486663D01*
X74482Y486663D01*
G37*
%LPD*%
%LPC*%
G36*
X49082Y486663D02*
X49082Y486663D01*
X45908Y487978D01*
X43478Y490408D01*
X42163Y493582D01*
X42163Y497018D01*
X43478Y500192D01*
X45908Y502622D01*
X49082Y503937D01*
X52518Y503937D01*
X55692Y502622D01*
X58122Y500192D01*
X59437Y497018D01*
X59437Y493582D01*
X58122Y490408D01*
X55692Y487978D01*
X52518Y486663D01*
X49082Y486663D01*
G37*
%LPD*%
%LPC*%
G36*
X252282Y486663D02*
X252282Y486663D01*
X249108Y487978D01*
X246678Y490408D01*
X245363Y493582D01*
X245363Y497018D01*
X246678Y500192D01*
X249108Y502622D01*
X252282Y503937D01*
X255718Y503937D01*
X258892Y502622D01*
X261322Y500192D01*
X262637Y497018D01*
X262637Y493582D01*
X261322Y490408D01*
X258892Y487978D01*
X255718Y486663D01*
X252282Y486663D01*
G37*
%LPD*%
%LPC*%
G36*
X226882Y486663D02*
X226882Y486663D01*
X223708Y487978D01*
X221278Y490408D01*
X219963Y493582D01*
X219963Y497018D01*
X221278Y500192D01*
X223708Y502622D01*
X226882Y503937D01*
X230318Y503937D01*
X233492Y502622D01*
X235922Y500192D01*
X237237Y497018D01*
X237237Y493582D01*
X235922Y490408D01*
X233492Y487978D01*
X230318Y486663D01*
X226882Y486663D01*
G37*
%LPD*%
%LPC*%
G36*
X201482Y486663D02*
X201482Y486663D01*
X198308Y487978D01*
X195878Y490408D01*
X194563Y493582D01*
X194563Y497018D01*
X195878Y500192D01*
X198308Y502622D01*
X201482Y503937D01*
X204918Y503937D01*
X208092Y502622D01*
X210522Y500192D01*
X211837Y497018D01*
X211837Y493582D01*
X210522Y490408D01*
X208092Y487978D01*
X204918Y486663D01*
X201482Y486663D01*
G37*
%LPD*%
%LPC*%
G36*
X176082Y486663D02*
X176082Y486663D01*
X172908Y487978D01*
X170478Y490408D01*
X169163Y493582D01*
X169163Y497018D01*
X170478Y500192D01*
X172908Y502622D01*
X176082Y503937D01*
X179518Y503937D01*
X182692Y502622D01*
X185122Y500192D01*
X186437Y497018D01*
X186437Y493582D01*
X185122Y490408D01*
X182692Y487978D01*
X179518Y486663D01*
X176082Y486663D01*
G37*
%LPD*%
%LPC*%
G36*
X150682Y486663D02*
X150682Y486663D01*
X147508Y487978D01*
X145078Y490408D01*
X143763Y493582D01*
X143763Y497018D01*
X145078Y500192D01*
X147508Y502622D01*
X150682Y503937D01*
X154118Y503937D01*
X157292Y502622D01*
X159722Y500192D01*
X161037Y497018D01*
X161037Y493582D01*
X159722Y490408D01*
X157292Y487978D01*
X154118Y486663D01*
X150682Y486663D01*
G37*
%LPD*%
%LPC*%
G36*
X125282Y486663D02*
X125282Y486663D01*
X122108Y487978D01*
X119678Y490408D01*
X118363Y493582D01*
X118363Y497018D01*
X119678Y500192D01*
X122108Y502622D01*
X125282Y503937D01*
X128718Y503937D01*
X131892Y502622D01*
X134322Y500192D01*
X135637Y497018D01*
X135637Y493582D01*
X134322Y490408D01*
X131892Y487978D01*
X128718Y486663D01*
X125282Y486663D01*
G37*
%LPD*%
%LPC*%
G36*
X99882Y486663D02*
X99882Y486663D01*
X96708Y487978D01*
X94278Y490408D01*
X92963Y493582D01*
X92963Y497018D01*
X94278Y500192D01*
X96708Y502622D01*
X99882Y503937D01*
X103318Y503937D01*
X106492Y502622D01*
X108922Y500192D01*
X110237Y497018D01*
X110237Y493582D01*
X108922Y490408D01*
X106492Y487978D01*
X103318Y486663D01*
X99882Y486663D01*
G37*
%LPD*%
%LPC*%
G36*
X455482Y457453D02*
X455482Y457453D01*
X452308Y458768D01*
X449878Y461198D01*
X448563Y464372D01*
X448563Y467808D01*
X449878Y470982D01*
X452308Y473412D01*
X455482Y474727D01*
X458918Y474727D01*
X462092Y473412D01*
X464522Y470982D01*
X465837Y467808D01*
X465837Y464372D01*
X464522Y461198D01*
X462092Y458768D01*
X458918Y457453D01*
X455482Y457453D01*
G37*
%LPD*%
%LPC*%
G36*
X430082Y457453D02*
X430082Y457453D01*
X426908Y458768D01*
X424478Y461198D01*
X423163Y464372D01*
X423163Y467808D01*
X424478Y470982D01*
X426908Y473412D01*
X430082Y474727D01*
X433518Y474727D01*
X436692Y473412D01*
X439122Y470982D01*
X440437Y467808D01*
X440437Y464372D01*
X439122Y461198D01*
X436692Y458768D01*
X433518Y457453D01*
X430082Y457453D01*
G37*
%LPD*%
%LPC*%
G36*
X607882Y457453D02*
X607882Y457453D01*
X604708Y458768D01*
X602278Y461198D01*
X600963Y464372D01*
X600963Y467808D01*
X602278Y470982D01*
X604708Y473412D01*
X607882Y474727D01*
X611318Y474727D01*
X614492Y473412D01*
X616922Y470982D01*
X618237Y467808D01*
X618237Y464372D01*
X616922Y461198D01*
X614492Y458768D01*
X611318Y457453D01*
X607882Y457453D01*
G37*
%LPD*%
%LPC*%
G36*
X582482Y457453D02*
X582482Y457453D01*
X579308Y458768D01*
X576878Y461198D01*
X575563Y464372D01*
X575563Y467808D01*
X576878Y470982D01*
X579308Y473412D01*
X582482Y474727D01*
X585918Y474727D01*
X589092Y473412D01*
X591522Y470982D01*
X592837Y467808D01*
X592837Y464372D01*
X591522Y461198D01*
X589092Y458768D01*
X585918Y457453D01*
X582482Y457453D01*
G37*
%LPD*%
%LPC*%
G36*
X557082Y457453D02*
X557082Y457453D01*
X553908Y458768D01*
X551478Y461198D01*
X550163Y464372D01*
X550163Y467808D01*
X551478Y470982D01*
X553908Y473412D01*
X557082Y474727D01*
X560518Y474727D01*
X563692Y473412D01*
X566122Y470982D01*
X567437Y467808D01*
X567437Y464372D01*
X566122Y461198D01*
X563692Y458768D01*
X560518Y457453D01*
X557082Y457453D01*
G37*
%LPD*%
%LPC*%
G36*
X531682Y457453D02*
X531682Y457453D01*
X528508Y458768D01*
X526078Y461198D01*
X524763Y464372D01*
X524763Y467808D01*
X526078Y470982D01*
X528508Y473412D01*
X531682Y474727D01*
X535118Y474727D01*
X538292Y473412D01*
X540722Y470982D01*
X542037Y467808D01*
X542037Y464372D01*
X540722Y461198D01*
X538292Y458768D01*
X535118Y457453D01*
X531682Y457453D01*
G37*
%LPD*%
%LPC*%
G36*
X506282Y457453D02*
X506282Y457453D01*
X503108Y458768D01*
X500678Y461198D01*
X499363Y464372D01*
X499363Y467808D01*
X500678Y470982D01*
X503108Y473412D01*
X506282Y474727D01*
X509718Y474727D01*
X512892Y473412D01*
X515322Y470982D01*
X516637Y467808D01*
X516637Y464372D01*
X515322Y461198D01*
X512892Y458768D01*
X509718Y457453D01*
X506282Y457453D01*
G37*
%LPD*%
%LPC*%
G36*
X480882Y457453D02*
X480882Y457453D01*
X477708Y458768D01*
X475278Y461198D01*
X473963Y464372D01*
X473963Y467808D01*
X475278Y470982D01*
X477708Y473412D01*
X480882Y474727D01*
X484318Y474727D01*
X487492Y473412D01*
X489922Y470982D01*
X491237Y467808D01*
X491237Y464372D01*
X489922Y461198D01*
X487492Y458768D01*
X484318Y457453D01*
X480882Y457453D01*
G37*
%LPD*%
%LPC*%
G36*
X252282Y457453D02*
X252282Y457453D01*
X249108Y458768D01*
X246678Y461198D01*
X245363Y464372D01*
X245363Y467808D01*
X246678Y470982D01*
X249108Y473412D01*
X252282Y474727D01*
X255718Y474727D01*
X258892Y473412D01*
X261322Y470982D01*
X262637Y467808D01*
X262637Y464372D01*
X261322Y461198D01*
X258892Y458768D01*
X255718Y457453D01*
X252282Y457453D01*
G37*
%LPD*%
%LPC*%
G36*
X226882Y457453D02*
X226882Y457453D01*
X223708Y458768D01*
X221278Y461198D01*
X219963Y464372D01*
X219963Y467808D01*
X221278Y470982D01*
X223708Y473412D01*
X226882Y474727D01*
X230318Y474727D01*
X233492Y473412D01*
X235922Y470982D01*
X237237Y467808D01*
X237237Y464372D01*
X235922Y461198D01*
X233492Y458768D01*
X230318Y457453D01*
X226882Y457453D01*
G37*
%LPD*%
%LPC*%
G36*
X404682Y457453D02*
X404682Y457453D01*
X401508Y458768D01*
X399078Y461198D01*
X397763Y464372D01*
X397763Y467808D01*
X399078Y470982D01*
X401508Y473412D01*
X404682Y474727D01*
X408118Y474727D01*
X411292Y473412D01*
X413722Y470982D01*
X415037Y467808D01*
X415037Y464372D01*
X413722Y461198D01*
X411292Y458768D01*
X408118Y457453D01*
X404682Y457453D01*
G37*
%LPD*%
%LPC*%
G36*
X379282Y457453D02*
X379282Y457453D01*
X376108Y458768D01*
X373678Y461198D01*
X372363Y464372D01*
X372363Y467808D01*
X373678Y470982D01*
X376108Y473412D01*
X379282Y474727D01*
X382718Y474727D01*
X385892Y473412D01*
X388322Y470982D01*
X389637Y467808D01*
X389637Y464372D01*
X388322Y461198D01*
X385892Y458768D01*
X382718Y457453D01*
X379282Y457453D01*
G37*
%LPD*%
%LPC*%
G36*
X353882Y457453D02*
X353882Y457453D01*
X350708Y458768D01*
X348278Y461198D01*
X346963Y464372D01*
X346963Y467808D01*
X348278Y470982D01*
X350708Y473412D01*
X353882Y474727D01*
X357318Y474727D01*
X360492Y473412D01*
X362922Y470982D01*
X364237Y467808D01*
X364237Y464372D01*
X362922Y461198D01*
X360492Y458768D01*
X357318Y457453D01*
X353882Y457453D01*
G37*
%LPD*%
%LPC*%
G36*
X303082Y457453D02*
X303082Y457453D01*
X299908Y458768D01*
X297478Y461198D01*
X296163Y464372D01*
X296163Y467808D01*
X297478Y470982D01*
X299908Y473412D01*
X303082Y474727D01*
X306518Y474727D01*
X309692Y473412D01*
X312122Y470982D01*
X313437Y467808D01*
X313437Y464372D01*
X312122Y461198D01*
X309692Y458768D01*
X306518Y457453D01*
X303082Y457453D01*
G37*
%LPD*%
%LPC*%
G36*
X277682Y457453D02*
X277682Y457453D01*
X274508Y458768D01*
X272078Y461198D01*
X270763Y464372D01*
X270763Y467808D01*
X272078Y470982D01*
X274508Y473412D01*
X277682Y474727D01*
X281118Y474727D01*
X284292Y473412D01*
X286722Y470982D01*
X288037Y467808D01*
X288037Y464372D01*
X286722Y461198D01*
X284292Y458768D01*
X281118Y457453D01*
X277682Y457453D01*
G37*
%LPD*%
%LPC*%
G36*
X176082Y77723D02*
X176082Y77723D01*
X172908Y79038D01*
X170478Y81468D01*
X169163Y84642D01*
X169163Y88078D01*
X170478Y91252D01*
X172908Y93682D01*
X176082Y94997D01*
X179518Y94997D01*
X182692Y93682D01*
X185122Y91252D01*
X186437Y88078D01*
X186437Y84642D01*
X185122Y81468D01*
X182692Y79038D01*
X179518Y77723D01*
X176082Y77723D01*
G37*
%LPD*%
%LPC*%
G36*
X607882Y77723D02*
X607882Y77723D01*
X604708Y79038D01*
X602278Y81468D01*
X600963Y84642D01*
X600963Y88078D01*
X602278Y91252D01*
X604708Y93682D01*
X607882Y94997D01*
X611318Y94997D01*
X614492Y93682D01*
X616922Y91252D01*
X618237Y88078D01*
X618237Y84642D01*
X616922Y81468D01*
X614492Y79038D01*
X611318Y77723D01*
X607882Y77723D01*
G37*
%LPD*%
%LPC*%
G36*
X582482Y77723D02*
X582482Y77723D01*
X579308Y79038D01*
X576878Y81468D01*
X575563Y84642D01*
X575563Y88078D01*
X576878Y91252D01*
X579308Y93682D01*
X582482Y94997D01*
X585918Y94997D01*
X589092Y93682D01*
X591522Y91252D01*
X592837Y88078D01*
X592837Y84642D01*
X591522Y81468D01*
X589092Y79038D01*
X585918Y77723D01*
X582482Y77723D01*
G37*
%LPD*%
%LPC*%
G36*
X557082Y77723D02*
X557082Y77723D01*
X553908Y79038D01*
X551478Y81468D01*
X550163Y84642D01*
X550163Y88078D01*
X551478Y91252D01*
X553908Y93682D01*
X557082Y94997D01*
X560518Y94997D01*
X563692Y93682D01*
X566122Y91252D01*
X567437Y88078D01*
X567437Y84642D01*
X566122Y81468D01*
X563692Y79038D01*
X560518Y77723D01*
X557082Y77723D01*
G37*
%LPD*%
%LPC*%
G36*
X531682Y77723D02*
X531682Y77723D01*
X528508Y79038D01*
X526078Y81468D01*
X524763Y84642D01*
X524763Y88078D01*
X526078Y91252D01*
X528508Y93682D01*
X531682Y94997D01*
X535118Y94997D01*
X538292Y93682D01*
X540722Y91252D01*
X542037Y88078D01*
X542037Y84642D01*
X540722Y81468D01*
X538292Y79038D01*
X535118Y77723D01*
X531682Y77723D01*
G37*
%LPD*%
%LPC*%
G36*
X506282Y77723D02*
X506282Y77723D01*
X503108Y79038D01*
X500678Y81468D01*
X499363Y84642D01*
X499363Y88078D01*
X500678Y91252D01*
X503108Y93682D01*
X506282Y94997D01*
X509718Y94997D01*
X512892Y93682D01*
X515322Y91252D01*
X516637Y88078D01*
X516637Y84642D01*
X515322Y81468D01*
X512892Y79038D01*
X509718Y77723D01*
X506282Y77723D01*
G37*
%LPD*%
%LPC*%
G36*
X455482Y77723D02*
X455482Y77723D01*
X452308Y79038D01*
X449878Y81468D01*
X448563Y84642D01*
X448563Y88078D01*
X449878Y91252D01*
X452308Y93682D01*
X455482Y94997D01*
X458918Y94997D01*
X462092Y93682D01*
X464522Y91252D01*
X465837Y88078D01*
X465837Y84642D01*
X464522Y81468D01*
X462092Y79038D01*
X458918Y77723D01*
X455482Y77723D01*
G37*
%LPD*%
%LPC*%
G36*
X430082Y77723D02*
X430082Y77723D01*
X426908Y79038D01*
X424478Y81468D01*
X423163Y84642D01*
X423163Y88078D01*
X424478Y91252D01*
X426908Y93682D01*
X430082Y94997D01*
X433518Y94997D01*
X436692Y93682D01*
X439122Y91252D01*
X440437Y88078D01*
X440437Y84642D01*
X439122Y81468D01*
X436692Y79038D01*
X433518Y77723D01*
X430082Y77723D01*
G37*
%LPD*%
%LPC*%
G36*
X404682Y77723D02*
X404682Y77723D01*
X401508Y79038D01*
X399078Y81468D01*
X397763Y84642D01*
X397763Y88078D01*
X399078Y91252D01*
X401508Y93682D01*
X404682Y94997D01*
X408118Y94997D01*
X411292Y93682D01*
X413722Y91252D01*
X415037Y88078D01*
X415037Y84642D01*
X413722Y81468D01*
X411292Y79038D01*
X408118Y77723D01*
X404682Y77723D01*
G37*
%LPD*%
%LPC*%
G36*
X379282Y77723D02*
X379282Y77723D01*
X376108Y79038D01*
X373678Y81468D01*
X372363Y84642D01*
X372363Y88078D01*
X373678Y91252D01*
X376108Y93682D01*
X379282Y94997D01*
X382718Y94997D01*
X385892Y93682D01*
X388322Y91252D01*
X389637Y88078D01*
X389637Y84642D01*
X388322Y81468D01*
X385892Y79038D01*
X382718Y77723D01*
X379282Y77723D01*
G37*
%LPD*%
%LPC*%
G36*
X74482Y457453D02*
X74482Y457453D01*
X71308Y458768D01*
X68878Y461198D01*
X67563Y464372D01*
X67563Y467808D01*
X68878Y470982D01*
X71308Y473412D01*
X74482Y474727D01*
X77918Y474727D01*
X81092Y473412D01*
X83522Y470982D01*
X84837Y467808D01*
X84837Y464372D01*
X83522Y461198D01*
X81092Y458768D01*
X77918Y457453D01*
X74482Y457453D01*
G37*
%LPD*%
%LPC*%
G36*
X277682Y77723D02*
X277682Y77723D01*
X274508Y79038D01*
X272078Y81468D01*
X270763Y84642D01*
X270763Y88078D01*
X272078Y91252D01*
X274508Y93682D01*
X277682Y94997D01*
X281118Y94997D01*
X284292Y93682D01*
X286722Y91252D01*
X288037Y88078D01*
X288037Y84642D01*
X286722Y81468D01*
X284292Y79038D01*
X281118Y77723D01*
X277682Y77723D01*
G37*
%LPD*%
%LPC*%
G36*
X201482Y77723D02*
X201482Y77723D01*
X198308Y79038D01*
X195878Y81468D01*
X194563Y84642D01*
X194563Y88078D01*
X195878Y91252D01*
X198308Y93682D01*
X201482Y94997D01*
X204918Y94997D01*
X208092Y93682D01*
X210522Y91252D01*
X211837Y88078D01*
X211837Y84642D01*
X210522Y81468D01*
X208092Y79038D01*
X204918Y77723D01*
X201482Y77723D01*
G37*
%LPD*%
%LPC*%
G36*
X252282Y77723D02*
X252282Y77723D01*
X249108Y79038D01*
X246678Y81468D01*
X245363Y84642D01*
X245363Y88078D01*
X246678Y91252D01*
X249108Y93682D01*
X252282Y94997D01*
X255718Y94997D01*
X258892Y93682D01*
X261322Y91252D01*
X262637Y88078D01*
X262637Y84642D01*
X261322Y81468D01*
X258892Y79038D01*
X255718Y77723D01*
X252282Y77723D01*
G37*
%LPD*%
%LPC*%
G36*
X303082Y77723D02*
X303082Y77723D01*
X299908Y79038D01*
X297478Y81468D01*
X296163Y84642D01*
X296163Y88078D01*
X297478Y91252D01*
X299908Y93682D01*
X303082Y94997D01*
X306518Y94997D01*
X309692Y93682D01*
X312122Y91252D01*
X313437Y88078D01*
X313437Y84642D01*
X312122Y81468D01*
X309692Y79038D01*
X306518Y77723D01*
X303082Y77723D01*
G37*
%LPD*%
%LPC*%
G36*
X150682Y77723D02*
X150682Y77723D01*
X147508Y79038D01*
X145078Y81468D01*
X143763Y84642D01*
X143763Y88078D01*
X145078Y91252D01*
X147508Y93682D01*
X150682Y94997D01*
X154118Y94997D01*
X157292Y93682D01*
X159722Y91252D01*
X161037Y88078D01*
X161037Y84642D01*
X159722Y81468D01*
X157292Y79038D01*
X154118Y77723D01*
X150682Y77723D01*
G37*
%LPD*%
%LPC*%
G36*
X125282Y77723D02*
X125282Y77723D01*
X122108Y79038D01*
X119678Y81468D01*
X118363Y84642D01*
X118363Y88078D01*
X119678Y91252D01*
X122108Y93682D01*
X125282Y94997D01*
X128718Y94997D01*
X131892Y93682D01*
X134322Y91252D01*
X135637Y88078D01*
X135637Y84642D01*
X134322Y81468D01*
X131892Y79038D01*
X128718Y77723D01*
X125282Y77723D01*
G37*
%LPD*%
%LPC*%
G36*
X99882Y77723D02*
X99882Y77723D01*
X96708Y79038D01*
X94278Y81468D01*
X92963Y84642D01*
X92963Y88078D01*
X94278Y91252D01*
X96708Y93682D01*
X99882Y94997D01*
X103318Y94997D01*
X106492Y93682D01*
X108922Y91252D01*
X110237Y88078D01*
X110237Y84642D01*
X108922Y81468D01*
X106492Y79038D01*
X103318Y77723D01*
X99882Y77723D01*
G37*
%LPD*%
%LPC*%
G36*
X74482Y77723D02*
X74482Y77723D01*
X71308Y79038D01*
X68878Y81468D01*
X67563Y84642D01*
X67563Y88078D01*
X68878Y91252D01*
X71308Y93682D01*
X74482Y94997D01*
X77918Y94997D01*
X81092Y93682D01*
X83522Y91252D01*
X84837Y88078D01*
X84837Y84642D01*
X83522Y81468D01*
X81092Y79038D01*
X77918Y77723D01*
X74482Y77723D01*
G37*
%LPD*%
%LPC*%
G36*
X49082Y77723D02*
X49082Y77723D01*
X45908Y79038D01*
X43478Y81468D01*
X42163Y84642D01*
X42163Y88078D01*
X43478Y91252D01*
X45908Y93682D01*
X49082Y94997D01*
X52518Y94997D01*
X55692Y93682D01*
X58122Y91252D01*
X59437Y88078D01*
X59437Y84642D01*
X58122Y81468D01*
X55692Y79038D01*
X52518Y77723D01*
X49082Y77723D01*
G37*
%LPD*%
%LPC*%
G36*
X303082Y486663D02*
X303082Y486663D01*
X299908Y487978D01*
X297478Y490408D01*
X296163Y493582D01*
X296163Y497018D01*
X297478Y500192D01*
X299908Y502622D01*
X303082Y503937D01*
X306518Y503937D01*
X309692Y502622D01*
X312122Y500192D01*
X313437Y497018D01*
X313437Y493582D01*
X312122Y490408D01*
X309692Y487978D01*
X306518Y486663D01*
X303082Y486663D01*
G37*
%LPD*%
%LPC*%
G36*
X220532Y336803D02*
X220532Y336803D01*
X217358Y338118D01*
X214928Y340548D01*
X213613Y343722D01*
X213613Y347158D01*
X214928Y350332D01*
X217358Y352762D01*
X220532Y354077D01*
X223968Y354077D01*
X227142Y352762D01*
X229572Y350332D01*
X230887Y347158D01*
X230887Y343722D01*
X229572Y340548D01*
X227142Y338118D01*
X223968Y336803D01*
X220532Y336803D01*
G37*
%LPD*%
%LPC*%
G36*
X277682Y486663D02*
X277682Y486663D01*
X274508Y487978D01*
X272078Y490408D01*
X270763Y493582D01*
X270763Y497018D01*
X272078Y500192D01*
X274508Y502622D01*
X277682Y503937D01*
X281118Y503937D01*
X284292Y502622D01*
X286722Y500192D01*
X288037Y497018D01*
X288037Y493582D01*
X286722Y490408D01*
X284292Y487978D01*
X281118Y486663D01*
X277682Y486663D01*
G37*
%LPD*%
%LPC*%
G36*
X607882Y486663D02*
X607882Y486663D01*
X604708Y487978D01*
X602278Y490408D01*
X600963Y493582D01*
X600963Y497018D01*
X602278Y500192D01*
X604708Y502622D01*
X607882Y503937D01*
X611318Y503937D01*
X614492Y502622D01*
X616922Y500192D01*
X618237Y497018D01*
X618237Y493582D01*
X616922Y490408D01*
X614492Y487978D01*
X611318Y486663D01*
X607882Y486663D01*
G37*
%LPD*%
%LPC*%
G36*
X582482Y486663D02*
X582482Y486663D01*
X579308Y487978D01*
X576878Y490408D01*
X575563Y493582D01*
X575563Y497018D01*
X576878Y500192D01*
X579308Y502622D01*
X582482Y503937D01*
X585918Y503937D01*
X589092Y502622D01*
X591522Y500192D01*
X592837Y497018D01*
X592837Y493582D01*
X591522Y490408D01*
X589092Y487978D01*
X585918Y486663D01*
X582482Y486663D01*
G37*
%LPD*%
%LPC*%
G36*
X226882Y77723D02*
X226882Y77723D01*
X223708Y79038D01*
X221278Y81468D01*
X219963Y84642D01*
X219963Y88078D01*
X221278Y91252D01*
X223708Y93682D01*
X226882Y94997D01*
X230318Y94997D01*
X233492Y93682D01*
X235922Y91252D01*
X237237Y88078D01*
X237237Y84642D01*
X235922Y81468D01*
X233492Y79038D01*
X230318Y77723D01*
X226882Y77723D01*
G37*
%LPD*%
%LPC*%
G36*
X219262Y379983D02*
X219262Y379983D01*
X216088Y381298D01*
X213658Y383728D01*
X212343Y386902D01*
X212343Y390338D01*
X213658Y393512D01*
X216088Y395942D01*
X219262Y397257D01*
X222698Y397257D01*
X225872Y395942D01*
X228302Y393512D01*
X229617Y390338D01*
X229617Y386902D01*
X228302Y383728D01*
X225872Y381298D01*
X222698Y379983D01*
X219262Y379983D01*
G37*
%LPD*%
%LPC*%
G36*
X557082Y486663D02*
X557082Y486663D01*
X553908Y487978D01*
X551478Y490408D01*
X550163Y493582D01*
X550163Y497018D01*
X551478Y500192D01*
X553908Y502622D01*
X557082Y503937D01*
X560518Y503937D01*
X563692Y502622D01*
X566122Y500192D01*
X567437Y497018D01*
X567437Y493582D01*
X566122Y490408D01*
X563692Y487978D01*
X560518Y486663D01*
X557082Y486663D01*
G37*
%LPD*%
%LPC*%
G36*
X531682Y486663D02*
X531682Y486663D01*
X528508Y487978D01*
X526078Y490408D01*
X524763Y493582D01*
X524763Y497018D01*
X526078Y500192D01*
X528508Y502622D01*
X531682Y503937D01*
X535118Y503937D01*
X538292Y502622D01*
X540722Y500192D01*
X542037Y497018D01*
X542037Y493582D01*
X540722Y490408D01*
X538292Y487978D01*
X535118Y486663D01*
X531682Y486663D01*
G37*
%LPD*%
%LPC*%
G36*
X217992Y421893D02*
X217992Y421893D01*
X214818Y423208D01*
X212388Y425638D01*
X211073Y428812D01*
X211073Y432248D01*
X212388Y435422D01*
X214818Y437852D01*
X217992Y439167D01*
X221428Y439167D01*
X224602Y437852D01*
X227032Y435422D01*
X228347Y432248D01*
X228347Y428812D01*
X227032Y425638D01*
X224602Y423208D01*
X221428Y421893D01*
X217992Y421893D01*
G37*
%LPD*%
%LPC*%
G36*
X99882Y457453D02*
X99882Y457453D01*
X96708Y458768D01*
X94278Y461198D01*
X92963Y464372D01*
X92963Y467808D01*
X94278Y470982D01*
X96708Y473412D01*
X99882Y474727D01*
X103318Y474727D01*
X106492Y473412D01*
X108922Y470982D01*
X110237Y467808D01*
X110237Y464372D01*
X108922Y461198D01*
X106492Y458768D01*
X103318Y457453D01*
X99882Y457453D01*
G37*
%LPD*%
%LPC*%
G36*
X125282Y457453D02*
X125282Y457453D01*
X122108Y458768D01*
X119678Y461198D01*
X118363Y464372D01*
X118363Y467808D01*
X119678Y470982D01*
X122108Y473412D01*
X125282Y474727D01*
X128718Y474727D01*
X131892Y473412D01*
X134322Y470982D01*
X135637Y467808D01*
X135637Y464372D01*
X134322Y461198D01*
X131892Y458768D01*
X128718Y457453D01*
X125282Y457453D01*
G37*
%LPD*%
%LPC*%
G36*
X150682Y457453D02*
X150682Y457453D01*
X147508Y458768D01*
X145078Y461198D01*
X143763Y464372D01*
X143763Y467808D01*
X145078Y470982D01*
X147508Y473412D01*
X150682Y474727D01*
X154118Y474727D01*
X157292Y473412D01*
X159722Y470982D01*
X161037Y467808D01*
X161037Y464372D01*
X159722Y461198D01*
X157292Y458768D01*
X154118Y457453D01*
X150682Y457453D01*
G37*
%LPD*%
%LPC*%
G36*
X176082Y457453D02*
X176082Y457453D01*
X172908Y458768D01*
X170478Y461198D01*
X169163Y464372D01*
X169163Y467808D01*
X170478Y470982D01*
X172908Y473412D01*
X176082Y474727D01*
X179518Y474727D01*
X182692Y473412D01*
X185122Y470982D01*
X186437Y467808D01*
X186437Y464372D01*
X185122Y461198D01*
X182692Y458768D01*
X179518Y457453D01*
X176082Y457453D01*
G37*
%LPD*%
%LPC*%
G36*
X201482Y457453D02*
X201482Y457453D01*
X198308Y458768D01*
X195878Y461198D01*
X194563Y464372D01*
X194563Y467808D01*
X195878Y470982D01*
X198308Y473412D01*
X201482Y474727D01*
X204918Y474727D01*
X208092Y473412D01*
X210522Y470982D01*
X211837Y467808D01*
X211837Y464372D01*
X210522Y461198D01*
X208092Y458768D01*
X204918Y457453D01*
X201482Y457453D01*
G37*
%LPD*%
%LPC*%
G36*
X49082Y457453D02*
X49082Y457453D01*
X45908Y458768D01*
X43478Y461198D01*
X42163Y464372D01*
X42163Y467808D01*
X43478Y470982D01*
X45908Y473412D01*
X49082Y474727D01*
X52518Y474727D01*
X55692Y473412D01*
X58122Y470982D01*
X59437Y467808D01*
X59437Y464372D01*
X58122Y461198D01*
X55692Y458768D01*
X52518Y457453D01*
X49082Y457453D01*
G37*
%LPD*%
%LPC*%
G36*
X328482Y457453D02*
X328482Y457453D01*
X325308Y458768D01*
X322878Y461198D01*
X321563Y464372D01*
X321563Y467808D01*
X322878Y470982D01*
X325308Y473412D01*
X328482Y474727D01*
X331918Y474727D01*
X335092Y473412D01*
X337522Y470982D01*
X338837Y467808D01*
X338837Y464372D01*
X337522Y461198D01*
X335092Y458768D01*
X331918Y457453D01*
X328482Y457453D01*
G37*
%LPD*%
%LPC*%
G36*
X506282Y486663D02*
X506282Y486663D01*
X503108Y487978D01*
X500678Y490408D01*
X499363Y493582D01*
X499363Y497018D01*
X500678Y500192D01*
X503108Y502622D01*
X506282Y503937D01*
X509718Y503937D01*
X512892Y502622D01*
X515322Y500192D01*
X516637Y497018D01*
X516637Y493582D01*
X515322Y490408D01*
X512892Y487978D01*
X509718Y486663D01*
X506282Y486663D01*
G37*
%LPD*%
%LPC*%
G36*
X480882Y486663D02*
X480882Y486663D01*
X477708Y487978D01*
X475278Y490408D01*
X473963Y493582D01*
X473963Y497018D01*
X475278Y500192D01*
X477708Y502622D01*
X480882Y503937D01*
X484318Y503937D01*
X487492Y502622D01*
X489922Y500192D01*
X491237Y497018D01*
X491237Y493582D01*
X489922Y490408D01*
X487492Y487978D01*
X484318Y486663D01*
X480882Y486663D01*
G37*
%LPD*%
%LPC*%
G36*
X455482Y486663D02*
X455482Y486663D01*
X452308Y487978D01*
X449878Y490408D01*
X448563Y493582D01*
X448563Y497018D01*
X449878Y500192D01*
X452308Y502622D01*
X455482Y503937D01*
X458918Y503937D01*
X462092Y502622D01*
X464522Y500192D01*
X465837Y497018D01*
X465837Y493582D01*
X464522Y490408D01*
X462092Y487978D01*
X458918Y486663D01*
X455482Y486663D01*
G37*
%LPD*%
%LPC*%
G36*
X150682Y109473D02*
X150682Y109473D01*
X147508Y110788D01*
X145078Y113218D01*
X143763Y116392D01*
X143763Y119828D01*
X145078Y123002D01*
X147508Y125432D01*
X150682Y126747D01*
X154118Y126747D01*
X157292Y125432D01*
X159722Y123002D01*
X161037Y119828D01*
X161037Y116392D01*
X159722Y113218D01*
X157292Y110788D01*
X154118Y109473D01*
X150682Y109473D01*
G37*
%LPD*%
%LPC*%
G36*
X99882Y109473D02*
X99882Y109473D01*
X96708Y110788D01*
X94278Y113218D01*
X92963Y116392D01*
X92963Y119828D01*
X94278Y123002D01*
X96708Y125432D01*
X99882Y126747D01*
X103318Y126747D01*
X106492Y125432D01*
X108922Y123002D01*
X110237Y119828D01*
X110237Y116392D01*
X108922Y113218D01*
X106492Y110788D01*
X103318Y109473D01*
X99882Y109473D01*
G37*
%LPD*%
%LPC*%
G36*
X74482Y109473D02*
X74482Y109473D01*
X71308Y110788D01*
X68878Y113218D01*
X67563Y116392D01*
X67563Y119828D01*
X68878Y123002D01*
X71308Y125432D01*
X74482Y126747D01*
X77918Y126747D01*
X81092Y125432D01*
X83522Y123002D01*
X84837Y119828D01*
X84837Y116392D01*
X83522Y113218D01*
X81092Y110788D01*
X77918Y109473D01*
X74482Y109473D01*
G37*
%LPD*%
%LPC*%
G36*
X277682Y109473D02*
X277682Y109473D01*
X274508Y110788D01*
X272078Y113218D01*
X270763Y116392D01*
X270763Y119828D01*
X272078Y123002D01*
X274508Y125432D01*
X277682Y126747D01*
X281118Y126747D01*
X284292Y125432D01*
X286722Y123002D01*
X288037Y119828D01*
X288037Y116392D01*
X286722Y113218D01*
X284292Y110788D01*
X281118Y109473D01*
X277682Y109473D01*
G37*
%LPD*%
%LPC*%
G36*
X607882Y109473D02*
X607882Y109473D01*
X604708Y110788D01*
X602278Y113218D01*
X600963Y116392D01*
X600963Y119828D01*
X602278Y123002D01*
X604708Y125432D01*
X607882Y126747D01*
X611318Y126747D01*
X614492Y125432D01*
X616922Y123002D01*
X618237Y119828D01*
X618237Y116392D01*
X616922Y113218D01*
X614492Y110788D01*
X611318Y109473D01*
X607882Y109473D01*
G37*
%LPD*%
%LPC*%
G36*
X582482Y109473D02*
X582482Y109473D01*
X579308Y110788D01*
X576878Y113218D01*
X575563Y116392D01*
X575563Y119828D01*
X576878Y123002D01*
X579308Y125432D01*
X582482Y126747D01*
X585918Y126747D01*
X589092Y125432D01*
X591522Y123002D01*
X592837Y119828D01*
X592837Y116392D01*
X591522Y113218D01*
X589092Y110788D01*
X585918Y109473D01*
X582482Y109473D01*
G37*
%LPD*%
%LPC*%
G36*
X557082Y109473D02*
X557082Y109473D01*
X553908Y110788D01*
X551478Y113218D01*
X550163Y116392D01*
X550163Y119828D01*
X551478Y123002D01*
X553908Y125432D01*
X557082Y126747D01*
X560518Y126747D01*
X563692Y125432D01*
X566122Y123002D01*
X567437Y119828D01*
X567437Y116392D01*
X566122Y113218D01*
X563692Y110788D01*
X560518Y109473D01*
X557082Y109473D01*
G37*
%LPD*%
%LPC*%
G36*
X531682Y109473D02*
X531682Y109473D01*
X528508Y110788D01*
X526078Y113218D01*
X524763Y116392D01*
X524763Y119828D01*
X526078Y123002D01*
X528508Y125432D01*
X531682Y126747D01*
X535118Y126747D01*
X538292Y125432D01*
X540722Y123002D01*
X542037Y119828D01*
X542037Y116392D01*
X540722Y113218D01*
X538292Y110788D01*
X535118Y109473D01*
X531682Y109473D01*
G37*
%LPD*%
%LPC*%
G36*
X506282Y109473D02*
X506282Y109473D01*
X503108Y110788D01*
X500678Y113218D01*
X499363Y116392D01*
X499363Y119828D01*
X500678Y123002D01*
X503108Y125432D01*
X506282Y126747D01*
X509718Y126747D01*
X512892Y125432D01*
X515322Y123002D01*
X516637Y119828D01*
X516637Y116392D01*
X515322Y113218D01*
X512892Y110788D01*
X509718Y109473D01*
X506282Y109473D01*
G37*
%LPD*%
%LPC*%
G36*
X480882Y109473D02*
X480882Y109473D01*
X477708Y110788D01*
X475278Y113218D01*
X473963Y116392D01*
X473963Y119828D01*
X475278Y123002D01*
X477708Y125432D01*
X480882Y126747D01*
X484318Y126747D01*
X487492Y125432D01*
X489922Y123002D01*
X491237Y119828D01*
X491237Y116392D01*
X489922Y113218D01*
X487492Y110788D01*
X484318Y109473D01*
X480882Y109473D01*
G37*
%LPD*%
%LPC*%
G36*
X455482Y109473D02*
X455482Y109473D01*
X452308Y110788D01*
X449878Y113218D01*
X448563Y116392D01*
X448563Y119828D01*
X449878Y123002D01*
X452308Y125432D01*
X455482Y126747D01*
X458918Y126747D01*
X462092Y125432D01*
X464522Y123002D01*
X465837Y119828D01*
X465837Y116392D01*
X464522Y113218D01*
X462092Y110788D01*
X458918Y109473D01*
X455482Y109473D01*
G37*
%LPD*%
%LPC*%
G36*
X404682Y109473D02*
X404682Y109473D01*
X401508Y110788D01*
X399078Y113218D01*
X397763Y116392D01*
X397763Y119828D01*
X399078Y123002D01*
X401508Y125432D01*
X404682Y126747D01*
X408118Y126747D01*
X411292Y125432D01*
X413722Y123002D01*
X415037Y119828D01*
X415037Y116392D01*
X413722Y113218D01*
X411292Y110788D01*
X408118Y109473D01*
X404682Y109473D01*
G37*
%LPD*%
%LPC*%
G36*
X379282Y109473D02*
X379282Y109473D01*
X376108Y110788D01*
X373678Y113218D01*
X372363Y116392D01*
X372363Y119828D01*
X373678Y123002D01*
X376108Y125432D01*
X379282Y126747D01*
X382718Y126747D01*
X385892Y125432D01*
X388322Y123002D01*
X389637Y119828D01*
X389637Y116392D01*
X388322Y113218D01*
X385892Y110788D01*
X382718Y109473D01*
X379282Y109473D01*
G37*
%LPD*%
%LPC*%
G36*
X353882Y109473D02*
X353882Y109473D01*
X350708Y110788D01*
X348278Y113218D01*
X346963Y116392D01*
X346963Y119828D01*
X348278Y123002D01*
X350708Y125432D01*
X353882Y126747D01*
X357318Y126747D01*
X360492Y125432D01*
X362922Y123002D01*
X364237Y119828D01*
X364237Y116392D01*
X362922Y113218D01*
X360492Y110788D01*
X357318Y109473D01*
X353882Y109473D01*
G37*
%LPD*%
%LPC*%
G36*
X328482Y109473D02*
X328482Y109473D01*
X325308Y110788D01*
X322878Y113218D01*
X321563Y116392D01*
X321563Y119828D01*
X322878Y123002D01*
X325308Y125432D01*
X328482Y126747D01*
X331918Y126747D01*
X335092Y125432D01*
X337522Y123002D01*
X338837Y119828D01*
X338837Y116392D01*
X337522Y113218D01*
X335092Y110788D01*
X331918Y109473D01*
X328482Y109473D01*
G37*
%LPD*%
%LPC*%
G36*
X303082Y109473D02*
X303082Y109473D01*
X299908Y110788D01*
X297478Y113218D01*
X296163Y116392D01*
X296163Y119828D01*
X297478Y123002D01*
X299908Y125432D01*
X303082Y126747D01*
X306518Y126747D01*
X309692Y125432D01*
X312122Y123002D01*
X313437Y119828D01*
X313437Y116392D01*
X312122Y113218D01*
X309692Y110788D01*
X306518Y109473D01*
X303082Y109473D01*
G37*
%LPD*%
%LPC*%
G36*
X49082Y109473D02*
X49082Y109473D01*
X45908Y110788D01*
X43478Y113218D01*
X42163Y116392D01*
X42163Y119828D01*
X43478Y123002D01*
X45908Y125432D01*
X49082Y126747D01*
X52518Y126747D01*
X55692Y125432D01*
X58122Y123002D01*
X59437Y119828D01*
X59437Y116392D01*
X58122Y113218D01*
X55692Y110788D01*
X52518Y109473D01*
X49082Y109473D01*
G37*
%LPD*%
%LPC*%
G36*
X252282Y109473D02*
X252282Y109473D01*
X249108Y110788D01*
X246678Y113218D01*
X245363Y116392D01*
X245363Y119828D01*
X246678Y123002D01*
X249108Y125432D01*
X252282Y126747D01*
X255718Y126747D01*
X258892Y125432D01*
X261322Y123002D01*
X262637Y119828D01*
X262637Y116392D01*
X261322Y113218D01*
X258892Y110788D01*
X255718Y109473D01*
X252282Y109473D01*
G37*
%LPD*%
%LPC*%
G36*
X226882Y109473D02*
X226882Y109473D01*
X223708Y110788D01*
X221278Y113218D01*
X219963Y116392D01*
X219963Y119828D01*
X221278Y123002D01*
X223708Y125432D01*
X226882Y126747D01*
X230318Y126747D01*
X233492Y125432D01*
X235922Y123002D01*
X237237Y119828D01*
X237237Y116392D01*
X235922Y113218D01*
X233492Y110788D01*
X230318Y109473D01*
X226882Y109473D01*
G37*
%LPD*%
%LPC*%
G36*
X201482Y109473D02*
X201482Y109473D01*
X198308Y110788D01*
X195878Y113218D01*
X194563Y116392D01*
X194563Y119828D01*
X195878Y123002D01*
X198308Y125432D01*
X201482Y126747D01*
X204918Y126747D01*
X208092Y125432D01*
X210522Y123002D01*
X211837Y119828D01*
X211837Y116392D01*
X210522Y113218D01*
X208092Y110788D01*
X204918Y109473D01*
X201482Y109473D01*
G37*
%LPD*%
%LPC*%
G36*
X176082Y109473D02*
X176082Y109473D01*
X172908Y110788D01*
X170478Y113218D01*
X169163Y116392D01*
X169163Y119828D01*
X170478Y123002D01*
X172908Y125432D01*
X176082Y126747D01*
X179518Y126747D01*
X182692Y125432D01*
X185122Y123002D01*
X186437Y119828D01*
X186437Y116392D01*
X185122Y113218D01*
X182692Y110788D01*
X179518Y109473D01*
X176082Y109473D01*
G37*
%LPD*%
%LPC*%
G36*
X125282Y108203D02*
X125282Y108203D01*
X122108Y109518D01*
X119678Y111948D01*
X118363Y115122D01*
X118363Y118558D01*
X119678Y121732D01*
X122108Y124162D01*
X125282Y125477D01*
X128718Y125477D01*
X131892Y124162D01*
X134322Y121732D01*
X135637Y118558D01*
X135637Y115122D01*
X134322Y111948D01*
X131892Y109518D01*
X128718Y108203D01*
X125282Y108203D01*
G37*
%LPD*%
%LPC*%
G36*
X480882Y78993D02*
X480882Y78993D01*
X477708Y80308D01*
X475278Y82738D01*
X473963Y85912D01*
X473963Y89348D01*
X475278Y92522D01*
X477708Y94952D01*
X480882Y96267D01*
X484318Y96267D01*
X487492Y94952D01*
X489922Y92522D01*
X491237Y89348D01*
X491237Y85912D01*
X489922Y82738D01*
X487492Y80308D01*
X484318Y78993D01*
X480882Y78993D01*
G37*
%LPD*%
%LPC*%
G36*
X353882Y77723D02*
X353882Y77723D01*
X350708Y79038D01*
X348278Y81468D01*
X346963Y84642D01*
X346963Y88078D01*
X348278Y91252D01*
X350708Y93682D01*
X353882Y94997D01*
X357318Y94997D01*
X360492Y93682D01*
X362922Y91252D01*
X364237Y88078D01*
X364237Y84642D01*
X362922Y81468D01*
X360492Y79038D01*
X357318Y77723D01*
X353882Y77723D01*
G37*
%LPD*%
D10*
X50800Y40640D03*
X50800Y60960D03*
X76200Y40640D03*
X76200Y60960D03*
X101600Y40640D03*
X101600Y60960D03*
X127000Y40640D03*
X127000Y60960D03*
X152400Y40640D03*
X152400Y60960D03*
X177800Y40640D03*
X177800Y60960D03*
X203200Y40640D03*
X203200Y60960D03*
X228600Y40640D03*
X228600Y60960D03*
X254000Y40640D03*
X254000Y60960D03*
X279400Y40640D03*
X279400Y60960D03*
X304800Y40640D03*
X304800Y60960D03*
X330200Y40640D03*
X330200Y60960D03*
X355600Y40640D03*
X355600Y60960D03*
X381000Y40640D03*
X381000Y60960D03*
X406400Y40640D03*
X406400Y60960D03*
X431800Y40640D03*
X431800Y60960D03*
X457200Y40640D03*
X457200Y60960D03*
X482600Y40640D03*
X482600Y60960D03*
X508000Y40640D03*
X508000Y60960D03*
X533400Y40640D03*
X533400Y60960D03*
X558800Y40640D03*
X558800Y60960D03*
X584200Y40640D03*
X584200Y60960D03*
X609600Y40640D03*
X609600Y60960D03*
D11*
X194310Y344170D03*
X118110Y344170D03*
D12*
X406400Y466090D03*
X431800Y466090D03*
X457200Y466090D03*
X482600Y466090D03*
X508000Y466090D03*
X533400Y466090D03*
X558800Y466090D03*
X584200Y466090D03*
X609600Y466090D03*
D13*
X139700Y233680D02*
X139700Y218440D01*
X114300Y218440D02*
X114300Y233680D01*
D11*
X193040Y430530D03*
X116840Y430530D03*
D12*
X222250Y345440D03*
X219710Y430530D03*
X220980Y388620D03*
D11*
X195580Y388620D03*
X119380Y388620D03*
D13*
X227330Y187960D02*
X227330Y172720D01*
X201930Y172720D02*
X201930Y187960D01*
X176530Y187960D02*
X176530Y172720D01*
X151130Y172720D02*
X151130Y187960D01*
D11*
X133350Y153670D03*
X57150Y153670D03*
D14*
X274320Y194310D03*
X350520Y194310D03*
X276860Y154940D03*
X353060Y154940D03*
D12*
X50800Y118110D03*
X76200Y118110D03*
X101600Y118110D03*
D10*
X50800Y523240D03*
X50800Y543560D03*
X76200Y523240D03*
X76200Y543560D03*
X101600Y523240D03*
X101600Y543560D03*
X127000Y523240D03*
X127000Y543560D03*
X152400Y523240D03*
X152400Y543560D03*
X177800Y523240D03*
X177800Y543560D03*
X203200Y523240D03*
X203200Y543560D03*
X228600Y523240D03*
X228600Y543560D03*
X254000Y523240D03*
X254000Y543560D03*
X279400Y523240D03*
X279400Y543560D03*
X304800Y523240D03*
X304800Y543560D03*
X330200Y523240D03*
X330200Y543560D03*
X355600Y523240D03*
X355600Y543560D03*
X381000Y523240D03*
X381000Y543560D03*
X406400Y523240D03*
X406400Y543560D03*
X431800Y523240D03*
X431800Y543560D03*
X457200Y523240D03*
X457200Y543560D03*
X482600Y523240D03*
X482600Y543560D03*
X508000Y523240D03*
X508000Y543560D03*
X533400Y523240D03*
X533400Y543560D03*
X558800Y523240D03*
X558800Y543560D03*
X584200Y523240D03*
X584200Y543560D03*
X609600Y523240D03*
X609600Y543560D03*
D12*
X127000Y116840D03*
X152400Y118110D03*
X177800Y118110D03*
X203200Y118110D03*
X228600Y118110D03*
X254000Y118110D03*
X279400Y118110D03*
X304800Y118110D03*
X330200Y118110D03*
X355600Y118110D03*
D13*
X464820Y165100D02*
X480060Y165100D01*
X480060Y190500D02*
X464820Y190500D01*
X464820Y215900D02*
X480060Y215900D01*
X480060Y241300D02*
X464820Y241300D01*
D12*
X381000Y118110D03*
X406400Y118110D03*
X431800Y118110D03*
X457200Y118110D03*
X482600Y118110D03*
X508000Y118110D03*
X533400Y118110D03*
X558800Y118110D03*
X584200Y118110D03*
X609600Y118110D03*
D13*
X444500Y166370D02*
X429260Y166370D01*
X429260Y191770D02*
X444500Y191770D01*
X444500Y217170D02*
X429260Y217170D01*
X429260Y242570D02*
X444500Y242570D01*
D12*
X50800Y86360D03*
X76200Y86360D03*
X101600Y86360D03*
X127000Y86360D03*
X152400Y86360D03*
X177800Y86360D03*
X203200Y86360D03*
X228600Y86360D03*
X254000Y86360D03*
X279400Y86360D03*
D13*
X393700Y166370D02*
X408940Y166370D01*
X408940Y191770D02*
X393700Y191770D01*
X393700Y217170D02*
X408940Y217170D01*
X408940Y242570D02*
X393700Y242570D01*
D12*
X304800Y86360D03*
X330200Y86360D03*
X355600Y86360D03*
X381000Y86360D03*
X406400Y86360D03*
X431800Y86360D03*
X457200Y86360D03*
X482600Y87630D03*
X508000Y86360D03*
X533400Y86360D03*
D13*
X548640Y259080D02*
X548640Y274320D01*
X574040Y274320D02*
X574040Y259080D01*
X599440Y259080D02*
X599440Y274320D01*
D12*
X558800Y86360D03*
X584200Y86360D03*
X609600Y86360D03*
X50800Y495300D03*
X76200Y495300D03*
X101600Y495300D03*
X127000Y495300D03*
X152400Y495300D03*
X177800Y495300D03*
X203200Y495300D03*
D13*
X548640Y236220D02*
X548640Y220980D01*
X574040Y220980D02*
X574040Y236220D01*
X599440Y236220D02*
X599440Y220980D01*
D12*
X228600Y495300D03*
X254000Y495300D03*
X279400Y495300D03*
X304800Y495300D03*
X330200Y495300D03*
X355600Y495300D03*
X381000Y495300D03*
X406400Y495300D03*
X431800Y495300D03*
X457200Y495300D03*
D13*
X548640Y203200D02*
X548640Y187960D01*
X574040Y187960D02*
X574040Y203200D01*
X599440Y203200D02*
X599440Y187960D01*
D12*
X482600Y495300D03*
X508000Y495300D03*
X533400Y495300D03*
X558800Y495300D03*
X584200Y495300D03*
X609600Y495300D03*
X50800Y466090D03*
X76200Y466090D03*
X101600Y466090D03*
X127000Y466090D03*
D13*
X548640Y165100D02*
X548640Y149860D01*
X574040Y149860D02*
X574040Y165100D01*
X599440Y165100D02*
X599440Y149860D01*
D12*
X152400Y466090D03*
X177800Y466090D03*
X203200Y466090D03*
X228600Y466090D03*
X254000Y466090D03*
X279400Y466090D03*
X304800Y466090D03*
X330200Y466090D03*
X355600Y466090D03*
X381000Y466090D03*
D15*
X548640Y167640D02*
X548640Y157480D01*
X548640Y167640D02*
X542544Y173736D01*
X542544Y178308D01*
X548640Y184404D01*
X548640Y195580D01*
X548640Y256032D02*
X548640Y266700D01*
X548640Y256032D02*
X542544Y249936D01*
X542544Y245364D01*
X548640Y239268D01*
X548640Y228600D01*
X435864Y121920D02*
X432816Y118872D01*
X435864Y121920D02*
X437388Y121920D01*
X466344Y150876D01*
X542544Y150876D01*
X548640Y156972D01*
X432816Y118872D02*
X431800Y118110D01*
X548640Y156972D02*
X548640Y157480D01*
X573024Y158496D02*
X573024Y164592D01*
X563880Y173736D01*
X563880Y175260D01*
X573024Y184404D01*
X573024Y195072D01*
X573024Y158496D02*
X574040Y157480D01*
X573024Y195072D02*
X574040Y195580D01*
X330200Y86360D02*
X326136Y82296D01*
X324612Y82296D01*
X318516Y76200D01*
X318516Y51816D01*
X329184Y41148D01*
X330200Y40640D01*
X384048Y167640D02*
X400812Y167640D01*
X384048Y167640D02*
X381000Y170688D01*
X292608Y170688D01*
X276860Y154940D01*
X400812Y167640D02*
X401320Y166370D01*
M02*
