G04 EAGLE Gerber RS-274X export*
G75*
%MOMM*%
%FSLAX34Y34*%
%LPD*%
%IN*%
%IPPOS*%
%AMOC8*
5,1,8,0,0,1.08239X$1,22.5*%
G01*
%ADD10C,0.254000*%


D10*
X0Y0D02*
X717550Y0D01*
X717550Y584200D01*
X0Y584200D01*
X0Y0D01*
X404650Y465918D02*
X404717Y465580D01*
X404849Y465261D01*
X405041Y464974D01*
X405284Y464731D01*
X405571Y464539D01*
X405890Y464407D01*
X406228Y464340D01*
X406572Y464340D01*
X406910Y464407D01*
X407229Y464539D01*
X407516Y464731D01*
X407759Y464974D01*
X407951Y465261D01*
X408083Y465580D01*
X408150Y465918D01*
X408150Y466262D01*
X408083Y466600D01*
X407951Y466919D01*
X407759Y467206D01*
X407516Y467449D01*
X407229Y467641D01*
X406910Y467773D01*
X406572Y467840D01*
X406228Y467840D01*
X405890Y467773D01*
X405571Y467641D01*
X405284Y467449D01*
X405041Y467206D01*
X404849Y466919D01*
X404717Y466600D01*
X404650Y466262D01*
X404650Y465918D01*
X430050Y465918D02*
X430117Y465580D01*
X430249Y465261D01*
X430441Y464974D01*
X430684Y464731D01*
X430971Y464539D01*
X431290Y464407D01*
X431628Y464340D01*
X431972Y464340D01*
X432310Y464407D01*
X432629Y464539D01*
X432916Y464731D01*
X433159Y464974D01*
X433351Y465261D01*
X433483Y465580D01*
X433550Y465918D01*
X433550Y466262D01*
X433483Y466600D01*
X433351Y466919D01*
X433159Y467206D01*
X432916Y467449D01*
X432629Y467641D01*
X432310Y467773D01*
X431972Y467840D01*
X431628Y467840D01*
X431290Y467773D01*
X430971Y467641D01*
X430684Y467449D01*
X430441Y467206D01*
X430249Y466919D01*
X430117Y466600D01*
X430050Y466262D01*
X430050Y465918D01*
X455450Y465918D02*
X455517Y465580D01*
X455649Y465261D01*
X455841Y464974D01*
X456084Y464731D01*
X456371Y464539D01*
X456690Y464407D01*
X457028Y464340D01*
X457372Y464340D01*
X457710Y464407D01*
X458029Y464539D01*
X458316Y464731D01*
X458559Y464974D01*
X458751Y465261D01*
X458883Y465580D01*
X458950Y465918D01*
X458950Y466262D01*
X458883Y466600D01*
X458751Y466919D01*
X458559Y467206D01*
X458316Y467449D01*
X458029Y467641D01*
X457710Y467773D01*
X457372Y467840D01*
X457028Y467840D01*
X456690Y467773D01*
X456371Y467641D01*
X456084Y467449D01*
X455841Y467206D01*
X455649Y466919D01*
X455517Y466600D01*
X455450Y466262D01*
X455450Y465918D01*
X480850Y465918D02*
X480917Y465580D01*
X481049Y465261D01*
X481241Y464974D01*
X481484Y464731D01*
X481771Y464539D01*
X482090Y464407D01*
X482428Y464340D01*
X482772Y464340D01*
X483110Y464407D01*
X483429Y464539D01*
X483716Y464731D01*
X483959Y464974D01*
X484151Y465261D01*
X484283Y465580D01*
X484350Y465918D01*
X484350Y466262D01*
X484283Y466600D01*
X484151Y466919D01*
X483959Y467206D01*
X483716Y467449D01*
X483429Y467641D01*
X483110Y467773D01*
X482772Y467840D01*
X482428Y467840D01*
X482090Y467773D01*
X481771Y467641D01*
X481484Y467449D01*
X481241Y467206D01*
X481049Y466919D01*
X480917Y466600D01*
X480850Y466262D01*
X480850Y465918D01*
X506250Y465918D02*
X506317Y465580D01*
X506449Y465261D01*
X506641Y464974D01*
X506884Y464731D01*
X507171Y464539D01*
X507490Y464407D01*
X507828Y464340D01*
X508172Y464340D01*
X508510Y464407D01*
X508829Y464539D01*
X509116Y464731D01*
X509359Y464974D01*
X509551Y465261D01*
X509683Y465580D01*
X509750Y465918D01*
X509750Y466262D01*
X509683Y466600D01*
X509551Y466919D01*
X509359Y467206D01*
X509116Y467449D01*
X508829Y467641D01*
X508510Y467773D01*
X508172Y467840D01*
X507828Y467840D01*
X507490Y467773D01*
X507171Y467641D01*
X506884Y467449D01*
X506641Y467206D01*
X506449Y466919D01*
X506317Y466600D01*
X506250Y466262D01*
X506250Y465918D01*
X531650Y465918D02*
X531717Y465580D01*
X531849Y465261D01*
X532041Y464974D01*
X532284Y464731D01*
X532571Y464539D01*
X532890Y464407D01*
X533228Y464340D01*
X533572Y464340D01*
X533910Y464407D01*
X534229Y464539D01*
X534516Y464731D01*
X534759Y464974D01*
X534951Y465261D01*
X535083Y465580D01*
X535150Y465918D01*
X535150Y466262D01*
X535083Y466600D01*
X534951Y466919D01*
X534759Y467206D01*
X534516Y467449D01*
X534229Y467641D01*
X533910Y467773D01*
X533572Y467840D01*
X533228Y467840D01*
X532890Y467773D01*
X532571Y467641D01*
X532284Y467449D01*
X532041Y467206D01*
X531849Y466919D01*
X531717Y466600D01*
X531650Y466262D01*
X531650Y465918D01*
X557050Y465918D02*
X557117Y465580D01*
X557249Y465261D01*
X557441Y464974D01*
X557684Y464731D01*
X557971Y464539D01*
X558290Y464407D01*
X558628Y464340D01*
X558972Y464340D01*
X559310Y464407D01*
X559629Y464539D01*
X559916Y464731D01*
X560159Y464974D01*
X560351Y465261D01*
X560483Y465580D01*
X560550Y465918D01*
X560550Y466262D01*
X560483Y466600D01*
X560351Y466919D01*
X560159Y467206D01*
X559916Y467449D01*
X559629Y467641D01*
X559310Y467773D01*
X558972Y467840D01*
X558628Y467840D01*
X558290Y467773D01*
X557971Y467641D01*
X557684Y467449D01*
X557441Y467206D01*
X557249Y466919D01*
X557117Y466600D01*
X557050Y466262D01*
X557050Y465918D01*
X582450Y465918D02*
X582517Y465580D01*
X582649Y465261D01*
X582841Y464974D01*
X583084Y464731D01*
X583371Y464539D01*
X583690Y464407D01*
X584028Y464340D01*
X584372Y464340D01*
X584710Y464407D01*
X585029Y464539D01*
X585316Y464731D01*
X585559Y464974D01*
X585751Y465261D01*
X585883Y465580D01*
X585950Y465918D01*
X585950Y466262D01*
X585883Y466600D01*
X585751Y466919D01*
X585559Y467206D01*
X585316Y467449D01*
X585029Y467641D01*
X584710Y467773D01*
X584372Y467840D01*
X584028Y467840D01*
X583690Y467773D01*
X583371Y467641D01*
X583084Y467449D01*
X582841Y467206D01*
X582649Y466919D01*
X582517Y466600D01*
X582450Y466262D01*
X582450Y465918D01*
X607850Y465918D02*
X607917Y465580D01*
X608049Y465261D01*
X608241Y464974D01*
X608484Y464731D01*
X608771Y464539D01*
X609090Y464407D01*
X609428Y464340D01*
X609772Y464340D01*
X610110Y464407D01*
X610429Y464539D01*
X610716Y464731D01*
X610959Y464974D01*
X611151Y465261D01*
X611283Y465580D01*
X611350Y465918D01*
X611350Y466262D01*
X611283Y466600D01*
X611151Y466919D01*
X610959Y467206D01*
X610716Y467449D01*
X610429Y467641D01*
X610110Y467773D01*
X609772Y467840D01*
X609428Y467840D01*
X609090Y467773D01*
X608771Y467641D01*
X608484Y467449D01*
X608241Y467206D01*
X608049Y466919D01*
X607917Y466600D01*
X607850Y466262D01*
X607850Y465918D01*
X224000Y345268D02*
X223933Y344930D01*
X223801Y344611D01*
X223609Y344324D01*
X223366Y344081D01*
X223079Y343889D01*
X222760Y343757D01*
X222422Y343690D01*
X222078Y343690D01*
X221740Y343757D01*
X221421Y343889D01*
X221134Y344081D01*
X220891Y344324D01*
X220699Y344611D01*
X220567Y344930D01*
X220500Y345268D01*
X220500Y345612D01*
X220567Y345950D01*
X220699Y346269D01*
X220891Y346556D01*
X221134Y346799D01*
X221421Y346991D01*
X221740Y347123D01*
X222078Y347190D01*
X222422Y347190D01*
X222760Y347123D01*
X223079Y346991D01*
X223366Y346799D01*
X223609Y346556D01*
X223801Y346269D01*
X223933Y345950D01*
X224000Y345612D01*
X224000Y345268D01*
X221460Y430358D02*
X221393Y430020D01*
X221261Y429701D01*
X221069Y429414D01*
X220826Y429171D01*
X220539Y428979D01*
X220220Y428847D01*
X219882Y428780D01*
X219538Y428780D01*
X219200Y428847D01*
X218881Y428979D01*
X218594Y429171D01*
X218351Y429414D01*
X218159Y429701D01*
X218027Y430020D01*
X217960Y430358D01*
X217960Y430702D01*
X218027Y431040D01*
X218159Y431359D01*
X218351Y431646D01*
X218594Y431889D01*
X218881Y432081D01*
X219200Y432213D01*
X219538Y432280D01*
X219882Y432280D01*
X220220Y432213D01*
X220539Y432081D01*
X220826Y431889D01*
X221069Y431646D01*
X221261Y431359D01*
X221393Y431040D01*
X221460Y430702D01*
X221460Y430358D01*
X222730Y388448D02*
X222663Y388110D01*
X222531Y387791D01*
X222339Y387504D01*
X222096Y387261D01*
X221809Y387069D01*
X221490Y386937D01*
X221152Y386870D01*
X220808Y386870D01*
X220470Y386937D01*
X220151Y387069D01*
X219864Y387261D01*
X219621Y387504D01*
X219429Y387791D01*
X219297Y388110D01*
X219230Y388448D01*
X219230Y388792D01*
X219297Y389130D01*
X219429Y389449D01*
X219621Y389736D01*
X219864Y389979D01*
X220151Y390171D01*
X220470Y390303D01*
X220808Y390370D01*
X221152Y390370D01*
X221490Y390303D01*
X221809Y390171D01*
X222096Y389979D01*
X222339Y389736D01*
X222531Y389449D01*
X222663Y389130D01*
X222730Y388792D01*
X222730Y388448D01*
X52550Y117938D02*
X52483Y117600D01*
X52351Y117281D01*
X52159Y116994D01*
X51916Y116751D01*
X51629Y116559D01*
X51310Y116427D01*
X50972Y116360D01*
X50628Y116360D01*
X50290Y116427D01*
X49971Y116559D01*
X49684Y116751D01*
X49441Y116994D01*
X49249Y117281D01*
X49117Y117600D01*
X49050Y117938D01*
X49050Y118282D01*
X49117Y118620D01*
X49249Y118939D01*
X49441Y119226D01*
X49684Y119469D01*
X49971Y119661D01*
X50290Y119793D01*
X50628Y119860D01*
X50972Y119860D01*
X51310Y119793D01*
X51629Y119661D01*
X51916Y119469D01*
X52159Y119226D01*
X52351Y118939D01*
X52483Y118620D01*
X52550Y118282D01*
X52550Y117938D01*
X77950Y117938D02*
X77883Y117600D01*
X77751Y117281D01*
X77559Y116994D01*
X77316Y116751D01*
X77029Y116559D01*
X76710Y116427D01*
X76372Y116360D01*
X76028Y116360D01*
X75690Y116427D01*
X75371Y116559D01*
X75084Y116751D01*
X74841Y116994D01*
X74649Y117281D01*
X74517Y117600D01*
X74450Y117938D01*
X74450Y118282D01*
X74517Y118620D01*
X74649Y118939D01*
X74841Y119226D01*
X75084Y119469D01*
X75371Y119661D01*
X75690Y119793D01*
X76028Y119860D01*
X76372Y119860D01*
X76710Y119793D01*
X77029Y119661D01*
X77316Y119469D01*
X77559Y119226D01*
X77751Y118939D01*
X77883Y118620D01*
X77950Y118282D01*
X77950Y117938D01*
X103350Y117938D02*
X103283Y117600D01*
X103151Y117281D01*
X102959Y116994D01*
X102716Y116751D01*
X102429Y116559D01*
X102110Y116427D01*
X101772Y116360D01*
X101428Y116360D01*
X101090Y116427D01*
X100771Y116559D01*
X100484Y116751D01*
X100241Y116994D01*
X100049Y117281D01*
X99917Y117600D01*
X99850Y117938D01*
X99850Y118282D01*
X99917Y118620D01*
X100049Y118939D01*
X100241Y119226D01*
X100484Y119469D01*
X100771Y119661D01*
X101090Y119793D01*
X101428Y119860D01*
X101772Y119860D01*
X102110Y119793D01*
X102429Y119661D01*
X102716Y119469D01*
X102959Y119226D01*
X103151Y118939D01*
X103283Y118620D01*
X103350Y118282D01*
X103350Y117938D01*
X128750Y116668D02*
X128683Y116330D01*
X128551Y116011D01*
X128359Y115724D01*
X128116Y115481D01*
X127829Y115289D01*
X127510Y115157D01*
X127172Y115090D01*
X126828Y115090D01*
X126490Y115157D01*
X126171Y115289D01*
X125884Y115481D01*
X125641Y115724D01*
X125449Y116011D01*
X125317Y116330D01*
X125250Y116668D01*
X125250Y117012D01*
X125317Y117350D01*
X125449Y117669D01*
X125641Y117956D01*
X125884Y118199D01*
X126171Y118391D01*
X126490Y118523D01*
X126828Y118590D01*
X127172Y118590D01*
X127510Y118523D01*
X127829Y118391D01*
X128116Y118199D01*
X128359Y117956D01*
X128551Y117669D01*
X128683Y117350D01*
X128750Y117012D01*
X128750Y116668D01*
X154150Y117938D02*
X154083Y117600D01*
X153951Y117281D01*
X153759Y116994D01*
X153516Y116751D01*
X153229Y116559D01*
X152910Y116427D01*
X152572Y116360D01*
X152228Y116360D01*
X151890Y116427D01*
X151571Y116559D01*
X151284Y116751D01*
X151041Y116994D01*
X150849Y117281D01*
X150717Y117600D01*
X150650Y117938D01*
X150650Y118282D01*
X150717Y118620D01*
X150849Y118939D01*
X151041Y119226D01*
X151284Y119469D01*
X151571Y119661D01*
X151890Y119793D01*
X152228Y119860D01*
X152572Y119860D01*
X152910Y119793D01*
X153229Y119661D01*
X153516Y119469D01*
X153759Y119226D01*
X153951Y118939D01*
X154083Y118620D01*
X154150Y118282D01*
X154150Y117938D01*
X179550Y117938D02*
X179483Y117600D01*
X179351Y117281D01*
X179159Y116994D01*
X178916Y116751D01*
X178629Y116559D01*
X178310Y116427D01*
X177972Y116360D01*
X177628Y116360D01*
X177290Y116427D01*
X176971Y116559D01*
X176684Y116751D01*
X176441Y116994D01*
X176249Y117281D01*
X176117Y117600D01*
X176050Y117938D01*
X176050Y118282D01*
X176117Y118620D01*
X176249Y118939D01*
X176441Y119226D01*
X176684Y119469D01*
X176971Y119661D01*
X177290Y119793D01*
X177628Y119860D01*
X177972Y119860D01*
X178310Y119793D01*
X178629Y119661D01*
X178916Y119469D01*
X179159Y119226D01*
X179351Y118939D01*
X179483Y118620D01*
X179550Y118282D01*
X179550Y117938D01*
X204950Y117938D02*
X204883Y117600D01*
X204751Y117281D01*
X204559Y116994D01*
X204316Y116751D01*
X204029Y116559D01*
X203710Y116427D01*
X203372Y116360D01*
X203028Y116360D01*
X202690Y116427D01*
X202371Y116559D01*
X202084Y116751D01*
X201841Y116994D01*
X201649Y117281D01*
X201517Y117600D01*
X201450Y117938D01*
X201450Y118282D01*
X201517Y118620D01*
X201649Y118939D01*
X201841Y119226D01*
X202084Y119469D01*
X202371Y119661D01*
X202690Y119793D01*
X203028Y119860D01*
X203372Y119860D01*
X203710Y119793D01*
X204029Y119661D01*
X204316Y119469D01*
X204559Y119226D01*
X204751Y118939D01*
X204883Y118620D01*
X204950Y118282D01*
X204950Y117938D01*
X230350Y117938D02*
X230283Y117600D01*
X230151Y117281D01*
X229959Y116994D01*
X229716Y116751D01*
X229429Y116559D01*
X229110Y116427D01*
X228772Y116360D01*
X228428Y116360D01*
X228090Y116427D01*
X227771Y116559D01*
X227484Y116751D01*
X227241Y116994D01*
X227049Y117281D01*
X226917Y117600D01*
X226850Y117938D01*
X226850Y118282D01*
X226917Y118620D01*
X227049Y118939D01*
X227241Y119226D01*
X227484Y119469D01*
X227771Y119661D01*
X228090Y119793D01*
X228428Y119860D01*
X228772Y119860D01*
X229110Y119793D01*
X229429Y119661D01*
X229716Y119469D01*
X229959Y119226D01*
X230151Y118939D01*
X230283Y118620D01*
X230350Y118282D01*
X230350Y117938D01*
X255750Y117938D02*
X255683Y117600D01*
X255551Y117281D01*
X255359Y116994D01*
X255116Y116751D01*
X254829Y116559D01*
X254510Y116427D01*
X254172Y116360D01*
X253828Y116360D01*
X253490Y116427D01*
X253171Y116559D01*
X252884Y116751D01*
X252641Y116994D01*
X252449Y117281D01*
X252317Y117600D01*
X252250Y117938D01*
X252250Y118282D01*
X252317Y118620D01*
X252449Y118939D01*
X252641Y119226D01*
X252884Y119469D01*
X253171Y119661D01*
X253490Y119793D01*
X253828Y119860D01*
X254172Y119860D01*
X254510Y119793D01*
X254829Y119661D01*
X255116Y119469D01*
X255359Y119226D01*
X255551Y118939D01*
X255683Y118620D01*
X255750Y118282D01*
X255750Y117938D01*
X277650Y117938D02*
X277717Y117600D01*
X277849Y117281D01*
X278041Y116994D01*
X278284Y116751D01*
X278571Y116559D01*
X278890Y116427D01*
X279228Y116360D01*
X279572Y116360D01*
X279910Y116427D01*
X280229Y116559D01*
X280516Y116751D01*
X280759Y116994D01*
X280951Y117281D01*
X281083Y117600D01*
X281150Y117938D01*
X281150Y118282D01*
X281083Y118620D01*
X280951Y118939D01*
X280759Y119226D01*
X280516Y119469D01*
X280229Y119661D01*
X279910Y119793D01*
X279572Y119860D01*
X279228Y119860D01*
X278890Y119793D01*
X278571Y119661D01*
X278284Y119469D01*
X278041Y119226D01*
X277849Y118939D01*
X277717Y118620D01*
X277650Y118282D01*
X277650Y117938D01*
X303050Y117938D02*
X303117Y117600D01*
X303249Y117281D01*
X303441Y116994D01*
X303684Y116751D01*
X303971Y116559D01*
X304290Y116427D01*
X304628Y116360D01*
X304972Y116360D01*
X305310Y116427D01*
X305629Y116559D01*
X305916Y116751D01*
X306159Y116994D01*
X306351Y117281D01*
X306483Y117600D01*
X306550Y117938D01*
X306550Y118282D01*
X306483Y118620D01*
X306351Y118939D01*
X306159Y119226D01*
X305916Y119469D01*
X305629Y119661D01*
X305310Y119793D01*
X304972Y119860D01*
X304628Y119860D01*
X304290Y119793D01*
X303971Y119661D01*
X303684Y119469D01*
X303441Y119226D01*
X303249Y118939D01*
X303117Y118620D01*
X303050Y118282D01*
X303050Y117938D01*
X331950Y117938D02*
X331883Y117600D01*
X331751Y117281D01*
X331559Y116994D01*
X331316Y116751D01*
X331029Y116559D01*
X330710Y116427D01*
X330372Y116360D01*
X330028Y116360D01*
X329690Y116427D01*
X329371Y116559D01*
X329084Y116751D01*
X328841Y116994D01*
X328649Y117281D01*
X328517Y117600D01*
X328450Y117938D01*
X328450Y118282D01*
X328517Y118620D01*
X328649Y118939D01*
X328841Y119226D01*
X329084Y119469D01*
X329371Y119661D01*
X329690Y119793D01*
X330028Y119860D01*
X330372Y119860D01*
X330710Y119793D01*
X331029Y119661D01*
X331316Y119469D01*
X331559Y119226D01*
X331751Y118939D01*
X331883Y118620D01*
X331950Y118282D01*
X331950Y117938D01*
X357350Y117938D02*
X357283Y117600D01*
X357151Y117281D01*
X356959Y116994D01*
X356716Y116751D01*
X356429Y116559D01*
X356110Y116427D01*
X355772Y116360D01*
X355428Y116360D01*
X355090Y116427D01*
X354771Y116559D01*
X354484Y116751D01*
X354241Y116994D01*
X354049Y117281D01*
X353917Y117600D01*
X353850Y117938D01*
X353850Y118282D01*
X353917Y118620D01*
X354049Y118939D01*
X354241Y119226D01*
X354484Y119469D01*
X354771Y119661D01*
X355090Y119793D01*
X355428Y119860D01*
X355772Y119860D01*
X356110Y119793D01*
X356429Y119661D01*
X356716Y119469D01*
X356959Y119226D01*
X357151Y118939D01*
X357283Y118620D01*
X357350Y118282D01*
X357350Y117938D01*
X379250Y117938D02*
X379317Y117600D01*
X379449Y117281D01*
X379641Y116994D01*
X379884Y116751D01*
X380171Y116559D01*
X380490Y116427D01*
X380828Y116360D01*
X381172Y116360D01*
X381510Y116427D01*
X381829Y116559D01*
X382116Y116751D01*
X382359Y116994D01*
X382551Y117281D01*
X382683Y117600D01*
X382750Y117938D01*
X382750Y118282D01*
X382683Y118620D01*
X382551Y118939D01*
X382359Y119226D01*
X382116Y119469D01*
X381829Y119661D01*
X381510Y119793D01*
X381172Y119860D01*
X380828Y119860D01*
X380490Y119793D01*
X380171Y119661D01*
X379884Y119469D01*
X379641Y119226D01*
X379449Y118939D01*
X379317Y118620D01*
X379250Y118282D01*
X379250Y117938D01*
X408150Y117938D02*
X408083Y117600D01*
X407951Y117281D01*
X407759Y116994D01*
X407516Y116751D01*
X407229Y116559D01*
X406910Y116427D01*
X406572Y116360D01*
X406228Y116360D01*
X405890Y116427D01*
X405571Y116559D01*
X405284Y116751D01*
X405041Y116994D01*
X404849Y117281D01*
X404717Y117600D01*
X404650Y117938D01*
X404650Y118282D01*
X404717Y118620D01*
X404849Y118939D01*
X405041Y119226D01*
X405284Y119469D01*
X405571Y119661D01*
X405890Y119793D01*
X406228Y119860D01*
X406572Y119860D01*
X406910Y119793D01*
X407229Y119661D01*
X407516Y119469D01*
X407759Y119226D01*
X407951Y118939D01*
X408083Y118620D01*
X408150Y118282D01*
X408150Y117938D01*
X433550Y117938D02*
X433483Y117600D01*
X433351Y117281D01*
X433159Y116994D01*
X432916Y116751D01*
X432629Y116559D01*
X432310Y116427D01*
X431972Y116360D01*
X431628Y116360D01*
X431290Y116427D01*
X430971Y116559D01*
X430684Y116751D01*
X430441Y116994D01*
X430249Y117281D01*
X430117Y117600D01*
X430050Y117938D01*
X430050Y118282D01*
X430117Y118620D01*
X430249Y118939D01*
X430441Y119226D01*
X430684Y119469D01*
X430971Y119661D01*
X431290Y119793D01*
X431628Y119860D01*
X431972Y119860D01*
X432310Y119793D01*
X432629Y119661D01*
X432916Y119469D01*
X433159Y119226D01*
X433351Y118939D01*
X433483Y118620D01*
X433550Y118282D01*
X433550Y117938D01*
X458950Y117938D02*
X458883Y117600D01*
X458751Y117281D01*
X458559Y116994D01*
X458316Y116751D01*
X458029Y116559D01*
X457710Y116427D01*
X457372Y116360D01*
X457028Y116360D01*
X456690Y116427D01*
X456371Y116559D01*
X456084Y116751D01*
X455841Y116994D01*
X455649Y117281D01*
X455517Y117600D01*
X455450Y117938D01*
X455450Y118282D01*
X455517Y118620D01*
X455649Y118939D01*
X455841Y119226D01*
X456084Y119469D01*
X456371Y119661D01*
X456690Y119793D01*
X457028Y119860D01*
X457372Y119860D01*
X457710Y119793D01*
X458029Y119661D01*
X458316Y119469D01*
X458559Y119226D01*
X458751Y118939D01*
X458883Y118620D01*
X458950Y118282D01*
X458950Y117938D01*
X484350Y117938D02*
X484283Y117600D01*
X484151Y117281D01*
X483959Y116994D01*
X483716Y116751D01*
X483429Y116559D01*
X483110Y116427D01*
X482772Y116360D01*
X482428Y116360D01*
X482090Y116427D01*
X481771Y116559D01*
X481484Y116751D01*
X481241Y116994D01*
X481049Y117281D01*
X480917Y117600D01*
X480850Y117938D01*
X480850Y118282D01*
X480917Y118620D01*
X481049Y118939D01*
X481241Y119226D01*
X481484Y119469D01*
X481771Y119661D01*
X482090Y119793D01*
X482428Y119860D01*
X482772Y119860D01*
X483110Y119793D01*
X483429Y119661D01*
X483716Y119469D01*
X483959Y119226D01*
X484151Y118939D01*
X484283Y118620D01*
X484350Y118282D01*
X484350Y117938D01*
X509750Y117938D02*
X509683Y117600D01*
X509551Y117281D01*
X509359Y116994D01*
X509116Y116751D01*
X508829Y116559D01*
X508510Y116427D01*
X508172Y116360D01*
X507828Y116360D01*
X507490Y116427D01*
X507171Y116559D01*
X506884Y116751D01*
X506641Y116994D01*
X506449Y117281D01*
X506317Y117600D01*
X506250Y117938D01*
X506250Y118282D01*
X506317Y118620D01*
X506449Y118939D01*
X506641Y119226D01*
X506884Y119469D01*
X507171Y119661D01*
X507490Y119793D01*
X507828Y119860D01*
X508172Y119860D01*
X508510Y119793D01*
X508829Y119661D01*
X509116Y119469D01*
X509359Y119226D01*
X509551Y118939D01*
X509683Y118620D01*
X509750Y118282D01*
X509750Y117938D01*
X535150Y117938D02*
X535083Y117600D01*
X534951Y117281D01*
X534759Y116994D01*
X534516Y116751D01*
X534229Y116559D01*
X533910Y116427D01*
X533572Y116360D01*
X533228Y116360D01*
X532890Y116427D01*
X532571Y116559D01*
X532284Y116751D01*
X532041Y116994D01*
X531849Y117281D01*
X531717Y117600D01*
X531650Y117938D01*
X531650Y118282D01*
X531717Y118620D01*
X531849Y118939D01*
X532041Y119226D01*
X532284Y119469D01*
X532571Y119661D01*
X532890Y119793D01*
X533228Y119860D01*
X533572Y119860D01*
X533910Y119793D01*
X534229Y119661D01*
X534516Y119469D01*
X534759Y119226D01*
X534951Y118939D01*
X535083Y118620D01*
X535150Y118282D01*
X535150Y117938D01*
X560550Y117938D02*
X560483Y117600D01*
X560351Y117281D01*
X560159Y116994D01*
X559916Y116751D01*
X559629Y116559D01*
X559310Y116427D01*
X558972Y116360D01*
X558628Y116360D01*
X558290Y116427D01*
X557971Y116559D01*
X557684Y116751D01*
X557441Y116994D01*
X557249Y117281D01*
X557117Y117600D01*
X557050Y117938D01*
X557050Y118282D01*
X557117Y118620D01*
X557249Y118939D01*
X557441Y119226D01*
X557684Y119469D01*
X557971Y119661D01*
X558290Y119793D01*
X558628Y119860D01*
X558972Y119860D01*
X559310Y119793D01*
X559629Y119661D01*
X559916Y119469D01*
X560159Y119226D01*
X560351Y118939D01*
X560483Y118620D01*
X560550Y118282D01*
X560550Y117938D01*
X585950Y117938D02*
X585883Y117600D01*
X585751Y117281D01*
X585559Y116994D01*
X585316Y116751D01*
X585029Y116559D01*
X584710Y116427D01*
X584372Y116360D01*
X584028Y116360D01*
X583690Y116427D01*
X583371Y116559D01*
X583084Y116751D01*
X582841Y116994D01*
X582649Y117281D01*
X582517Y117600D01*
X582450Y117938D01*
X582450Y118282D01*
X582517Y118620D01*
X582649Y118939D01*
X582841Y119226D01*
X583084Y119469D01*
X583371Y119661D01*
X583690Y119793D01*
X584028Y119860D01*
X584372Y119860D01*
X584710Y119793D01*
X585029Y119661D01*
X585316Y119469D01*
X585559Y119226D01*
X585751Y118939D01*
X585883Y118620D01*
X585950Y118282D01*
X585950Y117938D01*
X611350Y117938D02*
X611283Y117600D01*
X611151Y117281D01*
X610959Y116994D01*
X610716Y116751D01*
X610429Y116559D01*
X610110Y116427D01*
X609772Y116360D01*
X609428Y116360D01*
X609090Y116427D01*
X608771Y116559D01*
X608484Y116751D01*
X608241Y116994D01*
X608049Y117281D01*
X607917Y117600D01*
X607850Y117938D01*
X607850Y118282D01*
X607917Y118620D01*
X608049Y118939D01*
X608241Y119226D01*
X608484Y119469D01*
X608771Y119661D01*
X609090Y119793D01*
X609428Y119860D01*
X609772Y119860D01*
X610110Y119793D01*
X610429Y119661D01*
X610716Y119469D01*
X610959Y119226D01*
X611151Y118939D01*
X611283Y118620D01*
X611350Y118282D01*
X611350Y117938D01*
X52550Y86188D02*
X52483Y85850D01*
X52351Y85531D01*
X52159Y85244D01*
X51916Y85001D01*
X51629Y84809D01*
X51310Y84677D01*
X50972Y84610D01*
X50628Y84610D01*
X50290Y84677D01*
X49971Y84809D01*
X49684Y85001D01*
X49441Y85244D01*
X49249Y85531D01*
X49117Y85850D01*
X49050Y86188D01*
X49050Y86532D01*
X49117Y86870D01*
X49249Y87189D01*
X49441Y87476D01*
X49684Y87719D01*
X49971Y87911D01*
X50290Y88043D01*
X50628Y88110D01*
X50972Y88110D01*
X51310Y88043D01*
X51629Y87911D01*
X51916Y87719D01*
X52159Y87476D01*
X52351Y87189D01*
X52483Y86870D01*
X52550Y86532D01*
X52550Y86188D01*
X77950Y86188D02*
X77883Y85850D01*
X77751Y85531D01*
X77559Y85244D01*
X77316Y85001D01*
X77029Y84809D01*
X76710Y84677D01*
X76372Y84610D01*
X76028Y84610D01*
X75690Y84677D01*
X75371Y84809D01*
X75084Y85001D01*
X74841Y85244D01*
X74649Y85531D01*
X74517Y85850D01*
X74450Y86188D01*
X74450Y86532D01*
X74517Y86870D01*
X74649Y87189D01*
X74841Y87476D01*
X75084Y87719D01*
X75371Y87911D01*
X75690Y88043D01*
X76028Y88110D01*
X76372Y88110D01*
X76710Y88043D01*
X77029Y87911D01*
X77316Y87719D01*
X77559Y87476D01*
X77751Y87189D01*
X77883Y86870D01*
X77950Y86532D01*
X77950Y86188D01*
X103350Y86188D02*
X103283Y85850D01*
X103151Y85531D01*
X102959Y85244D01*
X102716Y85001D01*
X102429Y84809D01*
X102110Y84677D01*
X101772Y84610D01*
X101428Y84610D01*
X101090Y84677D01*
X100771Y84809D01*
X100484Y85001D01*
X100241Y85244D01*
X100049Y85531D01*
X99917Y85850D01*
X99850Y86188D01*
X99850Y86532D01*
X99917Y86870D01*
X100049Y87189D01*
X100241Y87476D01*
X100484Y87719D01*
X100771Y87911D01*
X101090Y88043D01*
X101428Y88110D01*
X101772Y88110D01*
X102110Y88043D01*
X102429Y87911D01*
X102716Y87719D01*
X102959Y87476D01*
X103151Y87189D01*
X103283Y86870D01*
X103350Y86532D01*
X103350Y86188D01*
X128750Y86188D02*
X128683Y85850D01*
X128551Y85531D01*
X128359Y85244D01*
X128116Y85001D01*
X127829Y84809D01*
X127510Y84677D01*
X127172Y84610D01*
X126828Y84610D01*
X126490Y84677D01*
X126171Y84809D01*
X125884Y85001D01*
X125641Y85244D01*
X125449Y85531D01*
X125317Y85850D01*
X125250Y86188D01*
X125250Y86532D01*
X125317Y86870D01*
X125449Y87189D01*
X125641Y87476D01*
X125884Y87719D01*
X126171Y87911D01*
X126490Y88043D01*
X126828Y88110D01*
X127172Y88110D01*
X127510Y88043D01*
X127829Y87911D01*
X128116Y87719D01*
X128359Y87476D01*
X128551Y87189D01*
X128683Y86870D01*
X128750Y86532D01*
X128750Y86188D01*
X154150Y86188D02*
X154083Y85850D01*
X153951Y85531D01*
X153759Y85244D01*
X153516Y85001D01*
X153229Y84809D01*
X152910Y84677D01*
X152572Y84610D01*
X152228Y84610D01*
X151890Y84677D01*
X151571Y84809D01*
X151284Y85001D01*
X151041Y85244D01*
X150849Y85531D01*
X150717Y85850D01*
X150650Y86188D01*
X150650Y86532D01*
X150717Y86870D01*
X150849Y87189D01*
X151041Y87476D01*
X151284Y87719D01*
X151571Y87911D01*
X151890Y88043D01*
X152228Y88110D01*
X152572Y88110D01*
X152910Y88043D01*
X153229Y87911D01*
X153516Y87719D01*
X153759Y87476D01*
X153951Y87189D01*
X154083Y86870D01*
X154150Y86532D01*
X154150Y86188D01*
X176050Y86188D02*
X176117Y85850D01*
X176249Y85531D01*
X176441Y85244D01*
X176684Y85001D01*
X176971Y84809D01*
X177290Y84677D01*
X177628Y84610D01*
X177972Y84610D01*
X178310Y84677D01*
X178629Y84809D01*
X178916Y85001D01*
X179159Y85244D01*
X179351Y85531D01*
X179483Y85850D01*
X179550Y86188D01*
X179550Y86532D01*
X179483Y86870D01*
X179351Y87189D01*
X179159Y87476D01*
X178916Y87719D01*
X178629Y87911D01*
X178310Y88043D01*
X177972Y88110D01*
X177628Y88110D01*
X177290Y88043D01*
X176971Y87911D01*
X176684Y87719D01*
X176441Y87476D01*
X176249Y87189D01*
X176117Y86870D01*
X176050Y86532D01*
X176050Y86188D01*
X204950Y86188D02*
X204883Y85850D01*
X204751Y85531D01*
X204559Y85244D01*
X204316Y85001D01*
X204029Y84809D01*
X203710Y84677D01*
X203372Y84610D01*
X203028Y84610D01*
X202690Y84677D01*
X202371Y84809D01*
X202084Y85001D01*
X201841Y85244D01*
X201649Y85531D01*
X201517Y85850D01*
X201450Y86188D01*
X201450Y86532D01*
X201517Y86870D01*
X201649Y87189D01*
X201841Y87476D01*
X202084Y87719D01*
X202371Y87911D01*
X202690Y88043D01*
X203028Y88110D01*
X203372Y88110D01*
X203710Y88043D01*
X204029Y87911D01*
X204316Y87719D01*
X204559Y87476D01*
X204751Y87189D01*
X204883Y86870D01*
X204950Y86532D01*
X204950Y86188D01*
X230350Y86188D02*
X230283Y85850D01*
X230151Y85531D01*
X229959Y85244D01*
X229716Y85001D01*
X229429Y84809D01*
X229110Y84677D01*
X228772Y84610D01*
X228428Y84610D01*
X228090Y84677D01*
X227771Y84809D01*
X227484Y85001D01*
X227241Y85244D01*
X227049Y85531D01*
X226917Y85850D01*
X226850Y86188D01*
X226850Y86532D01*
X226917Y86870D01*
X227049Y87189D01*
X227241Y87476D01*
X227484Y87719D01*
X227771Y87911D01*
X228090Y88043D01*
X228428Y88110D01*
X228772Y88110D01*
X229110Y88043D01*
X229429Y87911D01*
X229716Y87719D01*
X229959Y87476D01*
X230151Y87189D01*
X230283Y86870D01*
X230350Y86532D01*
X230350Y86188D01*
X255750Y86188D02*
X255683Y85850D01*
X255551Y85531D01*
X255359Y85244D01*
X255116Y85001D01*
X254829Y84809D01*
X254510Y84677D01*
X254172Y84610D01*
X253828Y84610D01*
X253490Y84677D01*
X253171Y84809D01*
X252884Y85001D01*
X252641Y85244D01*
X252449Y85531D01*
X252317Y85850D01*
X252250Y86188D01*
X252250Y86532D01*
X252317Y86870D01*
X252449Y87189D01*
X252641Y87476D01*
X252884Y87719D01*
X253171Y87911D01*
X253490Y88043D01*
X253828Y88110D01*
X254172Y88110D01*
X254510Y88043D01*
X254829Y87911D01*
X255116Y87719D01*
X255359Y87476D01*
X255551Y87189D01*
X255683Y86870D01*
X255750Y86532D01*
X255750Y86188D01*
X281150Y86188D02*
X281083Y85850D01*
X280951Y85531D01*
X280759Y85244D01*
X280516Y85001D01*
X280229Y84809D01*
X279910Y84677D01*
X279572Y84610D01*
X279228Y84610D01*
X278890Y84677D01*
X278571Y84809D01*
X278284Y85001D01*
X278041Y85244D01*
X277849Y85531D01*
X277717Y85850D01*
X277650Y86188D01*
X277650Y86532D01*
X277717Y86870D01*
X277849Y87189D01*
X278041Y87476D01*
X278284Y87719D01*
X278571Y87911D01*
X278890Y88043D01*
X279228Y88110D01*
X279572Y88110D01*
X279910Y88043D01*
X280229Y87911D01*
X280516Y87719D01*
X280759Y87476D01*
X280951Y87189D01*
X281083Y86870D01*
X281150Y86532D01*
X281150Y86188D01*
X306550Y86188D02*
X306483Y85850D01*
X306351Y85531D01*
X306159Y85244D01*
X305916Y85001D01*
X305629Y84809D01*
X305310Y84677D01*
X304972Y84610D01*
X304628Y84610D01*
X304290Y84677D01*
X303971Y84809D01*
X303684Y85001D01*
X303441Y85244D01*
X303249Y85531D01*
X303117Y85850D01*
X303050Y86188D01*
X303050Y86532D01*
X303117Y86870D01*
X303249Y87189D01*
X303441Y87476D01*
X303684Y87719D01*
X303971Y87911D01*
X304290Y88043D01*
X304628Y88110D01*
X304972Y88110D01*
X305310Y88043D01*
X305629Y87911D01*
X305916Y87719D01*
X306159Y87476D01*
X306351Y87189D01*
X306483Y86870D01*
X306550Y86532D01*
X306550Y86188D01*
X331950Y86188D02*
X331883Y85850D01*
X331751Y85531D01*
X331559Y85244D01*
X331316Y85001D01*
X331029Y84809D01*
X330710Y84677D01*
X330372Y84610D01*
X330028Y84610D01*
X329690Y84677D01*
X329371Y84809D01*
X329084Y85001D01*
X328841Y85244D01*
X328649Y85531D01*
X328517Y85850D01*
X328450Y86188D01*
X328450Y86532D01*
X328517Y86870D01*
X328649Y87189D01*
X328841Y87476D01*
X329084Y87719D01*
X329371Y87911D01*
X329690Y88043D01*
X330028Y88110D01*
X330372Y88110D01*
X330710Y88043D01*
X331029Y87911D01*
X331316Y87719D01*
X331559Y87476D01*
X331751Y87189D01*
X331883Y86870D01*
X331950Y86532D01*
X331950Y86188D01*
X357350Y86188D02*
X357283Y85850D01*
X357151Y85531D01*
X356959Y85244D01*
X356716Y85001D01*
X356429Y84809D01*
X356110Y84677D01*
X355772Y84610D01*
X355428Y84610D01*
X355090Y84677D01*
X354771Y84809D01*
X354484Y85001D01*
X354241Y85244D01*
X354049Y85531D01*
X353917Y85850D01*
X353850Y86188D01*
X353850Y86532D01*
X353917Y86870D01*
X354049Y87189D01*
X354241Y87476D01*
X354484Y87719D01*
X354771Y87911D01*
X355090Y88043D01*
X355428Y88110D01*
X355772Y88110D01*
X356110Y88043D01*
X356429Y87911D01*
X356716Y87719D01*
X356959Y87476D01*
X357151Y87189D01*
X357283Y86870D01*
X357350Y86532D01*
X357350Y86188D01*
X382750Y86188D02*
X382683Y85850D01*
X382551Y85531D01*
X382359Y85244D01*
X382116Y85001D01*
X381829Y84809D01*
X381510Y84677D01*
X381172Y84610D01*
X380828Y84610D01*
X380490Y84677D01*
X380171Y84809D01*
X379884Y85001D01*
X379641Y85244D01*
X379449Y85531D01*
X379317Y85850D01*
X379250Y86188D01*
X379250Y86532D01*
X379317Y86870D01*
X379449Y87189D01*
X379641Y87476D01*
X379884Y87719D01*
X380171Y87911D01*
X380490Y88043D01*
X380828Y88110D01*
X381172Y88110D01*
X381510Y88043D01*
X381829Y87911D01*
X382116Y87719D01*
X382359Y87476D01*
X382551Y87189D01*
X382683Y86870D01*
X382750Y86532D01*
X382750Y86188D01*
X408150Y86188D02*
X408083Y85850D01*
X407951Y85531D01*
X407759Y85244D01*
X407516Y85001D01*
X407229Y84809D01*
X406910Y84677D01*
X406572Y84610D01*
X406228Y84610D01*
X405890Y84677D01*
X405571Y84809D01*
X405284Y85001D01*
X405041Y85244D01*
X404849Y85531D01*
X404717Y85850D01*
X404650Y86188D01*
X404650Y86532D01*
X404717Y86870D01*
X404849Y87189D01*
X405041Y87476D01*
X405284Y87719D01*
X405571Y87911D01*
X405890Y88043D01*
X406228Y88110D01*
X406572Y88110D01*
X406910Y88043D01*
X407229Y87911D01*
X407516Y87719D01*
X407759Y87476D01*
X407951Y87189D01*
X408083Y86870D01*
X408150Y86532D01*
X408150Y86188D01*
X433550Y86188D02*
X433483Y85850D01*
X433351Y85531D01*
X433159Y85244D01*
X432916Y85001D01*
X432629Y84809D01*
X432310Y84677D01*
X431972Y84610D01*
X431628Y84610D01*
X431290Y84677D01*
X430971Y84809D01*
X430684Y85001D01*
X430441Y85244D01*
X430249Y85531D01*
X430117Y85850D01*
X430050Y86188D01*
X430050Y86532D01*
X430117Y86870D01*
X430249Y87189D01*
X430441Y87476D01*
X430684Y87719D01*
X430971Y87911D01*
X431290Y88043D01*
X431628Y88110D01*
X431972Y88110D01*
X432310Y88043D01*
X432629Y87911D01*
X432916Y87719D01*
X433159Y87476D01*
X433351Y87189D01*
X433483Y86870D01*
X433550Y86532D01*
X433550Y86188D01*
X458950Y86188D02*
X458883Y85850D01*
X458751Y85531D01*
X458559Y85244D01*
X458316Y85001D01*
X458029Y84809D01*
X457710Y84677D01*
X457372Y84610D01*
X457028Y84610D01*
X456690Y84677D01*
X456371Y84809D01*
X456084Y85001D01*
X455841Y85244D01*
X455649Y85531D01*
X455517Y85850D01*
X455450Y86188D01*
X455450Y86532D01*
X455517Y86870D01*
X455649Y87189D01*
X455841Y87476D01*
X456084Y87719D01*
X456371Y87911D01*
X456690Y88043D01*
X457028Y88110D01*
X457372Y88110D01*
X457710Y88043D01*
X458029Y87911D01*
X458316Y87719D01*
X458559Y87476D01*
X458751Y87189D01*
X458883Y86870D01*
X458950Y86532D01*
X458950Y86188D01*
X484350Y87458D02*
X484283Y87120D01*
X484151Y86801D01*
X483959Y86514D01*
X483716Y86271D01*
X483429Y86079D01*
X483110Y85947D01*
X482772Y85880D01*
X482428Y85880D01*
X482090Y85947D01*
X481771Y86079D01*
X481484Y86271D01*
X481241Y86514D01*
X481049Y86801D01*
X480917Y87120D01*
X480850Y87458D01*
X480850Y87802D01*
X480917Y88140D01*
X481049Y88459D01*
X481241Y88746D01*
X481484Y88989D01*
X481771Y89181D01*
X482090Y89313D01*
X482428Y89380D01*
X482772Y89380D01*
X483110Y89313D01*
X483429Y89181D01*
X483716Y88989D01*
X483959Y88746D01*
X484151Y88459D01*
X484283Y88140D01*
X484350Y87802D01*
X484350Y87458D01*
X509750Y86188D02*
X509683Y85850D01*
X509551Y85531D01*
X509359Y85244D01*
X509116Y85001D01*
X508829Y84809D01*
X508510Y84677D01*
X508172Y84610D01*
X507828Y84610D01*
X507490Y84677D01*
X507171Y84809D01*
X506884Y85001D01*
X506641Y85244D01*
X506449Y85531D01*
X506317Y85850D01*
X506250Y86188D01*
X506250Y86532D01*
X506317Y86870D01*
X506449Y87189D01*
X506641Y87476D01*
X506884Y87719D01*
X507171Y87911D01*
X507490Y88043D01*
X507828Y88110D01*
X508172Y88110D01*
X508510Y88043D01*
X508829Y87911D01*
X509116Y87719D01*
X509359Y87476D01*
X509551Y87189D01*
X509683Y86870D01*
X509750Y86532D01*
X509750Y86188D01*
X535150Y86188D02*
X535083Y85850D01*
X534951Y85531D01*
X534759Y85244D01*
X534516Y85001D01*
X534229Y84809D01*
X533910Y84677D01*
X533572Y84610D01*
X533228Y84610D01*
X532890Y84677D01*
X532571Y84809D01*
X532284Y85001D01*
X532041Y85244D01*
X531849Y85531D01*
X531717Y85850D01*
X531650Y86188D01*
X531650Y86532D01*
X531717Y86870D01*
X531849Y87189D01*
X532041Y87476D01*
X532284Y87719D01*
X532571Y87911D01*
X532890Y88043D01*
X533228Y88110D01*
X533572Y88110D01*
X533910Y88043D01*
X534229Y87911D01*
X534516Y87719D01*
X534759Y87476D01*
X534951Y87189D01*
X535083Y86870D01*
X535150Y86532D01*
X535150Y86188D01*
X560550Y86188D02*
X560483Y85850D01*
X560351Y85531D01*
X560159Y85244D01*
X559916Y85001D01*
X559629Y84809D01*
X559310Y84677D01*
X558972Y84610D01*
X558628Y84610D01*
X558290Y84677D01*
X557971Y84809D01*
X557684Y85001D01*
X557441Y85244D01*
X557249Y85531D01*
X557117Y85850D01*
X557050Y86188D01*
X557050Y86532D01*
X557117Y86870D01*
X557249Y87189D01*
X557441Y87476D01*
X557684Y87719D01*
X557971Y87911D01*
X558290Y88043D01*
X558628Y88110D01*
X558972Y88110D01*
X559310Y88043D01*
X559629Y87911D01*
X559916Y87719D01*
X560159Y87476D01*
X560351Y87189D01*
X560483Y86870D01*
X560550Y86532D01*
X560550Y86188D01*
X585950Y86188D02*
X585883Y85850D01*
X585751Y85531D01*
X585559Y85244D01*
X585316Y85001D01*
X585029Y84809D01*
X584710Y84677D01*
X584372Y84610D01*
X584028Y84610D01*
X583690Y84677D01*
X583371Y84809D01*
X583084Y85001D01*
X582841Y85244D01*
X582649Y85531D01*
X582517Y85850D01*
X582450Y86188D01*
X582450Y86532D01*
X582517Y86870D01*
X582649Y87189D01*
X582841Y87476D01*
X583084Y87719D01*
X583371Y87911D01*
X583690Y88043D01*
X584028Y88110D01*
X584372Y88110D01*
X584710Y88043D01*
X585029Y87911D01*
X585316Y87719D01*
X585559Y87476D01*
X585751Y87189D01*
X585883Y86870D01*
X585950Y86532D01*
X585950Y86188D01*
X611350Y86188D02*
X611283Y85850D01*
X611151Y85531D01*
X610959Y85244D01*
X610716Y85001D01*
X610429Y84809D01*
X610110Y84677D01*
X609772Y84610D01*
X609428Y84610D01*
X609090Y84677D01*
X608771Y84809D01*
X608484Y85001D01*
X608241Y85244D01*
X608049Y85531D01*
X607917Y85850D01*
X607850Y86188D01*
X607850Y86532D01*
X607917Y86870D01*
X608049Y87189D01*
X608241Y87476D01*
X608484Y87719D01*
X608771Y87911D01*
X609090Y88043D01*
X609428Y88110D01*
X609772Y88110D01*
X610110Y88043D01*
X610429Y87911D01*
X610716Y87719D01*
X610959Y87476D01*
X611151Y87189D01*
X611283Y86870D01*
X611350Y86532D01*
X611350Y86188D01*
X49050Y495128D02*
X49117Y494790D01*
X49249Y494471D01*
X49441Y494184D01*
X49684Y493941D01*
X49971Y493749D01*
X50290Y493617D01*
X50628Y493550D01*
X50972Y493550D01*
X51310Y493617D01*
X51629Y493749D01*
X51916Y493941D01*
X52159Y494184D01*
X52351Y494471D01*
X52483Y494790D01*
X52550Y495128D01*
X52550Y495472D01*
X52483Y495810D01*
X52351Y496129D01*
X52159Y496416D01*
X51916Y496659D01*
X51629Y496851D01*
X51310Y496983D01*
X50972Y497050D01*
X50628Y497050D01*
X50290Y496983D01*
X49971Y496851D01*
X49684Y496659D01*
X49441Y496416D01*
X49249Y496129D01*
X49117Y495810D01*
X49050Y495472D01*
X49050Y495128D01*
X74450Y495128D02*
X74517Y494790D01*
X74649Y494471D01*
X74841Y494184D01*
X75084Y493941D01*
X75371Y493749D01*
X75690Y493617D01*
X76028Y493550D01*
X76372Y493550D01*
X76710Y493617D01*
X77029Y493749D01*
X77316Y493941D01*
X77559Y494184D01*
X77751Y494471D01*
X77883Y494790D01*
X77950Y495128D01*
X77950Y495472D01*
X77883Y495810D01*
X77751Y496129D01*
X77559Y496416D01*
X77316Y496659D01*
X77029Y496851D01*
X76710Y496983D01*
X76372Y497050D01*
X76028Y497050D01*
X75690Y496983D01*
X75371Y496851D01*
X75084Y496659D01*
X74841Y496416D01*
X74649Y496129D01*
X74517Y495810D01*
X74450Y495472D01*
X74450Y495128D01*
X99850Y495128D02*
X99917Y494790D01*
X100049Y494471D01*
X100241Y494184D01*
X100484Y493941D01*
X100771Y493749D01*
X101090Y493617D01*
X101428Y493550D01*
X101772Y493550D01*
X102110Y493617D01*
X102429Y493749D01*
X102716Y493941D01*
X102959Y494184D01*
X103151Y494471D01*
X103283Y494790D01*
X103350Y495128D01*
X103350Y495472D01*
X103283Y495810D01*
X103151Y496129D01*
X102959Y496416D01*
X102716Y496659D01*
X102429Y496851D01*
X102110Y496983D01*
X101772Y497050D01*
X101428Y497050D01*
X101090Y496983D01*
X100771Y496851D01*
X100484Y496659D01*
X100241Y496416D01*
X100049Y496129D01*
X99917Y495810D01*
X99850Y495472D01*
X99850Y495128D01*
X125250Y495128D02*
X125317Y494790D01*
X125449Y494471D01*
X125641Y494184D01*
X125884Y493941D01*
X126171Y493749D01*
X126490Y493617D01*
X126828Y493550D01*
X127172Y493550D01*
X127510Y493617D01*
X127829Y493749D01*
X128116Y493941D01*
X128359Y494184D01*
X128551Y494471D01*
X128683Y494790D01*
X128750Y495128D01*
X128750Y495472D01*
X128683Y495810D01*
X128551Y496129D01*
X128359Y496416D01*
X128116Y496659D01*
X127829Y496851D01*
X127510Y496983D01*
X127172Y497050D01*
X126828Y497050D01*
X126490Y496983D01*
X126171Y496851D01*
X125884Y496659D01*
X125641Y496416D01*
X125449Y496129D01*
X125317Y495810D01*
X125250Y495472D01*
X125250Y495128D01*
X150650Y495128D02*
X150717Y494790D01*
X150849Y494471D01*
X151041Y494184D01*
X151284Y493941D01*
X151571Y493749D01*
X151890Y493617D01*
X152228Y493550D01*
X152572Y493550D01*
X152910Y493617D01*
X153229Y493749D01*
X153516Y493941D01*
X153759Y494184D01*
X153951Y494471D01*
X154083Y494790D01*
X154150Y495128D01*
X154150Y495472D01*
X154083Y495810D01*
X153951Y496129D01*
X153759Y496416D01*
X153516Y496659D01*
X153229Y496851D01*
X152910Y496983D01*
X152572Y497050D01*
X152228Y497050D01*
X151890Y496983D01*
X151571Y496851D01*
X151284Y496659D01*
X151041Y496416D01*
X150849Y496129D01*
X150717Y495810D01*
X150650Y495472D01*
X150650Y495128D01*
X176050Y495128D02*
X176117Y494790D01*
X176249Y494471D01*
X176441Y494184D01*
X176684Y493941D01*
X176971Y493749D01*
X177290Y493617D01*
X177628Y493550D01*
X177972Y493550D01*
X178310Y493617D01*
X178629Y493749D01*
X178916Y493941D01*
X179159Y494184D01*
X179351Y494471D01*
X179483Y494790D01*
X179550Y495128D01*
X179550Y495472D01*
X179483Y495810D01*
X179351Y496129D01*
X179159Y496416D01*
X178916Y496659D01*
X178629Y496851D01*
X178310Y496983D01*
X177972Y497050D01*
X177628Y497050D01*
X177290Y496983D01*
X176971Y496851D01*
X176684Y496659D01*
X176441Y496416D01*
X176249Y496129D01*
X176117Y495810D01*
X176050Y495472D01*
X176050Y495128D01*
X201450Y495128D02*
X201517Y494790D01*
X201649Y494471D01*
X201841Y494184D01*
X202084Y493941D01*
X202371Y493749D01*
X202690Y493617D01*
X203028Y493550D01*
X203372Y493550D01*
X203710Y493617D01*
X204029Y493749D01*
X204316Y493941D01*
X204559Y494184D01*
X204751Y494471D01*
X204883Y494790D01*
X204950Y495128D01*
X204950Y495472D01*
X204883Y495810D01*
X204751Y496129D01*
X204559Y496416D01*
X204316Y496659D01*
X204029Y496851D01*
X203710Y496983D01*
X203372Y497050D01*
X203028Y497050D01*
X202690Y496983D01*
X202371Y496851D01*
X202084Y496659D01*
X201841Y496416D01*
X201649Y496129D01*
X201517Y495810D01*
X201450Y495472D01*
X201450Y495128D01*
X226850Y495128D02*
X226917Y494790D01*
X227049Y494471D01*
X227241Y494184D01*
X227484Y493941D01*
X227771Y493749D01*
X228090Y493617D01*
X228428Y493550D01*
X228772Y493550D01*
X229110Y493617D01*
X229429Y493749D01*
X229716Y493941D01*
X229959Y494184D01*
X230151Y494471D01*
X230283Y494790D01*
X230350Y495128D01*
X230350Y495472D01*
X230283Y495810D01*
X230151Y496129D01*
X229959Y496416D01*
X229716Y496659D01*
X229429Y496851D01*
X229110Y496983D01*
X228772Y497050D01*
X228428Y497050D01*
X228090Y496983D01*
X227771Y496851D01*
X227484Y496659D01*
X227241Y496416D01*
X227049Y496129D01*
X226917Y495810D01*
X226850Y495472D01*
X226850Y495128D01*
X252250Y495128D02*
X252317Y494790D01*
X252449Y494471D01*
X252641Y494184D01*
X252884Y493941D01*
X253171Y493749D01*
X253490Y493617D01*
X253828Y493550D01*
X254172Y493550D01*
X254510Y493617D01*
X254829Y493749D01*
X255116Y493941D01*
X255359Y494184D01*
X255551Y494471D01*
X255683Y494790D01*
X255750Y495128D01*
X255750Y495472D01*
X255683Y495810D01*
X255551Y496129D01*
X255359Y496416D01*
X255116Y496659D01*
X254829Y496851D01*
X254510Y496983D01*
X254172Y497050D01*
X253828Y497050D01*
X253490Y496983D01*
X253171Y496851D01*
X252884Y496659D01*
X252641Y496416D01*
X252449Y496129D01*
X252317Y495810D01*
X252250Y495472D01*
X252250Y495128D01*
X277650Y495128D02*
X277717Y494790D01*
X277849Y494471D01*
X278041Y494184D01*
X278284Y493941D01*
X278571Y493749D01*
X278890Y493617D01*
X279228Y493550D01*
X279572Y493550D01*
X279910Y493617D01*
X280229Y493749D01*
X280516Y493941D01*
X280759Y494184D01*
X280951Y494471D01*
X281083Y494790D01*
X281150Y495128D01*
X281150Y495472D01*
X281083Y495810D01*
X280951Y496129D01*
X280759Y496416D01*
X280516Y496659D01*
X280229Y496851D01*
X279910Y496983D01*
X279572Y497050D01*
X279228Y497050D01*
X278890Y496983D01*
X278571Y496851D01*
X278284Y496659D01*
X278041Y496416D01*
X277849Y496129D01*
X277717Y495810D01*
X277650Y495472D01*
X277650Y495128D01*
X303050Y495128D02*
X303117Y494790D01*
X303249Y494471D01*
X303441Y494184D01*
X303684Y493941D01*
X303971Y493749D01*
X304290Y493617D01*
X304628Y493550D01*
X304972Y493550D01*
X305310Y493617D01*
X305629Y493749D01*
X305916Y493941D01*
X306159Y494184D01*
X306351Y494471D01*
X306483Y494790D01*
X306550Y495128D01*
X306550Y495472D01*
X306483Y495810D01*
X306351Y496129D01*
X306159Y496416D01*
X305916Y496659D01*
X305629Y496851D01*
X305310Y496983D01*
X304972Y497050D01*
X304628Y497050D01*
X304290Y496983D01*
X303971Y496851D01*
X303684Y496659D01*
X303441Y496416D01*
X303249Y496129D01*
X303117Y495810D01*
X303050Y495472D01*
X303050Y495128D01*
X328450Y495128D02*
X328517Y494790D01*
X328649Y494471D01*
X328841Y494184D01*
X329084Y493941D01*
X329371Y493749D01*
X329690Y493617D01*
X330028Y493550D01*
X330372Y493550D01*
X330710Y493617D01*
X331029Y493749D01*
X331316Y493941D01*
X331559Y494184D01*
X331751Y494471D01*
X331883Y494790D01*
X331950Y495128D01*
X331950Y495472D01*
X331883Y495810D01*
X331751Y496129D01*
X331559Y496416D01*
X331316Y496659D01*
X331029Y496851D01*
X330710Y496983D01*
X330372Y497050D01*
X330028Y497050D01*
X329690Y496983D01*
X329371Y496851D01*
X329084Y496659D01*
X328841Y496416D01*
X328649Y496129D01*
X328517Y495810D01*
X328450Y495472D01*
X328450Y495128D01*
X353850Y495128D02*
X353917Y494790D01*
X354049Y494471D01*
X354241Y494184D01*
X354484Y493941D01*
X354771Y493749D01*
X355090Y493617D01*
X355428Y493550D01*
X355772Y493550D01*
X356110Y493617D01*
X356429Y493749D01*
X356716Y493941D01*
X356959Y494184D01*
X357151Y494471D01*
X357283Y494790D01*
X357350Y495128D01*
X357350Y495472D01*
X357283Y495810D01*
X357151Y496129D01*
X356959Y496416D01*
X356716Y496659D01*
X356429Y496851D01*
X356110Y496983D01*
X355772Y497050D01*
X355428Y497050D01*
X355090Y496983D01*
X354771Y496851D01*
X354484Y496659D01*
X354241Y496416D01*
X354049Y496129D01*
X353917Y495810D01*
X353850Y495472D01*
X353850Y495128D01*
X379250Y495128D02*
X379317Y494790D01*
X379449Y494471D01*
X379641Y494184D01*
X379884Y493941D01*
X380171Y493749D01*
X380490Y493617D01*
X380828Y493550D01*
X381172Y493550D01*
X381510Y493617D01*
X381829Y493749D01*
X382116Y493941D01*
X382359Y494184D01*
X382551Y494471D01*
X382683Y494790D01*
X382750Y495128D01*
X382750Y495472D01*
X382683Y495810D01*
X382551Y496129D01*
X382359Y496416D01*
X382116Y496659D01*
X381829Y496851D01*
X381510Y496983D01*
X381172Y497050D01*
X380828Y497050D01*
X380490Y496983D01*
X380171Y496851D01*
X379884Y496659D01*
X379641Y496416D01*
X379449Y496129D01*
X379317Y495810D01*
X379250Y495472D01*
X379250Y495128D01*
X404650Y495128D02*
X404717Y494790D01*
X404849Y494471D01*
X405041Y494184D01*
X405284Y493941D01*
X405571Y493749D01*
X405890Y493617D01*
X406228Y493550D01*
X406572Y493550D01*
X406910Y493617D01*
X407229Y493749D01*
X407516Y493941D01*
X407759Y494184D01*
X407951Y494471D01*
X408083Y494790D01*
X408150Y495128D01*
X408150Y495472D01*
X408083Y495810D01*
X407951Y496129D01*
X407759Y496416D01*
X407516Y496659D01*
X407229Y496851D01*
X406910Y496983D01*
X406572Y497050D01*
X406228Y497050D01*
X405890Y496983D01*
X405571Y496851D01*
X405284Y496659D01*
X405041Y496416D01*
X404849Y496129D01*
X404717Y495810D01*
X404650Y495472D01*
X404650Y495128D01*
X430050Y495128D02*
X430117Y494790D01*
X430249Y494471D01*
X430441Y494184D01*
X430684Y493941D01*
X430971Y493749D01*
X431290Y493617D01*
X431628Y493550D01*
X431972Y493550D01*
X432310Y493617D01*
X432629Y493749D01*
X432916Y493941D01*
X433159Y494184D01*
X433351Y494471D01*
X433483Y494790D01*
X433550Y495128D01*
X433550Y495472D01*
X433483Y495810D01*
X433351Y496129D01*
X433159Y496416D01*
X432916Y496659D01*
X432629Y496851D01*
X432310Y496983D01*
X431972Y497050D01*
X431628Y497050D01*
X431290Y496983D01*
X430971Y496851D01*
X430684Y496659D01*
X430441Y496416D01*
X430249Y496129D01*
X430117Y495810D01*
X430050Y495472D01*
X430050Y495128D01*
X455450Y495128D02*
X455517Y494790D01*
X455649Y494471D01*
X455841Y494184D01*
X456084Y493941D01*
X456371Y493749D01*
X456690Y493617D01*
X457028Y493550D01*
X457372Y493550D01*
X457710Y493617D01*
X458029Y493749D01*
X458316Y493941D01*
X458559Y494184D01*
X458751Y494471D01*
X458883Y494790D01*
X458950Y495128D01*
X458950Y495472D01*
X458883Y495810D01*
X458751Y496129D01*
X458559Y496416D01*
X458316Y496659D01*
X458029Y496851D01*
X457710Y496983D01*
X457372Y497050D01*
X457028Y497050D01*
X456690Y496983D01*
X456371Y496851D01*
X456084Y496659D01*
X455841Y496416D01*
X455649Y496129D01*
X455517Y495810D01*
X455450Y495472D01*
X455450Y495128D01*
X480850Y495128D02*
X480917Y494790D01*
X481049Y494471D01*
X481241Y494184D01*
X481484Y493941D01*
X481771Y493749D01*
X482090Y493617D01*
X482428Y493550D01*
X482772Y493550D01*
X483110Y493617D01*
X483429Y493749D01*
X483716Y493941D01*
X483959Y494184D01*
X484151Y494471D01*
X484283Y494790D01*
X484350Y495128D01*
X484350Y495472D01*
X484283Y495810D01*
X484151Y496129D01*
X483959Y496416D01*
X483716Y496659D01*
X483429Y496851D01*
X483110Y496983D01*
X482772Y497050D01*
X482428Y497050D01*
X482090Y496983D01*
X481771Y496851D01*
X481484Y496659D01*
X481241Y496416D01*
X481049Y496129D01*
X480917Y495810D01*
X480850Y495472D01*
X480850Y495128D01*
X506250Y495128D02*
X506317Y494790D01*
X506449Y494471D01*
X506641Y494184D01*
X506884Y493941D01*
X507171Y493749D01*
X507490Y493617D01*
X507828Y493550D01*
X508172Y493550D01*
X508510Y493617D01*
X508829Y493749D01*
X509116Y493941D01*
X509359Y494184D01*
X509551Y494471D01*
X509683Y494790D01*
X509750Y495128D01*
X509750Y495472D01*
X509683Y495810D01*
X509551Y496129D01*
X509359Y496416D01*
X509116Y496659D01*
X508829Y496851D01*
X508510Y496983D01*
X508172Y497050D01*
X507828Y497050D01*
X507490Y496983D01*
X507171Y496851D01*
X506884Y496659D01*
X506641Y496416D01*
X506449Y496129D01*
X506317Y495810D01*
X506250Y495472D01*
X506250Y495128D01*
X531650Y495128D02*
X531717Y494790D01*
X531849Y494471D01*
X532041Y494184D01*
X532284Y493941D01*
X532571Y493749D01*
X532890Y493617D01*
X533228Y493550D01*
X533572Y493550D01*
X533910Y493617D01*
X534229Y493749D01*
X534516Y493941D01*
X534759Y494184D01*
X534951Y494471D01*
X535083Y494790D01*
X535150Y495128D01*
X535150Y495472D01*
X535083Y495810D01*
X534951Y496129D01*
X534759Y496416D01*
X534516Y496659D01*
X534229Y496851D01*
X533910Y496983D01*
X533572Y497050D01*
X533228Y497050D01*
X532890Y496983D01*
X532571Y496851D01*
X532284Y496659D01*
X532041Y496416D01*
X531849Y496129D01*
X531717Y495810D01*
X531650Y495472D01*
X531650Y495128D01*
X557050Y495128D02*
X557117Y494790D01*
X557249Y494471D01*
X557441Y494184D01*
X557684Y493941D01*
X557971Y493749D01*
X558290Y493617D01*
X558628Y493550D01*
X558972Y493550D01*
X559310Y493617D01*
X559629Y493749D01*
X559916Y493941D01*
X560159Y494184D01*
X560351Y494471D01*
X560483Y494790D01*
X560550Y495128D01*
X560550Y495472D01*
X560483Y495810D01*
X560351Y496129D01*
X560159Y496416D01*
X559916Y496659D01*
X559629Y496851D01*
X559310Y496983D01*
X558972Y497050D01*
X558628Y497050D01*
X558290Y496983D01*
X557971Y496851D01*
X557684Y496659D01*
X557441Y496416D01*
X557249Y496129D01*
X557117Y495810D01*
X557050Y495472D01*
X557050Y495128D01*
X582450Y495128D02*
X582517Y494790D01*
X582649Y494471D01*
X582841Y494184D01*
X583084Y493941D01*
X583371Y493749D01*
X583690Y493617D01*
X584028Y493550D01*
X584372Y493550D01*
X584710Y493617D01*
X585029Y493749D01*
X585316Y493941D01*
X585559Y494184D01*
X585751Y494471D01*
X585883Y494790D01*
X585950Y495128D01*
X585950Y495472D01*
X585883Y495810D01*
X585751Y496129D01*
X585559Y496416D01*
X585316Y496659D01*
X585029Y496851D01*
X584710Y496983D01*
X584372Y497050D01*
X584028Y497050D01*
X583690Y496983D01*
X583371Y496851D01*
X583084Y496659D01*
X582841Y496416D01*
X582649Y496129D01*
X582517Y495810D01*
X582450Y495472D01*
X582450Y495128D01*
X607850Y495128D02*
X607917Y494790D01*
X608049Y494471D01*
X608241Y494184D01*
X608484Y493941D01*
X608771Y493749D01*
X609090Y493617D01*
X609428Y493550D01*
X609772Y493550D01*
X610110Y493617D01*
X610429Y493749D01*
X610716Y493941D01*
X610959Y494184D01*
X611151Y494471D01*
X611283Y494790D01*
X611350Y495128D01*
X611350Y495472D01*
X611283Y495810D01*
X611151Y496129D01*
X610959Y496416D01*
X610716Y496659D01*
X610429Y496851D01*
X610110Y496983D01*
X609772Y497050D01*
X609428Y497050D01*
X609090Y496983D01*
X608771Y496851D01*
X608484Y496659D01*
X608241Y496416D01*
X608049Y496129D01*
X607917Y495810D01*
X607850Y495472D01*
X607850Y495128D01*
X49050Y465918D02*
X49117Y465580D01*
X49249Y465261D01*
X49441Y464974D01*
X49684Y464731D01*
X49971Y464539D01*
X50290Y464407D01*
X50628Y464340D01*
X50972Y464340D01*
X51310Y464407D01*
X51629Y464539D01*
X51916Y464731D01*
X52159Y464974D01*
X52351Y465261D01*
X52483Y465580D01*
X52550Y465918D01*
X52550Y466262D01*
X52483Y466600D01*
X52351Y466919D01*
X52159Y467206D01*
X51916Y467449D01*
X51629Y467641D01*
X51310Y467773D01*
X50972Y467840D01*
X50628Y467840D01*
X50290Y467773D01*
X49971Y467641D01*
X49684Y467449D01*
X49441Y467206D01*
X49249Y466919D01*
X49117Y466600D01*
X49050Y466262D01*
X49050Y465918D01*
X74450Y465918D02*
X74517Y465580D01*
X74649Y465261D01*
X74841Y464974D01*
X75084Y464731D01*
X75371Y464539D01*
X75690Y464407D01*
X76028Y464340D01*
X76372Y464340D01*
X76710Y464407D01*
X77029Y464539D01*
X77316Y464731D01*
X77559Y464974D01*
X77751Y465261D01*
X77883Y465580D01*
X77950Y465918D01*
X77950Y466262D01*
X77883Y466600D01*
X77751Y466919D01*
X77559Y467206D01*
X77316Y467449D01*
X77029Y467641D01*
X76710Y467773D01*
X76372Y467840D01*
X76028Y467840D01*
X75690Y467773D01*
X75371Y467641D01*
X75084Y467449D01*
X74841Y467206D01*
X74649Y466919D01*
X74517Y466600D01*
X74450Y466262D01*
X74450Y465918D01*
X99850Y465918D02*
X99917Y465580D01*
X100049Y465261D01*
X100241Y464974D01*
X100484Y464731D01*
X100771Y464539D01*
X101090Y464407D01*
X101428Y464340D01*
X101772Y464340D01*
X102110Y464407D01*
X102429Y464539D01*
X102716Y464731D01*
X102959Y464974D01*
X103151Y465261D01*
X103283Y465580D01*
X103350Y465918D01*
X103350Y466262D01*
X103283Y466600D01*
X103151Y466919D01*
X102959Y467206D01*
X102716Y467449D01*
X102429Y467641D01*
X102110Y467773D01*
X101772Y467840D01*
X101428Y467840D01*
X101090Y467773D01*
X100771Y467641D01*
X100484Y467449D01*
X100241Y467206D01*
X100049Y466919D01*
X99917Y466600D01*
X99850Y466262D01*
X99850Y465918D01*
X125250Y465918D02*
X125317Y465580D01*
X125449Y465261D01*
X125641Y464974D01*
X125884Y464731D01*
X126171Y464539D01*
X126490Y464407D01*
X126828Y464340D01*
X127172Y464340D01*
X127510Y464407D01*
X127829Y464539D01*
X128116Y464731D01*
X128359Y464974D01*
X128551Y465261D01*
X128683Y465580D01*
X128750Y465918D01*
X128750Y466262D01*
X128683Y466600D01*
X128551Y466919D01*
X128359Y467206D01*
X128116Y467449D01*
X127829Y467641D01*
X127510Y467773D01*
X127172Y467840D01*
X126828Y467840D01*
X126490Y467773D01*
X126171Y467641D01*
X125884Y467449D01*
X125641Y467206D01*
X125449Y466919D01*
X125317Y466600D01*
X125250Y466262D01*
X125250Y465918D01*
X150650Y465918D02*
X150717Y465580D01*
X150849Y465261D01*
X151041Y464974D01*
X151284Y464731D01*
X151571Y464539D01*
X151890Y464407D01*
X152228Y464340D01*
X152572Y464340D01*
X152910Y464407D01*
X153229Y464539D01*
X153516Y464731D01*
X153759Y464974D01*
X153951Y465261D01*
X154083Y465580D01*
X154150Y465918D01*
X154150Y466262D01*
X154083Y466600D01*
X153951Y466919D01*
X153759Y467206D01*
X153516Y467449D01*
X153229Y467641D01*
X152910Y467773D01*
X152572Y467840D01*
X152228Y467840D01*
X151890Y467773D01*
X151571Y467641D01*
X151284Y467449D01*
X151041Y467206D01*
X150849Y466919D01*
X150717Y466600D01*
X150650Y466262D01*
X150650Y465918D01*
X176050Y465918D02*
X176117Y465580D01*
X176249Y465261D01*
X176441Y464974D01*
X176684Y464731D01*
X176971Y464539D01*
X177290Y464407D01*
X177628Y464340D01*
X177972Y464340D01*
X178310Y464407D01*
X178629Y464539D01*
X178916Y464731D01*
X179159Y464974D01*
X179351Y465261D01*
X179483Y465580D01*
X179550Y465918D01*
X179550Y466262D01*
X179483Y466600D01*
X179351Y466919D01*
X179159Y467206D01*
X178916Y467449D01*
X178629Y467641D01*
X178310Y467773D01*
X177972Y467840D01*
X177628Y467840D01*
X177290Y467773D01*
X176971Y467641D01*
X176684Y467449D01*
X176441Y467206D01*
X176249Y466919D01*
X176117Y466600D01*
X176050Y466262D01*
X176050Y465918D01*
X201450Y465918D02*
X201517Y465580D01*
X201649Y465261D01*
X201841Y464974D01*
X202084Y464731D01*
X202371Y464539D01*
X202690Y464407D01*
X203028Y464340D01*
X203372Y464340D01*
X203710Y464407D01*
X204029Y464539D01*
X204316Y464731D01*
X204559Y464974D01*
X204751Y465261D01*
X204883Y465580D01*
X204950Y465918D01*
X204950Y466262D01*
X204883Y466600D01*
X204751Y466919D01*
X204559Y467206D01*
X204316Y467449D01*
X204029Y467641D01*
X203710Y467773D01*
X203372Y467840D01*
X203028Y467840D01*
X202690Y467773D01*
X202371Y467641D01*
X202084Y467449D01*
X201841Y467206D01*
X201649Y466919D01*
X201517Y466600D01*
X201450Y466262D01*
X201450Y465918D01*
X226850Y465918D02*
X226917Y465580D01*
X227049Y465261D01*
X227241Y464974D01*
X227484Y464731D01*
X227771Y464539D01*
X228090Y464407D01*
X228428Y464340D01*
X228772Y464340D01*
X229110Y464407D01*
X229429Y464539D01*
X229716Y464731D01*
X229959Y464974D01*
X230151Y465261D01*
X230283Y465580D01*
X230350Y465918D01*
X230350Y466262D01*
X230283Y466600D01*
X230151Y466919D01*
X229959Y467206D01*
X229716Y467449D01*
X229429Y467641D01*
X229110Y467773D01*
X228772Y467840D01*
X228428Y467840D01*
X228090Y467773D01*
X227771Y467641D01*
X227484Y467449D01*
X227241Y467206D01*
X227049Y466919D01*
X226917Y466600D01*
X226850Y466262D01*
X226850Y465918D01*
X252250Y465918D02*
X252317Y465580D01*
X252449Y465261D01*
X252641Y464974D01*
X252884Y464731D01*
X253171Y464539D01*
X253490Y464407D01*
X253828Y464340D01*
X254172Y464340D01*
X254510Y464407D01*
X254829Y464539D01*
X255116Y464731D01*
X255359Y464974D01*
X255551Y465261D01*
X255683Y465580D01*
X255750Y465918D01*
X255750Y466262D01*
X255683Y466600D01*
X255551Y466919D01*
X255359Y467206D01*
X255116Y467449D01*
X254829Y467641D01*
X254510Y467773D01*
X254172Y467840D01*
X253828Y467840D01*
X253490Y467773D01*
X253171Y467641D01*
X252884Y467449D01*
X252641Y467206D01*
X252449Y466919D01*
X252317Y466600D01*
X252250Y466262D01*
X252250Y465918D01*
X277650Y465918D02*
X277717Y465580D01*
X277849Y465261D01*
X278041Y464974D01*
X278284Y464731D01*
X278571Y464539D01*
X278890Y464407D01*
X279228Y464340D01*
X279572Y464340D01*
X279910Y464407D01*
X280229Y464539D01*
X280516Y464731D01*
X280759Y464974D01*
X280951Y465261D01*
X281083Y465580D01*
X281150Y465918D01*
X281150Y466262D01*
X281083Y466600D01*
X280951Y466919D01*
X280759Y467206D01*
X280516Y467449D01*
X280229Y467641D01*
X279910Y467773D01*
X279572Y467840D01*
X279228Y467840D01*
X278890Y467773D01*
X278571Y467641D01*
X278284Y467449D01*
X278041Y467206D01*
X277849Y466919D01*
X277717Y466600D01*
X277650Y466262D01*
X277650Y465918D01*
X303050Y465918D02*
X303117Y465580D01*
X303249Y465261D01*
X303441Y464974D01*
X303684Y464731D01*
X303971Y464539D01*
X304290Y464407D01*
X304628Y464340D01*
X304972Y464340D01*
X305310Y464407D01*
X305629Y464539D01*
X305916Y464731D01*
X306159Y464974D01*
X306351Y465261D01*
X306483Y465580D01*
X306550Y465918D01*
X306550Y466262D01*
X306483Y466600D01*
X306351Y466919D01*
X306159Y467206D01*
X305916Y467449D01*
X305629Y467641D01*
X305310Y467773D01*
X304972Y467840D01*
X304628Y467840D01*
X304290Y467773D01*
X303971Y467641D01*
X303684Y467449D01*
X303441Y467206D01*
X303249Y466919D01*
X303117Y466600D01*
X303050Y466262D01*
X303050Y465918D01*
X328450Y465918D02*
X328517Y465580D01*
X328649Y465261D01*
X328841Y464974D01*
X329084Y464731D01*
X329371Y464539D01*
X329690Y464407D01*
X330028Y464340D01*
X330372Y464340D01*
X330710Y464407D01*
X331029Y464539D01*
X331316Y464731D01*
X331559Y464974D01*
X331751Y465261D01*
X331883Y465580D01*
X331950Y465918D01*
X331950Y466262D01*
X331883Y466600D01*
X331751Y466919D01*
X331559Y467206D01*
X331316Y467449D01*
X331029Y467641D01*
X330710Y467773D01*
X330372Y467840D01*
X330028Y467840D01*
X329690Y467773D01*
X329371Y467641D01*
X329084Y467449D01*
X328841Y467206D01*
X328649Y466919D01*
X328517Y466600D01*
X328450Y466262D01*
X328450Y465918D01*
X353850Y465918D02*
X353917Y465580D01*
X354049Y465261D01*
X354241Y464974D01*
X354484Y464731D01*
X354771Y464539D01*
X355090Y464407D01*
X355428Y464340D01*
X355772Y464340D01*
X356110Y464407D01*
X356429Y464539D01*
X356716Y464731D01*
X356959Y464974D01*
X357151Y465261D01*
X357283Y465580D01*
X357350Y465918D01*
X357350Y466262D01*
X357283Y466600D01*
X357151Y466919D01*
X356959Y467206D01*
X356716Y467449D01*
X356429Y467641D01*
X356110Y467773D01*
X355772Y467840D01*
X355428Y467840D01*
X355090Y467773D01*
X354771Y467641D01*
X354484Y467449D01*
X354241Y467206D01*
X354049Y466919D01*
X353917Y466600D01*
X353850Y466262D01*
X353850Y465918D01*
X379250Y465918D02*
X379317Y465580D01*
X379449Y465261D01*
X379641Y464974D01*
X379884Y464731D01*
X380171Y464539D01*
X380490Y464407D01*
X380828Y464340D01*
X381172Y464340D01*
X381510Y464407D01*
X381829Y464539D01*
X382116Y464731D01*
X382359Y464974D01*
X382551Y465261D01*
X382683Y465580D01*
X382750Y465918D01*
X382750Y466262D01*
X382683Y466600D01*
X382551Y466919D01*
X382359Y467206D01*
X382116Y467449D01*
X381829Y467641D01*
X381510Y467773D01*
X381172Y467840D01*
X380828Y467840D01*
X380490Y467773D01*
X380171Y467641D01*
X379884Y467449D01*
X379641Y467206D01*
X379449Y466919D01*
X379317Y466600D01*
X379250Y466262D01*
X379250Y465918D01*
M02*
