G04 EAGLE Gerber RS-274X export*
G75*
%MOMM*%
%FSLAX34Y34*%
%LPD*%
%INSoldermask Bottom*%
%IPPOS*%
%AMOC8*
5,1,8,0,0,1.08239X$1,22.5*%
G01*
%ADD10P,1.869504X8X22.500000*%
%ADD11P,1.759533X8X202.500000*%
%ADD12C,1.625600*%
%ADD13C,0.553200*%
%ADD14C,1.727200*%
%ADD15P,1.759533X8X22.500000*%


D10*
X50800Y40640D03*
X50800Y60960D03*
X76200Y40640D03*
X76200Y60960D03*
X101600Y40640D03*
X101600Y60960D03*
X127000Y40640D03*
X127000Y60960D03*
X152400Y40640D03*
X152400Y60960D03*
X177800Y40640D03*
X177800Y60960D03*
X203200Y40640D03*
X203200Y60960D03*
X228600Y40640D03*
X228600Y60960D03*
X254000Y40640D03*
X254000Y60960D03*
X279400Y40640D03*
X279400Y60960D03*
X304800Y40640D03*
X304800Y60960D03*
X330200Y40640D03*
X330200Y60960D03*
X355600Y40640D03*
X355600Y60960D03*
X381000Y40640D03*
X381000Y60960D03*
X406400Y40640D03*
X406400Y60960D03*
X431800Y40640D03*
X431800Y60960D03*
X457200Y40640D03*
X457200Y60960D03*
X482600Y40640D03*
X482600Y60960D03*
X508000Y40640D03*
X508000Y60960D03*
X533400Y40640D03*
X533400Y60960D03*
X558800Y40640D03*
X558800Y60960D03*
X584200Y40640D03*
X584200Y60960D03*
X609600Y40640D03*
X609600Y60960D03*
D11*
X194310Y344170D03*
X118110Y344170D03*
D12*
X406400Y466090D03*
D13*
X406400Y466090D03*
D12*
X431800Y466090D03*
D13*
X431800Y466090D03*
D12*
X457200Y466090D03*
D13*
X457200Y466090D03*
D12*
X482600Y466090D03*
D13*
X482600Y466090D03*
D12*
X508000Y466090D03*
D13*
X508000Y466090D03*
D12*
X533400Y466090D03*
D13*
X533400Y466090D03*
D12*
X558800Y466090D03*
D13*
X558800Y466090D03*
D12*
X584200Y466090D03*
D13*
X584200Y466090D03*
D12*
X609600Y466090D03*
D13*
X609600Y466090D03*
D14*
X139700Y233680D02*
X139700Y218440D01*
X114300Y218440D02*
X114300Y233680D01*
D11*
X193040Y430530D03*
X116840Y430530D03*
D12*
X222250Y345440D03*
D13*
X222250Y345440D03*
D12*
X219710Y430530D03*
D13*
X219710Y430530D03*
D12*
X220980Y388620D03*
D13*
X220980Y388620D03*
D11*
X195580Y388620D03*
X119380Y388620D03*
D14*
X227330Y187960D02*
X227330Y172720D01*
X201930Y172720D02*
X201930Y187960D01*
X176530Y187960D02*
X176530Y172720D01*
X151130Y172720D02*
X151130Y187960D01*
D11*
X133350Y153670D03*
X57150Y153670D03*
D15*
X250190Y256540D03*
X326390Y256540D03*
X250190Y227330D03*
X326390Y227330D03*
D12*
X50800Y118110D03*
D13*
X50800Y118110D03*
D12*
X76200Y118110D03*
D13*
X76200Y118110D03*
D12*
X101600Y118110D03*
D13*
X101600Y118110D03*
D10*
X50800Y523240D03*
X50800Y543560D03*
X76200Y523240D03*
X76200Y543560D03*
X101600Y523240D03*
X101600Y543560D03*
X127000Y523240D03*
X127000Y543560D03*
X152400Y523240D03*
X152400Y543560D03*
X177800Y523240D03*
X177800Y543560D03*
X203200Y523240D03*
X203200Y543560D03*
X228600Y523240D03*
X228600Y543560D03*
X254000Y523240D03*
X254000Y543560D03*
X279400Y523240D03*
X279400Y543560D03*
X304800Y523240D03*
X304800Y543560D03*
X330200Y523240D03*
X330200Y543560D03*
X355600Y523240D03*
X355600Y543560D03*
X381000Y523240D03*
X381000Y543560D03*
X406400Y523240D03*
X406400Y543560D03*
X431800Y523240D03*
X431800Y543560D03*
X457200Y523240D03*
X457200Y543560D03*
X482600Y523240D03*
X482600Y543560D03*
X508000Y523240D03*
X508000Y543560D03*
X533400Y523240D03*
X533400Y543560D03*
X558800Y523240D03*
X558800Y543560D03*
X584200Y523240D03*
X584200Y543560D03*
X609600Y523240D03*
X609600Y543560D03*
D12*
X127000Y116840D03*
D13*
X127000Y116840D03*
D12*
X152400Y118110D03*
D13*
X152400Y118110D03*
D12*
X177800Y118110D03*
D13*
X177800Y118110D03*
D12*
X203200Y118110D03*
D13*
X203200Y118110D03*
D12*
X228600Y118110D03*
D13*
X228600Y118110D03*
D12*
X254000Y118110D03*
D13*
X254000Y118110D03*
D12*
X279400Y118110D03*
D13*
X279400Y118110D03*
D12*
X304800Y118110D03*
D13*
X304800Y118110D03*
D12*
X330200Y118110D03*
D13*
X330200Y118110D03*
D12*
X355600Y118110D03*
D13*
X355600Y118110D03*
D14*
X459740Y166370D02*
X474980Y166370D01*
X474980Y191770D02*
X459740Y191770D01*
X459740Y217170D02*
X474980Y217170D01*
X474980Y242570D02*
X459740Y242570D01*
D12*
X381000Y118110D03*
D13*
X381000Y118110D03*
D12*
X406400Y118110D03*
D13*
X406400Y118110D03*
D12*
X431800Y118110D03*
D13*
X431800Y118110D03*
D12*
X457200Y118110D03*
D13*
X457200Y118110D03*
D12*
X482600Y118110D03*
D13*
X482600Y118110D03*
D12*
X508000Y118110D03*
D13*
X508000Y118110D03*
D12*
X533400Y118110D03*
D13*
X533400Y118110D03*
D12*
X558800Y118110D03*
D13*
X558800Y118110D03*
D12*
X584200Y118110D03*
D13*
X584200Y118110D03*
D12*
X609600Y118110D03*
D13*
X609600Y118110D03*
D14*
X441960Y166370D02*
X426720Y166370D01*
X426720Y191770D02*
X441960Y191770D01*
X441960Y217170D02*
X426720Y217170D01*
X426720Y242570D02*
X441960Y242570D01*
D12*
X50800Y86360D03*
D13*
X50800Y86360D03*
D12*
X76200Y86360D03*
D13*
X76200Y86360D03*
D12*
X101600Y86360D03*
D13*
X101600Y86360D03*
D12*
X127000Y86360D03*
D13*
X127000Y86360D03*
D12*
X152400Y86360D03*
D13*
X152400Y86360D03*
D12*
X177800Y86360D03*
D13*
X177800Y86360D03*
D12*
X203200Y86360D03*
D13*
X203200Y86360D03*
D12*
X228600Y86360D03*
D13*
X228600Y86360D03*
D12*
X254000Y86360D03*
D13*
X254000Y86360D03*
D12*
X279400Y86360D03*
D13*
X279400Y86360D03*
D14*
X393700Y166370D02*
X408940Y166370D01*
X408940Y191770D02*
X393700Y191770D01*
X393700Y217170D02*
X408940Y217170D01*
X408940Y242570D02*
X393700Y242570D01*
D12*
X304800Y86360D03*
D13*
X304800Y86360D03*
D12*
X330200Y86360D03*
D13*
X330200Y86360D03*
D12*
X355600Y86360D03*
D13*
X355600Y86360D03*
D12*
X381000Y86360D03*
D13*
X381000Y86360D03*
D12*
X406400Y86360D03*
D13*
X406400Y86360D03*
D12*
X431800Y86360D03*
D13*
X431800Y86360D03*
D12*
X457200Y86360D03*
D13*
X457200Y86360D03*
D12*
X482600Y87630D03*
D13*
X482600Y87630D03*
D12*
X508000Y86360D03*
D13*
X508000Y86360D03*
D12*
X533400Y86360D03*
D13*
X533400Y86360D03*
D14*
X548640Y259080D02*
X548640Y274320D01*
X574040Y274320D02*
X574040Y259080D01*
X599440Y259080D02*
X599440Y274320D01*
D12*
X558800Y86360D03*
D13*
X558800Y86360D03*
D12*
X584200Y86360D03*
D13*
X584200Y86360D03*
D12*
X609600Y86360D03*
D13*
X609600Y86360D03*
D12*
X50800Y495300D03*
D13*
X50800Y495300D03*
D12*
X76200Y495300D03*
D13*
X76200Y495300D03*
D12*
X101600Y495300D03*
D13*
X101600Y495300D03*
D12*
X127000Y495300D03*
D13*
X127000Y495300D03*
D12*
X152400Y495300D03*
D13*
X152400Y495300D03*
D12*
X177800Y495300D03*
D13*
X177800Y495300D03*
D12*
X203200Y495300D03*
D13*
X203200Y495300D03*
D14*
X548640Y236220D02*
X548640Y220980D01*
X574040Y220980D02*
X574040Y236220D01*
X599440Y236220D02*
X599440Y220980D01*
D12*
X228600Y495300D03*
D13*
X228600Y495300D03*
D12*
X254000Y495300D03*
D13*
X254000Y495300D03*
D12*
X279400Y495300D03*
D13*
X279400Y495300D03*
D12*
X304800Y495300D03*
D13*
X304800Y495300D03*
D12*
X330200Y495300D03*
D13*
X330200Y495300D03*
D12*
X355600Y495300D03*
D13*
X355600Y495300D03*
D12*
X381000Y495300D03*
D13*
X381000Y495300D03*
D12*
X406400Y495300D03*
D13*
X406400Y495300D03*
D12*
X431800Y495300D03*
D13*
X431800Y495300D03*
D12*
X457200Y495300D03*
D13*
X457200Y495300D03*
D14*
X548640Y203200D02*
X548640Y187960D01*
X574040Y187960D02*
X574040Y203200D01*
X599440Y203200D02*
X599440Y187960D01*
D12*
X482600Y495300D03*
D13*
X482600Y495300D03*
D12*
X508000Y495300D03*
D13*
X508000Y495300D03*
D12*
X533400Y495300D03*
D13*
X533400Y495300D03*
D12*
X558800Y495300D03*
D13*
X558800Y495300D03*
D12*
X584200Y495300D03*
D13*
X584200Y495300D03*
D12*
X609600Y495300D03*
D13*
X609600Y495300D03*
D12*
X50800Y466090D03*
D13*
X50800Y466090D03*
D12*
X76200Y466090D03*
D13*
X76200Y466090D03*
D12*
X101600Y466090D03*
D13*
X101600Y466090D03*
D12*
X127000Y466090D03*
D13*
X127000Y466090D03*
D14*
X548640Y165100D02*
X548640Y149860D01*
X574040Y149860D02*
X574040Y165100D01*
X599440Y165100D02*
X599440Y149860D01*
D12*
X152400Y466090D03*
D13*
X152400Y466090D03*
D12*
X177800Y466090D03*
D13*
X177800Y466090D03*
D12*
X203200Y466090D03*
D13*
X203200Y466090D03*
D12*
X228600Y466090D03*
D13*
X228600Y466090D03*
D12*
X254000Y466090D03*
D13*
X254000Y466090D03*
D12*
X279400Y466090D03*
D13*
X279400Y466090D03*
D12*
X304800Y466090D03*
D13*
X304800Y466090D03*
D12*
X330200Y466090D03*
D13*
X330200Y466090D03*
D12*
X355600Y466090D03*
D13*
X355600Y466090D03*
D12*
X381000Y466090D03*
D13*
X381000Y466090D03*
M02*
