M48
;GenerationSoftware,Autodesk,EAGLE,9.2.2*%
;CreationDate,2019-04-30T19:43:54Z*%
FMAT,2
ICI,OFF
METRIC,TZ,000.000
T2C0.813
T1C1.016
%
G90
M71
T1
X5080Y4064
X5080Y6096
X7620Y4064
X7620Y6096
X10160Y4064
X10160Y6096
X12700Y4064
X12700Y6096
X15240Y4064
X15240Y6096
X17780Y4064
X17780Y6096
X20320Y4064
X20320Y6096
X22860Y4064
X22860Y6096
X25400Y4064
X25400Y6096
X27940Y4064
X27940Y6096
X30480Y4064
X30480Y6096
X33020Y4064
X33020Y6096
X35560Y4064
X35560Y6096
X38100Y4064
X38100Y6096
X40640Y4064
X40640Y6096
X43180Y4064
X43180Y6096
X45720Y4064
X45720Y6096
X48260Y4064
X48260Y6096
X50800Y4064
X50800Y6096
X53340Y4064
X53340Y6096
X55880Y4064
X55880Y6096
X58420Y4064
X58420Y6096
X60960Y4064
X60960Y6096
X58420Y54356
X60960Y52324
X60960Y54356
X47244Y16510
X47244Y19050
X47244Y21590
X47244Y24130
X43688Y16637
X43688Y19177
X43688Y21717
X43688Y24257
X13970Y22606
X11430Y22606
X40132Y16637
X40132Y19177
X40132Y21717
X40132Y24257
X54864Y26670
X57404Y26670
X59944Y26670
X22733Y18034
X20193Y18034
X17653Y18034
X15113Y18034
X54864Y22860
X57404Y22860
X59944Y22860
X54864Y19558
X57404Y19558
X59944Y19558
X54864Y15748
X57404Y15748
X59944Y15748
X5080Y52324
X5080Y54356
X7620Y52324
X7620Y54356
X10160Y52324
X10160Y54356
X12700Y52324
X12700Y54356
X15240Y52324
X15240Y54356
X17780Y52324
X17780Y54356
X20320Y52324
X20320Y54356
X22860Y52324
X22860Y54356
X25400Y52324
X25400Y54356
X27940Y52324
X27940Y54356
X30480Y52324
X30480Y54356
X33020Y52324
X33020Y54356
X35560Y52324
X35560Y54356
X38100Y52324
X38100Y54356
X40640Y52324
X40640Y54356
X43180Y52324
X43180Y54356
X45720Y52324
X45720Y54356
X48260Y52324
X48260Y54356
X50800Y52324
X50800Y54356
X53340Y52324
X53340Y54356
X55880Y52324
X55880Y54356
X58420Y52324
T2
X19431Y34417
X11811Y34417
X40640Y46609
X43180Y46609
X45720Y46609
X48260Y46609
X50800Y46609
X53340Y46609
X55880Y46609
X58420Y46609
X60960Y46609
X19304Y43053
X11684Y43053
X22225Y34544
X21971Y43053
X22098Y38862
X19558Y38862
X11938Y38862
X13335Y15367
X5715Y15367
X27432Y19431
X35052Y19431
X27686Y15494
X35306Y15494
X5080Y11811
X7620Y11811
X10160Y11811
X22860Y11811
X25400Y11811
X27940Y11811
X30480Y11811
X5080Y8636
X7620Y8636
X10160Y8636
X12700Y8636
X15240Y8636
X17780Y8636
X20320Y8636
X22860Y8636
X25400Y8636
X27940Y8636
X33020Y11811
X35560Y11811
X12700Y11684
X15240Y11811
X30480Y8636
X33020Y8636
X35560Y8636
X38100Y8636
X40640Y8636
X43180Y8636
X45720Y8636
X48260Y8763
X50800Y8636
X53340Y8636
X17780Y11811
X20320Y11811
X38100Y11811
X55880Y8636
X58420Y8636
X60960Y8636
X5080Y49530
X7620Y49530
X10160Y49530
X12700Y49530
X15240Y49530
X17780Y49530
X20320Y49530
X40640Y11811
X43180Y11811
X45720Y11811
X22860Y49530
X25400Y49530
X27940Y49530
X30480Y49530
X33020Y49530
X35560Y49530
X38100Y49530
X40640Y49530
X43180Y49530
X45720Y49530
X48260Y11811
X50800Y11811
X53340Y11811
X48260Y49530
X50800Y49530
X53340Y49530
X55880Y49530
X58420Y49530
X60960Y49530
X5080Y46609
X7620Y46609
X10160Y46609
X12700Y46609
X55880Y11811
X58420Y11811
X60960Y11811
X15240Y46609
X17780Y46609
X20320Y46609
X22860Y46609
X25400Y46609
X27940Y46609
X30480Y46609
X33020Y46609
X35560Y46609
X38100Y46609
M30